<svg width="24" height="24" viewBox="0 0 24 24" fill="none" xmlns="http://www.w3.org/2000/svg">
<path fill-rule="evenodd" clip-rule="evenodd" d="M12.0012 -0.00390625C8.74187 -0.00390625 8.33318 0.00990902 7.05312 0.0683143C5.77573 0.126577 4.90333 0.32947 4.13996 0.626165C3.35077 0.932817 2.6815 1.34318 2.01427 2.01036C1.34708 2.67759 0.936723 3.34687 0.630072 4.13605C0.333377 4.89942 0.130483 5.77183 0.0722205 7.04922C0.0138153 8.32927 0 8.73797 0 11.9973C0 15.2566 0.0138153 15.6653 0.0722205 16.9454C0.130483 18.2228 0.333377 19.0952 0.630072 19.8585C0.936723 20.6477 1.34708 21.317 2.01427 21.9842C2.6815 22.6514 3.35077 23.0618 4.13996 23.3685C4.90333 23.6651 5.77573 23.868 7.05312 23.9263C8.33318 23.9847 8.74187 23.9985 12.0012 23.9985C15.2605 23.9985 15.6692 23.9847 16.9493 23.9263C18.2267 23.868 19.0991 23.6651 19.8625 23.3685C20.6516 23.0618 21.3209 22.6514 21.9881 21.9842C22.6553 21.317 23.0657 20.6477 23.3724 19.8585C23.669 19.0952 23.8719 18.2228 23.9302 16.9454C23.9886 15.6653 24.0024 15.2566 24.0024 11.9973C24.0024 8.73797 23.9886 8.32927 23.9302 7.04922C23.8719 5.77183 23.669 4.89942 23.3724 4.13605C23.0657 3.34687 22.6553 2.67759 21.9881 2.01036C21.3209 1.34318 20.6516 0.932817 19.8625 0.626165C19.0991 0.32947 18.2267 0.126577 16.9493 0.0683143C15.6692 0.00990902 15.2605 -0.00390625 12.0012 -0.00390625ZM12.0029 2.15625C15.2073 2.15625 15.5869 2.16849 16.8524 2.22623C18.0225 2.27959 18.658 2.4751 19.0809 2.63945C19.641 2.85716 20.0408 3.11722 20.4608 3.53721C20.8808 3.95714 21.1408 4.35693 21.3585 4.91711C21.5229 5.34 21.7184 5.97546 21.7717 7.14556C21.8295 8.41104 21.8417 8.79063 21.8417 11.9951C21.8417 15.1995 21.8295 15.5791 21.7717 16.8446C21.7184 18.0147 21.5229 18.6502 21.3585 19.073C21.1408 19.6332 20.8808 20.033 20.4608 20.453C20.0408 20.8729 19.641 21.133 19.0809 21.3507C18.658 21.5151 18.0225 21.7106 16.8524 21.7639C15.5871 21.8217 15.2076 21.8339 12.0029 21.8339C8.7982 21.8339 8.41871 21.8217 7.15338 21.7639C5.98327 21.7106 5.34782 21.5151 4.92492 21.3507C4.36474 21.133 3.96495 20.8729 3.54502 20.453C3.12508 20.033 2.86497 19.6332 2.64726 19.073C2.48291 18.6502 2.2874 18.0147 2.23404 16.8446C2.17631 15.5791 2.16406 15.1995 2.16406 11.9951C2.16406 8.79063 2.17631 8.41104 2.23404 7.14556C2.2874 5.97546 2.48291 5.34 2.64726 4.91711C2.86497 4.35693 3.12503 3.95714 3.54502 3.53721C3.96495 3.11722 4.36474 2.85716 4.92492 2.63945C5.34782 2.4751 5.98327 2.27959 7.15338 2.22623C8.41885 2.16849 8.79844 2.15625 12.0029 2.15625ZM5.83594 11.9987C5.83594 8.59509 8.59509 5.83594 11.9987 5.83594C15.4023 5.83594 18.1615 8.59509 18.1615 11.9987C18.1615 15.4023 15.4023 18.1615 11.9987 18.1615C8.59509 18.1615 5.83594 15.4023 5.83594 11.9987ZM12.0004 15.9969C9.79103 15.9969 8 14.2059 8 11.9965C8 9.78712 9.79103 7.99609 12.0004 7.99609C14.2098 7.99609 16.0008 9.78712 16.0008 11.9965C16.0008 14.2059 14.2098 15.9969 12.0004 15.9969ZM18.4089 7.03264C19.2043 7.03264 19.849 6.38789 19.849 5.59251C19.849 4.79714 19.2043 4.15234 18.4089 4.15234C17.6135 4.15234 16.9688 4.79714 16.9688 5.59251C16.9688 6.38789 17.6135 7.03264 18.4089 7.03264Z" fill="#160E64"/>
</svg>
