<svg width="24" height="24" viewBox="0 0 24 24" fill="none" xmlns="http://www.w3.org/2000/svg">
<path fill-rule="evenodd" clip-rule="evenodd" d="M0.653961 3.27606C0 4.55953 0 6.23969 0 9.6V14.4C0 17.7603 0 19.4405 0.653961 20.7239C1.2292 21.8529 2.14708 22.7708 3.27606 23.346C4.55953 24 6.23969 24 9.6 24H14.4C17.7603 24 19.4405 24 20.7239 23.346C21.8529 22.7708 22.7708 21.8529 23.346 20.7239C24 19.4405 24 17.7603 24 14.4V9.6C24 6.23969 24 4.55953 23.346 3.27606C22.7708 2.14708 21.8529 1.2292 20.7239 0.653961C19.4405 0 17.7603 0 14.4 0H9.6C6.23969 0 4.55953 0 3.27606 0.653961C2.14708 1.2292 1.2292 2.14708 0.653961 3.27606ZM8.82066 7.53835C8.82066 8.2926 8.15092 8.90336 7.32479 8.90336C6.49786 8.90336 5.82812 8.2926 5.82812 7.53835C5.82812 6.78344 6.49786 6.17188 7.32479 6.17188C8.15092 6.17188 8.82066 6.78344 8.82066 7.53835ZM6.17188 17.6823H8.85588V9.94141H6.17188V17.6823ZM14.0492 11.6242C13.0449 11.6242 12.6249 12.4923 12.6249 13.38V17.5865H9.94531V9.84555H12.6249V10.8877C13.33 9.97728 13.9426 9.60156 15.0534 9.60156C16.1652 9.60156 17.9724 10.1286 17.9724 13.1859V17.5865H15.3004V13.3588C15.3004 12.4923 15.0534 11.6242 14.0492 11.6242Z" fill="#160E64"/>
</svg>
