<svg width="24" height="24" viewBox="0 0 24 24" fill="none" xmlns="http://www.w3.org/2000/svg">
<path fill-rule="evenodd" clip-rule="evenodd" d="M22.3737 3.39951C21.7345 3.81182 20.2669 4.41095 19.5431 4.41095V4.41218C18.7166 3.54277 17.553 3 16.2626 3C13.7563 3 11.724 5.04652 11.724 7.56935C11.724 7.91988 11.7644 8.26178 11.8389 8.58966H11.8382C8.43844 8.49981 4.7202 6.78388 2.48182 3.84702C1.1056 6.24578 2.29653 8.9136 3.85829 9.88566C3.32369 9.92628 2.33956 9.82363 1.87633 9.36849C1.84529 10.9606 2.60551 13.0702 5.37751 13.8354C4.84364 14.1247 3.89862 14.0417 3.48771 13.9802C3.63193 15.3242 5.50096 17.0812 7.54476 17.0812C6.81631 17.9297 4.0756 19.4687 1 18.9791C3.08878 20.2588 5.5232 21 8.09989 21C15.4222 21 21.1087 15.0241 20.8027 7.65206C20.8015 7.64394 20.8015 7.63582 20.8007 7.62695C20.8015 7.608 20.8027 7.58905 20.8027 7.56935C20.8027 7.54646 20.8007 7.5248 20.8 7.50265C21.4666 7.04357 22.361 6.23151 23 5.16271C22.6294 5.36825 21.5177 5.77982 20.4832 5.88197C21.1471 5.52111 22.1308 4.33932 22.3737 3.39951Z" fill="#160E64"/>
</svg>
