<svg width="115" height="33" viewBox="0 0 115 33" fill="none" xmlns="http://www.w3.org/2000/svg">
<g clip-path="url(#clip0_1_2672)">
<path d="M48.5276 10.9275C48.5276 12.7575 47.0438 13.816 44.2004 13.816H38.6055V3.23047H43.8913C46.5958 3.23047 47.9867 4.33401 47.9867 5.9831C47.9867 7.04166 47.4302 7.85807 46.5499 8.31174C47.7549 8.68979 48.5276 9.59713 48.5276 10.9275ZM41.0938 5.07481V7.56998H43.5822C44.8029 7.56998 45.468 7.14694 45.468 6.31522C45.468 5.48349 44.8039 5.07481 43.5822 5.07481H41.0938ZM46.009 10.67C46.009 9.77802 45.3135 9.35402 44.0155 9.35402H41.0948V11.9698H44.0155C45.3135 11.9698 46.009 11.5764 46.009 10.6691V10.67Z" fill="#160E64"/>
<path d="M58.1719 11.5477H53.1492L52.1906 13.816H49.625L54.4472 3.23047H56.9199L61.7578 13.816H59.1305L58.1719 11.5477ZM57.3835 9.68805L55.6679 5.63471L53.9523 9.68805H57.3835Z" fill="#160E64"/>
<path d="M73.7337 3.23047V13.816H71.6786L66.2852 7.38909V13.816H63.8125V3.23047H65.8832L71.262 9.65742V3.23047H73.7347H73.7337Z" fill="#160E64"/>
<path d="M82.3252 10.0652V13.816H79.8212V10.0355L75.6328 3.23047H78.2914L81.1818 7.93368L84.0721 3.23047H86.5292L82.3252 10.0661V10.0652Z" fill="#160E64"/>
<path d="M94.6758 11.5477H89.6531L88.6945 13.816H86.1289L90.9511 3.23047H93.4238L98.2617 13.816H95.6344L94.6758 11.5477ZM93.8875 9.68805L92.1718 5.63471L90.4562 9.68805H93.8875Z" fill="#160E64"/>
<path d="M110.113 3.23047V13.816H108.058L102.664 7.38909V13.816H100.191V3.23047H102.262L107.641 9.65742V3.23047H110.114H110.113Z" fill="#160E64"/>
<path d="M38.3438 27.6145L38.8573 26.5541C39.5791 27.1925 40.8155 27.6547 42.0655 27.6547C43.746 27.6547 44.4688 27.0163 44.4688 26.1865C44.4688 23.8627 38.5795 25.3299 38.5795 21.7963C38.5795 20.3281 39.7464 19.0781 42.3023 19.0781C43.4408 19.0781 44.6214 19.3767 45.4274 19.9204L44.9686 21.0076C44.1216 20.4774 43.163 20.2333 42.3023 20.2333C40.6492 20.2333 39.941 20.9129 39.941 21.7417C39.941 24.0656 45.8304 22.6118 45.8304 26.1042C45.8304 27.5581 44.6361 28.809 42.0665 28.809C40.5807 28.809 39.1223 28.3199 38.3438 27.6126V27.6145Z" fill="#160E64"/>
<path d="M55.193 27.5191V28.7011H48.1367V19.1875H54.9983V20.3695H49.5257V23.2916H54.4007V24.4468H49.5257V27.5181H55.193V27.5191Z" fill="#160E64"/>
<path d="M56.6094 23.944C56.6094 21.1311 58.8043 19.0781 61.7622 19.0781C63.2626 19.0781 64.5675 19.5806 65.4566 20.5597L64.5538 21.4163C63.8035 20.642 62.887 20.2879 61.8179 20.2879C59.623 20.2879 57.9983 21.8375 57.9983 23.944C57.9983 26.0506 59.623 27.6002 61.8179 27.6002C62.887 27.6002 63.8045 27.2336 64.5538 26.4584L65.4566 27.315C64.5675 28.2931 63.2617 28.81 61.7485 28.81C58.8043 28.81 56.6094 26.7579 56.6094 23.945V23.944Z" fill="#160E64"/>
<path d="M67.0391 24.5971V19.1875H68.428V24.5425C68.428 26.6491 69.414 27.6004 71.1639 27.6004C72.9137 27.6004 73.9144 26.6491 73.9144 24.5425V19.1875H75.2612V24.5971C75.2612 27.3564 73.7197 28.8102 71.1502 28.8102C68.5806 28.8102 67.0391 27.3564 67.0391 24.5971Z" fill="#160E64"/>
<path d="M84.4694 28.7011L82.3723 25.7791C82.1777 25.7925 81.9693 25.8059 81.761 25.8059H79.3577V28.7011H77.9688V19.1875H81.761C84.2885 19.1875 85.8163 20.4375 85.8163 22.5039C85.8163 23.9721 85.0387 25.0316 83.6771 25.5073L85.9826 28.7011H84.4684H84.4694ZM84.4274 22.5039C84.4274 21.1448 83.4972 20.3705 81.7189 20.3705H79.3577V24.6516H81.7189C83.4972 24.6516 84.4274 23.863 84.4274 22.5039Z" fill="#160E64"/>
<path d="M88.5664 19.1875H89.9554V28.7011H88.5664V19.1875Z" fill="#160E64"/>
<path d="M95.4429 20.3695H92.1094V19.1875H100.152V20.3695H96.8181V28.7002H95.4429V20.3695Z" fill="#160E64"/>
<path d="M106.456 25.4125V28.7011H105.08V25.3847L101.219 19.1875H102.705L105.816 24.2027L108.941 19.1875H110.316L106.455 25.4125H106.456Z" fill="#160E64"/>
<path d="M17.938 12.6721C18.8652 12.6721 19.6164 11.9112 19.6164 10.9732C19.6164 10.0352 18.8652 9.43992 17.938 9.43992H3.18773L3.20436 21.6669L15.3088 29.2836L27.4122 21.6669L27.4347 3.13069H0V0H30.6273L30.5979 23.3782L15.3088 33L0 23.3782V6.37623H17.9037C18.5659 6.37623 19.1998 6.3791 19.7798 6.61455C20.3823 6.85957 20.9242 7.21657 21.3761 7.65971C21.829 8.10189 22.1938 8.63212 22.4442 9.2217C22.6858 9.78926 22.8188 10.2439 22.8188 10.8909C22.8188 11.5379 22.6858 12.1591 22.4442 12.7266C22.2232 13.2492 21.9102 13.7249 21.5267 14.1345C21.9102 14.5442 22.2232 15.0198 22.4442 15.5424C22.6858 16.11 22.8188 16.7302 22.8188 17.3781C22.8188 18.0261 22.6858 18.6463 22.4442 19.2139C22.1938 19.8034 21.829 20.2791 21.3761 20.7213C20.9242 21.1635 20.3823 21.5214 19.7798 21.7665C19.1998 22.0019 18.5659 22.133 17.9037 22.133H8.98708V12.673H17.9389L17.938 12.6721ZM17.9067 18.966C18.8496 18.966 19.6145 18.2462 19.6145 17.36C19.6145 16.4737 18.8496 15.7539 17.9067 15.7539H17.9028H12.1856V18.966H17.9057H17.9067Z" fill="#160E64"/>
<path d="M111.742 4.69594V4.68733C111.742 3.82019 112.462 3.09375 113.376 3.09375C114.289 3.09375 115 3.81158 115 4.67871V4.68733C115 5.55447 114.28 6.28091 113.367 6.28091C112.453 6.28091 111.742 5.56308 111.742 4.69594ZM114.829 4.68733V4.67871C114.829 3.89102 114.204 3.25167 113.376 3.25167C112.547 3.25167 111.913 3.89867 111.913 4.68733V4.69594C111.913 5.48364 112.538 6.12299 113.367 6.12299C114.195 6.12299 114.829 5.47598 114.829 4.68733ZM112.714 3.80679H113.475C113.7 3.80679 113.875 3.87283 113.993 3.98769C114.083 4.07095 114.133 4.19059 114.133 4.33511V4.34373C114.133 4.61267 113.97 4.77921 113.737 4.84525L114.195 5.47503H113.808L113.394 4.89789H113.039V5.47503H112.715V3.80584L112.714 3.80679ZM113.462 4.62129C113.673 4.62129 113.799 4.51984 113.799 4.36191V4.3533C113.799 4.18581 113.673 4.09392 113.462 4.09392H113.038V4.62225H113.462V4.62129Z" fill="#160E64"/>
</g>
<defs>
<clipPath id="clip0_1_2672">
<rect width="115" height="33" fill="white"/>
</clipPath>
</defs>
</svg>
