<svg width="134" height="34" viewBox="0 0 134 34" fill="none" xmlns="http://www.w3.org/2000/svg">
<path d="M87.3828 23.4843C88.152 23.3349 88.7674 23.0063 89.2905 22.5581C90.0597 21.8709 90.152 20.9149 90.152 19.7198V14.4017C90.152 13.2066 90.029 12.2804 89.2905 11.5634C88.7674 11.0854 88.152 10.7866 87.3828 10.6372V8.09766C88.6136 8.27692 89.6597 8.72507 90.4597 9.472C91.5059 10.4281 92.429 11.7426 92.429 13.3859V20.6161C92.429 22.2593 91.5059 23.5441 90.4597 24.53C89.6597 25.2769 88.6136 25.7251 87.3828 25.9043V23.4843Z" fill="#160E64"/>
<path d="M77.8442 9.472C78.6442 8.72507 79.6904 8.27692 80.9212 8.09766V10.6372C80.1519 10.7866 79.5365 11.1152 79.0135 11.5634C78.2442 12.2506 78.1519 13.2066 78.1519 14.3718V19.7198C78.1519 20.9149 78.275 21.8411 79.0135 22.5581C79.5365 23.0361 80.1519 23.3349 80.9212 23.4843V25.9043C79.6904 25.7251 78.6442 25.2769 77.8442 24.53C76.7981 23.5739 75.875 22.2593 75.875 20.6161V13.356C75.875 11.7426 76.7981 10.4579 77.8442 9.472Z" fill="#160E64"/>
<path d="M86.4295 15.0898L87.2911 13.7752L85.5064 12.8789L84.768 14.2532C84.6449 14.4624 84.4603 14.5819 84.2141 14.5819C83.968 14.5819 83.7834 14.4624 83.6603 14.2532L82.9218 12.8789L81.168 13.7752L82.3987 15.6873L86.4295 15.0898Z" fill="#160E64"/>
<path d="M88.6139 16.043L79.9062 16.1326V17.8356H82.6447L81.1678 20.1361L82.9216 21.0324L83.6601 19.6581C83.7832 19.4489 83.9678 19.3294 84.2139 19.3294C84.4601 19.3294 84.6447 19.4489 84.7678 19.6581L85.5062 21.0324L87.2909 20.1361L86.0909 18.2837L83.8139 17.8655L88.6447 17.8356V16.043H88.6139Z" fill="#160E64"/>
<path d="M9.10835 25.8426C7.35451 25.8426 5.96989 25.2749 4.89297 24.1396C3.81605 23.0043 3.29297 21.5104 3.29297 19.658V14.3698C3.29297 12.5175 3.81605 10.9937 4.89297 9.8584C5.96989 8.72307 7.35451 8.15541 9.10835 8.15541C10.2468 8.15541 11.2314 8.39443 12.0622 8.84258C12.893 9.32061 13.5084 9.94803 13.9084 10.7846H14.0007V2.86719H15.6007V25.5438H14.0007V23.2134H13.9084C13.5391 24.05 12.9237 24.6774 12.0622 25.1554C11.2314 25.6334 10.2468 25.8426 9.10835 25.8426ZM9.44681 24.528C10.893 24.528 12.0007 24.1097 12.8007 23.2433C13.6007 22.3769 14.0007 21.2117 14.0007 19.6879V14.3698C14.0007 12.8461 13.6007 11.651 12.8007 10.7846C12.0007 9.91815 10.893 9.49988 9.44681 9.49988C8.03143 9.49988 6.92374 9.91815 6.12374 10.7846C5.32374 11.651 4.92374 12.8461 4.92374 14.3698V19.6879C4.92374 21.2117 5.32374 22.3769 6.12374 23.2433C6.92374 24.1097 8.00066 24.528 9.44681 24.528ZM26.5545 25.8426C24.5853 25.8426 23.0776 25.2749 21.9699 24.1396C20.8622 23.0043 20.3084 21.5104 20.3084 19.6282V14.3698C20.3084 12.4876 20.8622 10.9937 21.9699 9.8584C23.0776 8.72307 24.616 8.15541 26.5545 8.15541C28.493 8.15541 30.0007 8.72307 31.1084 9.8584C32.216 10.9937 32.7391 12.4876 32.7391 14.3698V17.3276H21.9084V19.658C21.9084 21.1519 22.3084 22.3171 23.1084 23.1835C23.9084 24.05 25.0776 24.4981 26.5545 24.4981C27.7545 24.4981 28.7391 24.2292 29.5084 23.6616C30.2776 23.0939 30.8314 22.347 31.1084 21.361H32.7084C32.4007 22.7354 31.693 23.8408 30.616 24.6475C29.5391 25.4542 28.1853 25.8426 26.5545 25.8426ZM21.9084 15.9832H31.1391V14.3698C31.1391 12.876 30.7391 11.7108 29.9391 10.8145C29.1391 9.94803 28.0007 9.49988 26.5545 9.49988C25.0776 9.49988 23.9084 9.91815 23.1084 10.7846C22.3084 11.651 21.9084 12.8162 21.9084 14.3399V15.9832ZM44.0622 25.8127C42.7084 25.8127 41.5391 25.6036 40.5237 25.2152C39.5084 24.7969 38.7084 24.2292 38.1545 23.4823C37.6007 22.7354 37.3237 21.8689 37.3237 20.8531H41.3545C41.3545 21.4507 41.6007 21.9287 42.093 22.2275C42.5853 22.5561 43.2622 22.7055 44.1237 22.7055H45.5084C46.493 22.7055 47.2622 22.5262 47.7545 22.1677C48.2468 21.8092 48.493 21.3312 48.493 20.7037C48.493 19.5087 47.6007 18.7916 45.7853 18.5227L43.3237 18.224C39.6314 17.716 37.816 16.0131 37.816 13.115C37.816 11.5016 38.3699 10.2767 39.4776 9.44012C40.5853 8.60357 42.216 8.18529 44.3391 8.18529H45.5391C47.5084 8.18529 49.1084 8.60357 50.3083 9.47C51.5084 10.3364 52.1237 11.4718 52.1237 12.876H48.093C48.093 12.3681 47.8776 11.9797 47.416 11.7108C46.9545 11.4419 46.3391 11.2925 45.5084 11.2925H44.3084C42.5545 11.2925 41.693 11.89 41.693 13.115C41.693 14.1607 42.4622 14.818 44.0314 15.0271L46.5237 15.3856C48.493 15.6545 49.9699 16.2222 50.9237 17.0588C51.8776 17.8953 52.3699 19.0904 52.3699 20.5842C52.3699 22.2275 51.7853 23.4823 50.6468 24.4085C49.4776 25.3048 47.7853 25.7828 45.5391 25.7828H44.0622V25.8127ZM63.9699 25.8426C62.493 25.8426 61.1699 25.5737 60.0622 25.006C58.9545 24.4682 58.093 23.6914 57.4776 22.6756C56.8622 21.6598 56.5545 20.4946 56.5545 19.1203V14.8479C56.5545 13.4735 56.8622 12.3083 57.4776 11.2925C58.093 10.2767 58.9545 9.49988 60.0622 8.96209C61.1699 8.4243 62.493 8.12554 63.9699 8.12554C66.1853 8.12554 67.9391 8.6932 69.2622 9.79865C70.5853 10.9041 71.2622 12.4278 71.3237 14.3101H67.4468C67.3853 13.4138 67.0468 12.7266 66.4007 12.2486C65.7853 11.7705 64.9545 11.5315 63.9699 11.5315C62.893 11.5315 62.0622 11.8303 61.4468 12.3979C60.8314 12.9656 60.5237 13.7723 60.5237 14.8479V19.1501C60.5237 20.1958 60.8314 21.0324 61.4468 21.6001C62.0622 22.1677 62.893 22.4665 63.9699 22.4665C64.9853 22.4665 65.816 22.2275 66.4314 21.7494C67.0468 21.2714 67.3853 20.5842 67.4468 19.6879H71.3237C71.2622 21.6001 70.5545 23.0939 69.2622 24.1993C67.9391 25.3048 66.1853 25.8426 63.9699 25.8426ZM97.1083 31.1308V8.45418H100.985V11.5315H101.047C101.354 10.4559 101.939 9.61938 102.739 9.02184C103.57 8.4243 104.585 8.12554 105.785 8.12554C107.508 8.12554 108.893 8.72307 109.939 9.88828C110.985 11.0834 111.508 12.637 111.508 14.6387V19.2696C111.508 21.2714 110.985 22.8848 109.939 24.05C108.893 25.2152 107.508 25.8127 105.785 25.8127C104.585 25.8127 103.601 25.5139 102.77 24.9164C101.939 24.3189 101.354 23.4823 101.047 22.4067H100.985L101.078 26.2907V31.0711H97.1083V31.1308ZM104.339 22.4964C105.354 22.4964 106.154 22.1976 106.708 21.6299C107.262 21.0623 107.539 20.2257 107.539 19.1501V14.8479C107.539 13.7723 107.262 12.9357 106.708 12.3681C106.154 11.8004 105.354 11.5016 104.339 11.5016C103.324 11.5016 102.524 11.8004 101.939 12.3979C101.354 12.9955 101.078 13.832 101.078 14.9375V19.0306C101.078 20.1361 101.354 20.9726 101.939 21.5702C102.524 22.1976 103.324 22.4964 104.339 22.4964ZM123.385 25.8426C121.908 25.8426 120.585 25.5737 119.508 25.006C118.401 24.4384 117.539 23.6616 116.954 22.6756C116.339 21.6598 116.031 20.4946 116.031 19.1501V14.8479C116.031 13.5034 116.339 12.3382 116.954 11.3224C117.57 10.3066 118.401 9.52975 119.508 8.99197C120.616 8.4243 121.908 8.15541 123.385 8.15541C124.862 8.15541 126.124 8.4243 127.231 8.99197C128.339 9.55963 129.17 10.3364 129.785 11.3224C130.401 12.3083 130.708 13.5034 130.708 14.8479V17.9252H119.908V19.1501C119.908 21.5702 121.078 22.7951 123.447 22.7951C125.262 22.7951 126.339 22.1976 126.678 21.0324H130.585C130.278 22.4964 129.478 23.6914 128.185 24.5579C126.831 25.4243 125.262 25.8426 123.385 25.8426ZM119.878 14.8479V15.5051L126.831 15.4753V14.818C126.831 13.6528 126.554 12.7266 125.97 12.0992C125.385 11.4718 124.524 11.1431 123.385 11.1431C122.216 11.1431 121.354 11.4718 120.77 12.0992C120.154 12.7565 119.878 13.6827 119.878 14.8479Z" fill="#160E64"/>
</svg>
