<svg width="109" height="33" viewBox="0 0 109 33" fill="none" xmlns="http://www.w3.org/2000/svg">
<g clip-path="url(#clip0_1_2699)">
<path d="M46.4256 10.5359C45.1541 10.5359 44.5827 10.9019 43.4159 12.3744V11.7275C43.4159 10.9529 43.3193 10.8763 42.6112 10.8763H42.0157C41.2834 10.8763 41.2109 10.9785 41.2109 11.7275V23.8823C41.2109 24.6483 41.3075 24.7334 42.0157 24.7334H42.6112C43.3435 24.7334 43.4159 24.6313 43.4159 23.8823V17.4304C43.3239 16.2883 43.498 15.1397 43.9229 14.0852C44.1745 13.637 44.5476 13.2789 44.9938 13.0573C45.4399 12.8358 45.9387 12.7609 46.4256 12.8425C46.646 12.8799 46.8618 12.9427 47.0693 13.0298C47.1494 13.0634 47.2387 13.0634 47.3188 13.0298C47.3987 12.9921 47.466 12.9298 47.5119 12.851C47.6319 12.6709 47.7369 12.4801 47.8258 12.2808L48.0109 11.8977C48.1148 11.7219 48.1909 11.5292 48.2362 11.3274C48.2362 10.8933 47.4315 10.5273 46.4336 10.5273" fill="#160E64"/>
<path d="M52.9346 18.9651C52.8728 19.8582 53.0135 20.7541 53.345 21.5782C53.6321 22.0119 54.0139 22.366 54.458 22.6105C54.9021 22.855 55.3953 22.9827 55.8959 22.9827C56.3966 22.9827 56.8898 22.855 57.3339 22.6105C57.778 22.366 58.1598 22.0119 58.4469 21.5782C58.7784 20.7541 58.9191 19.8582 58.8573 18.9651V11.7301C58.8573 10.9555 58.9539 10.8789 59.6621 10.8789H60.2656C60.9899 10.8789 61.0703 10.981 61.0703 11.7301V19.2204C61.0703 21.2547 60.7565 22.3612 59.8713 23.3997C58.8012 24.5224 57.3549 25.1524 55.8477 25.1524C54.3404 25.1524 52.8942 24.5224 51.824 23.3997C50.9388 22.3612 50.625 21.2547 50.625 19.2204V11.7301C50.625 10.9555 50.7135 10.8789 51.4297 10.8789H52.0333C52.7575 10.8789 52.838 10.981 52.838 11.7301L52.9346 18.9651Z" fill="#160E64"/>
<path d="M66.8799 17.7971C66.8799 20.8699 68.6825 22.9808 71.2818 22.9808C73.881 22.9808 75.5871 20.7677 75.5871 17.729C75.6218 17.0979 75.5361 16.4658 75.3353 15.8703C75.1344 15.2748 74.8223 14.7282 74.4177 14.2629C74.013 13.7975 73.524 13.423 72.9798 13.1616C72.4355 12.9002 71.8471 12.7572 71.2496 12.7412C68.6825 12.7412 66.8799 14.818 66.8799 17.7971ZM67.0409 12.8433C67.5846 12.112 68.2827 11.5255 69.0792 11.1309C69.8758 10.7363 70.7486 10.5444 71.6278 10.5707C75.241 10.5707 77.8966 13.6179 77.8966 17.7971C77.8966 21.9764 75.2088 25.1513 71.5634 25.1513C70.6912 25.1702 69.827 24.9712 69.0412 24.5704C68.2553 24.1696 67.57 23.5783 67.0409 22.8446V23.883C67.0409 24.6491 66.9443 24.7342 66.2362 24.7342H65.6407C64.9084 24.7342 64.8359 24.6321 64.8359 23.883V1.2418C64.8359 0.475742 64.9325 0.390625 65.6407 0.390625H66.2362C66.9685 0.390625 67.0409 0.492766 67.0409 1.2418V12.8433Z" fill="#160E64"/>
<path d="M86.4375 10.5359C85.1741 10.5359 84.6027 10.9019 83.4278 12.3744V11.7275C83.4278 10.9529 83.3313 10.8763 82.6231 10.8763H82.0196C81.2953 10.8763 81.2148 10.9785 81.2148 11.7275V23.8823C81.2148 24.6483 81.3114 24.7334 82.0196 24.7334H82.6392C83.3635 24.7334 83.4439 24.6313 83.4439 23.8823V17.4304C83.3562 16.2884 83.5301 15.1409 83.9509 14.0852C84.2028 13.6393 84.5747 13.2829 85.0191 13.0615C85.4634 12.8402 85.9601 12.7639 86.4456 12.8425C86.666 12.8799 86.8818 12.9427 87.0893 13.0298C87.1694 13.0634 87.2587 13.0634 87.3388 13.0298C87.4195 12.9899 87.4889 12.9283 87.54 12.851C87.6573 12.6707 87.7597 12.4799 87.8458 12.2808L88.0389 11.8977C88.1379 11.7202 88.2111 11.528 88.2562 11.3274C88.2562 10.8933 87.4515 10.5273 86.4536 10.5273" fill="#160E64"/>
<path d="M93.4197 23.8819C93.4197 24.648 93.3231 24.7331 92.6149 24.7331H92.0114C91.2871 24.7331 91.2067 24.6309 91.2067 23.8819V11.7271C91.2067 10.9526 91.3032 10.876 92.0114 10.876H92.6149C93.3392 10.876 93.4197 10.9781 93.4197 11.7271V23.8819ZM93.9025 5.62422C93.9025 5.96091 93.8081 6.29005 93.6313 6.57C93.4544 6.84995 93.203 7.06814 92.909 7.19699C92.6149 7.32583 92.2913 7.35954 91.9791 7.29386C91.6669 7.22817 91.3801 7.06604 91.155 6.82796C90.9299 6.58989 90.7766 6.28656 90.7145 5.95633C90.6524 5.62611 90.6843 5.28383 90.8061 4.97276C90.9279 4.6617 91.1342 4.39583 91.3989 4.20877C91.6636 4.02172 91.9747 3.92188 92.293 3.92188C92.7199 3.92188 93.1293 4.10123 93.4311 4.42048C93.7329 4.73973 93.9025 5.17273 93.9025 5.62422Z" fill="#160E64"/>
<path d="M104.239 11.2771C104.617 10.8686 104.617 10.8686 105.156 10.8686H106.138C106.709 10.8686 106.943 11.0388 106.943 11.4048C106.943 11.541 106.822 11.7453 106.565 12.0091L102.018 16.8353L107.756 23.6447C107.973 23.9511 108.102 24.1469 108.102 24.2831C108.102 24.615 107.844 24.7853 107.297 24.7853H106.299C105.728 24.7853 105.728 24.7853 105.382 24.3512L100.441 18.461L99.8692 19.0654V23.9171C99.8692 24.6831 99.7727 24.7682 99.0645 24.7682H98.461C97.7287 24.7682 97.6562 24.6661 97.6562 23.9171V1.2418C97.6562 0.475742 97.7528 0.390625 98.461 0.390625H99.0645C99.7888 0.390625 99.8692 0.492766 99.8692 1.2418V15.9841L104.239 11.2771Z" fill="#160E64"/>
<mask id="mask0_1_2699" style="mask-type:luminance" maskUnits="userSpaceOnUse" x="10" y="0" width="11" height="11">
<path fill-rule="evenodd" clip-rule="evenodd" d="M15.4488 0C15.3517 0.0350792 15.2636 0.0933295 15.1913 0.170235L10.894 4.69848C10.831 4.7649 10.781 4.84383 10.7469 4.93074C10.7128 5.01765 10.6952 5.11082 10.6952 5.20493C10.6952 5.29903 10.7128 5.39221 10.7469 5.47911C10.781 5.56602 10.831 5.64495 10.894 5.71137L15.1913 10.2396C15.2541 10.3063 15.3287 10.3592 15.4109 10.3952C15.493 10.4313 15.5811 10.4499 15.6701 10.4499C15.759 10.4499 15.8471 10.4313 15.9293 10.3952C16.0115 10.3592 16.0861 10.3063 16.1489 10.2396L20.4381 5.71137C20.5011 5.64495 20.5511 5.56602 20.5852 5.47911C20.6193 5.39221 20.6369 5.29903 20.6369 5.20493C20.6369 5.11082 20.6193 5.01765 20.5852 4.93074C20.5511 4.84383 20.5011 4.7649 20.4381 4.69848L16.1489 0.170235C16.0766 0.0933295 15.9884 0.0350792 15.8914 0H15.4488Z" fill="white"/>
</mask>
<g mask="url(#mask0_1_2699)">
<path fill-rule="evenodd" clip-rule="evenodd" d="M15.4488 0C15.3517 0.0350792 15.2636 0.0933295 15.1913 0.170235L10.894 4.69848C10.831 4.7649 10.781 4.84383 10.7469 4.93074C10.7128 5.01765 10.6952 5.11082 10.6952 5.20493C10.6952 5.29903 10.7128 5.39221 10.7469 5.47911C10.781 5.56602 10.831 5.64495 10.894 5.71137L15.1913 10.2396C15.2541 10.3063 15.3287 10.3592 15.4109 10.3952C15.493 10.4313 15.5811 10.4499 15.6701 10.4499C15.759 10.4499 15.8471 10.4313 15.9293 10.3952C16.0115 10.3592 16.0861 10.3063 16.1489 10.2396L20.4381 5.71137C20.5011 5.64495 20.5511 5.56602 20.5852 5.47911C20.6193 5.39221 20.6369 5.29903 20.6369 5.20493C20.6369 5.11082 20.6193 5.01765 20.5852 4.93074C20.5511 4.84383 20.5011 4.7649 20.4381 4.69848L16.1489 0.170235C16.0766 0.0933295 15.9884 0.0350792 15.8914 0H15.4488Z" fill="#160E64"/>
</g>
<mask id="mask1_1_2699" style="mask-type:luminance" maskUnits="userSpaceOnUse" x="10" y="22" width="11" height="12">
<path fill-rule="evenodd" clip-rule="evenodd" d="M15.1907 22.7949L10.8935 27.3231C10.8307 27.3888 10.7808 27.467 10.7468 27.5532C10.7128 27.6394 10.6953 27.7319 10.6953 27.8253C10.6953 27.9187 10.7128 28.0112 10.7468 28.0974C10.7808 28.1836 10.8307 28.2618 10.8935 28.3275L15.1907 32.8643C15.249 32.9248 15.3172 32.9738 15.3919 33.009H15.9471C16.0218 32.9738 16.09 32.9248 16.1483 32.8643L20.4375 28.3275C20.5003 28.2618 20.5501 28.1836 20.5841 28.0974C20.6181 28.0112 20.6356 27.9187 20.6356 27.8253C20.6356 27.7319 20.6181 27.6394 20.5841 27.5532C20.5501 27.467 20.5003 27.3888 20.4375 27.3231L16.1483 22.7949C16.0858 22.7265 16.0107 22.6723 15.9277 22.6357C15.8446 22.5991 15.7554 22.5809 15.6655 22.5821C15.5768 22.5815 15.489 22.6001 15.4073 22.6367C15.3257 22.6733 15.252 22.7271 15.1907 22.7949Z" fill="white"/>
</mask>
<g mask="url(#mask1_1_2699)">
<path fill-rule="evenodd" clip-rule="evenodd" d="M15.1907 22.7949L10.8935 27.3231C10.8307 27.3888 10.7808 27.467 10.7468 27.5532C10.7128 27.6394 10.6953 27.7319 10.6953 27.8253C10.6953 27.9187 10.7128 28.0112 10.7468 28.0974C10.7808 28.1836 10.8307 28.2618 10.8935 28.3275L15.1907 32.8643C15.249 32.9248 15.3172 32.9738 15.3919 33.009H15.9471C16.0218 32.9738 16.09 32.9248 16.1483 32.8643L20.4375 28.3275C20.5003 28.2618 20.5501 28.1836 20.5841 28.0974C20.6181 28.0112 20.6356 27.9187 20.6356 27.8253C20.6356 27.7319 20.6181 27.6394 20.5841 27.5532C20.5501 27.467 20.5003 27.3888 20.4375 27.3231L16.1483 22.7949C16.0858 22.7265 16.0107 22.6723 15.9277 22.6357C15.8446 22.5991 15.7554 22.5809 15.6655 22.5821C15.5768 22.5815 15.489 22.6001 15.4073 22.6367C15.3257 22.6733 15.252 22.7271 15.1907 22.7949Z" fill="#160E64"/>
</g>
<mask id="mask2_1_2699" style="mask-type:luminance" maskUnits="userSpaceOnUse" x="21" y="11" width="11" height="11">
<path fill-rule="evenodd" clip-rule="evenodd" d="M25.8959 11.4667L21.5986 15.9865C21.4752 16.1227 21.4062 16.3042 21.4062 16.4929C21.4062 16.6816 21.4752 16.8631 21.5986 16.9994L25.8959 21.5276C25.9587 21.5943 26.0333 21.6471 26.1154 21.6832C26.1976 21.7193 26.2857 21.7379 26.3747 21.7379C26.4636 21.7379 26.5517 21.7193 26.6339 21.6832C26.7161 21.6471 26.7907 21.5943 26.8535 21.5276L31.1346 17.0079C31.1988 16.9413 31.2499 16.8618 31.2847 16.7741C31.3196 16.6865 31.3375 16.5923 31.3375 16.4972C31.3375 16.402 31.3196 16.3079 31.2847 16.2202C31.2499 16.1325 31.1988 16.053 31.1346 15.9865L26.8454 11.4582C26.7187 11.3268 26.5481 11.2535 26.3706 11.2539C26.1905 11.2521 26.017 11.3255 25.8878 11.4582" fill="white"/>
</mask>
<g mask="url(#mask2_1_2699)">
<path fill-rule="evenodd" clip-rule="evenodd" d="M25.8959 11.4667L21.5986 15.9865C21.4752 16.1227 21.4062 16.3042 21.4062 16.4929C21.4062 16.6816 21.4752 16.8631 21.5986 16.9994L25.8959 21.5276C25.9587 21.5943 26.0333 21.6471 26.1154 21.6832C26.1976 21.7193 26.2857 21.7379 26.3747 21.7379C26.4636 21.7379 26.5517 21.7193 26.6339 21.6832C26.7161 21.6471 26.7907 21.5943 26.8535 21.5276L31.1346 17.0079C31.1988 16.9413 31.2499 16.8618 31.2847 16.7741C31.3196 16.6865 31.3375 16.5923 31.3375 16.4972C31.3375 16.402 31.3196 16.3079 31.2847 16.2202C31.2499 16.1325 31.1988 16.053 31.1346 15.9865L26.8454 11.4582C26.7187 11.3268 26.5481 11.2535 26.3706 11.2539C26.1905 11.2521 26.017 11.3255 25.8878 11.4582" fill="#160E64"/>
</g>
<mask id="mask3_1_2699" style="mask-type:luminance" maskUnits="userSpaceOnUse" x="7" y="28" width="4" height="5">
<path fill-rule="evenodd" clip-rule="evenodd" d="M9.814 28.4195L7.9068 30.4538C7.84365 30.509 7.79507 30.5805 7.76578 30.6614C7.73649 30.7423 7.72748 30.8299 7.73963 30.9155C7.75178 31.0012 7.78467 31.0821 7.83512 31.1503C7.88556 31.2186 7.95184 31.2719 8.02751 31.305L9.63696 32.1562C9.70478 32.1987 9.78258 32.2201 9.86139 32.2179C9.9402 32.2157 10.0168 32.1899 10.0824 32.1437C10.148 32.0974 10.1999 32.0325 10.2322 31.9564C10.2644 31.8803 10.2757 31.7961 10.2646 31.7136V28.6238C10.2646 28.3855 10.1842 28.2578 10.0635 28.2578C9.95327 28.2709 9.85225 28.329 9.78181 28.4195" fill="white"/>
</mask>
<g mask="url(#mask3_1_2699)">
<path fill-rule="evenodd" clip-rule="evenodd" d="M9.814 28.4195L7.9068 30.4538C7.84365 30.509 7.79507 30.5805 7.76578 30.6614C7.73649 30.7423 7.72748 30.8299 7.73963 30.9155C7.75178 31.0012 7.78467 31.0821 7.83512 31.1503C7.88556 31.2186 7.95184 31.2719 8.02751 31.305L9.63696 32.1562C9.70478 32.1987 9.78258 32.2201 9.86139 32.2179C9.9402 32.2157 10.0168 32.1899 10.0824 32.1437C10.148 32.0974 10.1999 32.0325 10.2322 31.9564C10.2644 31.8803 10.2757 31.7961 10.2646 31.7136V28.6238C10.2646 28.3855 10.1842 28.2578 10.0635 28.2578C9.95327 28.2709 9.85225 28.329 9.78181 28.4195" fill="#160E64"/>
</g>
<mask id="mask4_1_2699" style="mask-type:luminance" maskUnits="userSpaceOnUse" x="21" y="28" width="3" height="5">
<path fill-rule="evenodd" clip-rule="evenodd" d="M21.0425 28.6266V31.6568C21.0326 31.7381 21.0443 31.8208 21.0762 31.8956C21.1081 31.9703 21.1591 32.0342 21.2233 32.0801C21.2876 32.126 21.3627 32.1521 21.4401 32.1555C21.5176 32.1589 21.5945 32.1395 21.6621 32.0994L23.3118 31.2482C23.3869 31.2142 23.4525 31.1602 23.5021 31.0916C23.5517 31.0229 23.5837 30.9418 23.595 30.8562C23.6064 30.7706 23.5966 30.6834 23.5667 30.603C23.5369 30.5225 23.4879 30.4516 23.4245 30.3971L21.5173 28.3883C21.4493 28.2989 21.3512 28.2409 21.2437 28.2266C21.123 28.2266 21.0425 28.3542 21.0425 28.5926" fill="white"/>
</mask>
<g mask="url(#mask4_1_2699)">
<path fill-rule="evenodd" clip-rule="evenodd" d="M21.0425 28.6266V31.6568C21.0326 31.7381 21.0443 31.8208 21.0762 31.8956C21.1081 31.9703 21.1591 32.0342 21.2233 32.0801C21.2876 32.126 21.3627 32.1521 21.4401 32.1555C21.5176 32.1589 21.5945 32.1395 21.6621 32.0994L23.3118 31.2482C23.3869 31.2142 23.4525 31.1602 23.5021 31.0916C23.5517 31.0229 23.5837 30.9418 23.595 30.8562C23.6064 30.7706 23.5966 30.6834 23.5667 30.603C23.5369 30.5225 23.4879 30.4516 23.4245 30.3971L21.5173 28.3883C21.4493 28.2989 21.3512 28.2409 21.2437 28.2266C21.123 28.2266 21.0425 28.3542 21.0425 28.5926" fill="#160E64"/>
</g>
<mask id="mask5_1_2699" style="mask-type:luminance" maskUnits="userSpaceOnUse" x="21" y="22" width="6" height="6">
<path fill-rule="evenodd" clip-rule="evenodd" d="M21.7189 22.1719C21.541 22.1719 21.3703 22.246 21.2438 22.3783C21.1172 22.5105 21.0451 22.6902 21.043 22.8783V26.964C21.0451 27.1529 21.1169 27.3335 21.2433 27.4671C21.3696 27.6007 21.5403 27.6768 21.7189 27.679H25.5897C25.6815 27.6836 25.7732 27.6685 25.8595 27.6347C25.9457 27.601 26.0245 27.5492 26.0914 27.4824C26.1582 27.4157 26.2117 27.3354 26.2485 27.2463C26.2854 27.1572 26.3049 27.0612 26.3059 26.964V22.8783C26.3038 22.6902 26.2316 22.5105 26.1051 22.3783C25.9785 22.246 25.8078 22.1719 25.6299 22.1719H21.7189Z" fill="white"/>
</mask>
<g mask="url(#mask5_1_2699)">
<path fill-rule="evenodd" clip-rule="evenodd" d="M21.7189 22.1719C21.541 22.1719 21.3703 22.246 21.2438 22.3783C21.1172 22.5105 21.0451 22.6902 21.043 22.8783V26.964C21.0451 27.1529 21.1169 27.3335 21.2433 27.4671C21.3696 27.6007 21.5403 27.6768 21.7189 27.679H25.5897C25.6815 27.6836 25.7732 27.6685 25.8595 27.6347C25.9457 27.601 26.0245 27.5492 26.0914 27.4824C26.1582 27.4157 26.2117 27.3354 26.2485 27.2463C26.2854 27.1572 26.3049 27.0612 26.3059 26.964V22.8783C26.3038 22.6902 26.2316 22.5105 26.1051 22.3783C25.9785 22.246 25.8078 22.1719 25.6299 22.1719H21.7189Z" fill="#160E64"/>
</g>
<mask id="mask6_1_2699" style="mask-type:luminance" maskUnits="userSpaceOnUse" x="26" y="8" width="5" height="3">
<path fill-rule="evenodd" clip-rule="evenodd" d="M28.8711 8.32509L26.9558 10.3424C26.6983 10.6147 26.7868 10.8446 27.157 10.8446H30.0299C30.1071 10.8529 30.185 10.8389 30.2552 10.8039C30.3254 10.7689 30.3853 10.7143 30.4283 10.646C30.4714 10.5777 30.496 10.4983 30.4995 10.4163C30.503 10.3343 30.4853 10.2528 30.4483 10.1806L29.6436 8.4783C29.605 8.38974 29.544 8.31423 29.4673 8.26014C29.3906 8.20605 29.3012 8.1755 29.2091 8.17188C29.0707 8.17842 28.9405 8.24269 28.8469 8.35062" fill="white"/>
</mask>
<g mask="url(#mask6_1_2699)">
<path fill-rule="evenodd" clip-rule="evenodd" d="M28.8711 8.32509L26.9558 10.3424C26.6983 10.6147 26.7868 10.8446 27.157 10.8446H30.0299C30.1071 10.8529 30.185 10.8389 30.2552 10.8039C30.3254 10.7689 30.3853 10.7143 30.4283 10.646C30.4714 10.5777 30.496 10.4983 30.4995 10.4163C30.503 10.3343 30.4853 10.2528 30.4483 10.1806L29.6436 8.4783C29.605 8.38974 29.544 8.31423 29.4673 8.26014C29.3906 8.20605 29.3012 8.1755 29.2091 8.17188C29.0707 8.17842 28.9405 8.24269 28.8469 8.35062" fill="#160E64"/>
</g>
<mask id="mask7_1_2699" style="mask-type:luminance" maskUnits="userSpaceOnUse" x="21" y="0" width="3" height="5">
<path fill-rule="evenodd" clip-rule="evenodd" d="M21.043 1.34328V4.37345C21.043 4.76499 21.2522 4.85862 21.5178 4.58625L23.425 2.56897C23.4883 2.51442 23.5373 2.4435 23.5672 2.36305C23.5971 2.28261 23.6069 2.19537 23.5955 2.10978C23.5842 2.02418 23.5522 1.94313 23.5026 1.87446C23.4529 1.80579 23.3874 1.75183 23.3123 1.71779L21.6626 0.866618C21.6022 0.850002 21.5391 0.847101 21.4775 0.858106C21.4196 0.857502 21.3622 0.870138 21.3093 0.895149C21.2564 0.920161 21.2093 0.956958 21.1711 1.00302C21.1329 1.04909 21.1045 1.10334 21.088 1.16206C21.0714 1.22079 21.067 1.2826 21.0752 1.34328" fill="white"/>
</mask>
<g mask="url(#mask7_1_2699)">
<path fill-rule="evenodd" clip-rule="evenodd" d="M21.043 1.34328V4.37345C21.043 4.76499 21.2522 4.85862 21.5178 4.58625L23.425 2.56897C23.4883 2.51442 23.5373 2.4435 23.5672 2.36305C23.5971 2.28261 23.6069 2.19537 23.5955 2.10978C23.5842 2.02418 23.5522 1.94313 23.5026 1.87446C23.4529 1.80579 23.3874 1.75183 23.3123 1.71779L21.6626 0.866618C21.6022 0.850002 21.5391 0.847101 21.4775 0.858106C21.4196 0.857502 21.3622 0.870138 21.3093 0.895149C21.2564 0.920161 21.2093 0.956958 21.1711 1.00302C21.1329 1.04909 21.1045 1.10334 21.088 1.16206C21.0714 1.22079 21.067 1.2826 21.0752 1.34328" fill="#160E64"/>
</g>
<mask id="mask8_1_2699" style="mask-type:luminance" maskUnits="userSpaceOnUse" x="0" y="8" width="5" height="3">
<path fill-rule="evenodd" clip-rule="evenodd" d="M1.67178 8.44244L0.867057 10.1448C0.826865 10.2165 0.80665 10.2988 0.808741 10.3822C0.810832 10.4655 0.835143 10.5466 0.878874 10.616C0.922605 10.6853 0.983976 10.7402 1.05592 10.7743C1.12786 10.8084 1.20745 10.8204 1.28551 10.8087H4.17448C4.5527 10.8087 4.64122 10.5789 4.37566 10.3065L2.46846 8.32328C2.42118 8.26884 2.36406 8.22497 2.30048 8.19427C2.2369 8.16357 2.16815 8.14666 2.09829 8.14453C2.00684 8.14673 1.91795 8.17681 1.84228 8.23117C1.76662 8.28553 1.70742 8.36185 1.67178 8.45095" fill="white"/>
</mask>
<g mask="url(#mask8_1_2699)">
<path fill-rule="evenodd" clip-rule="evenodd" d="M1.67178 8.44244L0.867057 10.1448C0.826865 10.2165 0.80665 10.2988 0.808741 10.3822C0.810832 10.4655 0.835143 10.5466 0.878874 10.616C0.922605 10.6853 0.983976 10.7402 1.05592 10.7743C1.12786 10.8084 1.20745 10.8204 1.28551 10.8087H4.17448C4.5527 10.8087 4.64122 10.5789 4.37566 10.3065L2.46846 8.32328C2.42118 8.26884 2.36406 8.22497 2.30048 8.19427C2.2369 8.16357 2.16815 8.14666 2.09829 8.14453C2.00684 8.14673 1.91795 8.17681 1.84228 8.23117C1.76662 8.28553 1.70742 8.36185 1.67178 8.45095" fill="#160E64"/>
</g>
<mask id="mask9_1_2699" style="mask-type:luminance" maskUnits="userSpaceOnUse" x="5" y="5" width="6" height="6">
<path fill-rule="evenodd" clip-rule="evenodd" d="M5.75019 5.32031C5.57156 5.32252 5.40083 5.39856 5.27452 5.53217C5.1482 5.66578 5.07631 5.84636 5.07422 6.0353V10.1209C5.07631 10.3099 5.1482 10.4904 5.27452 10.6241C5.40083 10.7577 5.57156 10.8337 5.75019 10.8359H9.62092C9.79955 10.8337 9.97027 10.7577 10.0966 10.6241C10.2229 10.4904 10.2948 10.3099 10.2969 10.1209V6.0353C10.2948 5.84636 10.2229 5.66578 10.0966 5.53217C9.97027 5.39856 9.79955 5.32252 9.62092 5.32031H5.75019Z" fill="white"/>
</mask>
<g mask="url(#mask9_1_2699)">
<path fill-rule="evenodd" clip-rule="evenodd" d="M5.75019 5.32031C5.57156 5.32252 5.40083 5.39856 5.27452 5.53217C5.1482 5.66578 5.07631 5.84636 5.07422 6.0353V10.1209C5.07631 10.3099 5.1482 10.4904 5.27452 10.6241C5.40083 10.7577 5.57156 10.8337 5.75019 10.8359H9.62092C9.79955 10.8337 9.97027 10.7577 10.0966 10.6241C10.2229 10.4904 10.2948 10.3099 10.2969 10.1209V6.0353C10.2948 5.84636 10.2229 5.66578 10.0966 5.53217C9.97027 5.39856 9.79955 5.32252 9.62092 5.32031H5.75019Z" fill="#160E64"/>
</g>
<mask id="mask10_1_2699" style="mask-type:luminance" maskUnits="userSpaceOnUse" x="7" y="0" width="4" height="5">
<path fill-rule="evenodd" clip-rule="evenodd" d="M9.67212 0.910445L8.06267 1.76162C7.987 1.79476 7.92072 1.84805 7.87027 1.9163C7.81983 1.98455 7.78693 2.06544 7.77478 2.15111C7.76263 2.23678 7.77164 2.32432 7.80094 2.40522C7.83023 2.48611 7.87881 2.55762 7.94196 2.61279L9.84916 4.63007C10.1147 4.90245 10.332 4.80882 10.332 4.41728V1.34454C10.3388 1.28411 10.3334 1.22284 10.3164 1.16472C10.2993 1.1066 10.2709 1.05293 10.233 1.00718C10.195 0.961428 10.1484 0.924627 10.0962 0.899164C10.0439 0.873702 9.98716 0.860145 9.92963 0.859375C9.85209 0.860719 9.77555 0.878067 9.70431 0.910445" fill="white"/>
</mask>
<g mask="url(#mask10_1_2699)">
<path fill-rule="evenodd" clip-rule="evenodd" d="M9.67212 0.910445L8.06267 1.76162C7.987 1.79476 7.92072 1.84805 7.87027 1.9163C7.81983 1.98455 7.78693 2.06544 7.77478 2.15111C7.76263 2.23678 7.77164 2.32432 7.80094 2.40522C7.83023 2.48611 7.87881 2.55762 7.94196 2.61279L9.84916 4.63007C10.1147 4.90245 10.332 4.80882 10.332 4.41728V1.34454C10.3388 1.28411 10.3334 1.22284 10.3164 1.16472C10.2993 1.1066 10.2709 1.05293 10.233 1.00718C10.195 0.961428 10.1484 0.924627 10.0962 0.899164C10.0439 0.873702 9.98716 0.860145 9.92963 0.859375C9.85209 0.860719 9.77555 0.878067 9.70431 0.910445" fill="#160E64"/>
</g>
<mask id="mask11_1_2699" style="mask-type:luminance" maskUnits="userSpaceOnUse" x="26" y="22" width="5" height="3">
<path fill-rule="evenodd" clip-rule="evenodd" d="M27.157 22.1719C26.7868 22.1719 26.6983 22.3932 26.9558 22.6741L28.8711 24.6913C28.9244 24.756 28.9922 24.8053 29.0683 24.8349C29.1444 24.8645 29.2263 24.8733 29.3065 24.8606C29.3867 24.8479 29.4625 24.814 29.5271 24.7621C29.5916 24.7102 29.6428 24.642 29.6758 24.5637L30.4805 22.8613C30.5184 22.7898 30.5368 22.7085 30.5336 22.6265C30.5304 22.5446 30.5057 22.4652 30.4623 22.3972C30.4189 22.3292 30.3585 22.2753 30.2878 22.2416C30.2171 22.2078 30.139 22.1954 30.0621 22.2059H27.157V22.1719Z" fill="white"/>
</mask>
<g mask="url(#mask11_1_2699)">
<path fill-rule="evenodd" clip-rule="evenodd" d="M27.157 22.1719C26.7868 22.1719 26.6983 22.3932 26.9558 22.6741L28.8711 24.6913C28.9244 24.756 28.9922 24.8053 29.0683 24.8349C29.1444 24.8645 29.2263 24.8733 29.3065 24.8606C29.3867 24.8479 29.4625 24.814 29.5271 24.7621C29.5916 24.7102 29.6428 24.642 29.6758 24.5637L30.4805 22.8613C30.5184 22.7898 30.5368 22.7085 30.5336 22.6265C30.5304 22.5446 30.5057 22.4652 30.4623 22.3972C30.4189 22.3292 30.3585 22.2753 30.2878 22.2416C30.2171 22.2078 30.139 22.1954 30.0621 22.2059H27.157V22.1719Z" fill="#160E64"/>
</g>
<mask id="mask12_1_2699" style="mask-type:luminance" maskUnits="userSpaceOnUse" x="5" y="22" width="6" height="6">
<path fill-rule="evenodd" clip-rule="evenodd" d="M5.75019 22.1719C5.5723 22.1719 5.40157 22.246 5.27503 22.3783C5.14849 22.5105 5.07634 22.6902 5.07422 22.8783V26.964C5.07631 27.1529 5.1482 27.3335 5.27452 27.4671C5.40083 27.6007 5.57156 27.6768 5.75019 27.679H9.62092C9.79955 27.6768 9.97027 27.6007 10.0966 27.4671C10.2229 27.3335 10.2948 27.1529 10.2969 26.964V22.8783C10.2948 22.6902 10.2226 22.5105 10.0961 22.3783C9.96954 22.246 9.79881 22.1719 9.62092 22.1719H5.75019Z" fill="white"/>
</mask>
<g mask="url(#mask12_1_2699)">
<path fill-rule="evenodd" clip-rule="evenodd" d="M5.75019 22.1719C5.5723 22.1719 5.40157 22.246 5.27503 22.3783C5.14849 22.5105 5.07634 22.6902 5.07422 22.8783V26.964C5.07631 27.1529 5.1482 27.3335 5.27452 27.4671C5.40083 27.6007 5.57156 27.6768 5.75019 27.679H9.62092C9.79955 27.6768 9.97027 27.6007 10.0966 27.4671C10.2229 27.3335 10.2948 27.1529 10.2969 26.964V22.8783C10.2948 22.6902 10.2226 22.5105 10.0961 22.3783C9.96954 22.246 9.79881 22.1719 9.62092 22.1719H5.75019Z" fill="#160E64"/>
</g>
<mask id="mask13_1_2699" style="mask-type:luminance" maskUnits="userSpaceOnUse" x="0" y="22" width="5" height="3">
<path fill-rule="evenodd" clip-rule="evenodd" d="M1.30783 22.1747C1.23091 22.1642 1.15276 22.1765 1.08209 22.2103C1.01142 22.2441 0.951011 22.298 0.907609 22.3659C0.864208 22.4339 0.839519 22.5133 0.836299 22.5953C0.833078 22.6772 0.851452 22.7585 0.889371 22.8301L1.6941 24.5324C1.72543 24.6125 1.77581 24.6826 1.84033 24.7359C1.90486 24.7893 1.98133 24.8241 2.06233 24.8369C2.14333 24.8498 2.22609 24.8402 2.30257 24.8093C2.37906 24.7783 2.44666 24.7269 2.49882 24.6601L4.40602 22.6428C4.67158 22.3619 4.58306 22.1406 4.20484 22.1406H1.30783V22.1747Z" fill="white"/>
</mask>
<g mask="url(#mask13_1_2699)">
<path fill-rule="evenodd" clip-rule="evenodd" d="M1.30783 22.1747C1.23091 22.1642 1.15276 22.1765 1.08209 22.2103C1.01142 22.2441 0.951011 22.298 0.907609 22.3659C0.864208 22.4339 0.839519 22.5133 0.836299 22.5953C0.833078 22.6772 0.851452 22.7585 0.889371 22.8301L1.6941 24.5324C1.72543 24.6125 1.77581 24.6826 1.84033 24.7359C1.90486 24.7893 1.98133 24.8241 2.06233 24.8369C2.14333 24.8498 2.22609 24.8402 2.30257 24.8093C2.37906 24.7783 2.44666 24.7269 2.49882 24.6601L4.40602 22.6428C4.67158 22.3619 4.58306 22.1406 4.20484 22.1406H1.30783V22.1747Z" fill="#160E64"/>
</g>
<mask id="mask14_1_2699" style="mask-type:luminance" maskUnits="userSpaceOnUse" x="21" y="5" width="6" height="6">
<path fill-rule="evenodd" clip-rule="evenodd" d="M21.7189 5.32031C21.5403 5.32252 21.3696 5.39856 21.2433 5.53217C21.1169 5.66578 21.0451 5.84636 21.043 6.0353V10.1209C21.0451 10.3099 21.1169 10.4904 21.2433 10.6241C21.3696 10.7577 21.5403 10.8337 21.7189 10.8359H25.5897C25.7683 10.8337 25.939 10.7577 26.0653 10.6241C26.1917 10.4904 26.2635 10.3099 26.2656 10.1209V6.0353C26.2635 5.84636 26.1917 5.66578 26.0653 5.53217C25.939 5.39856 25.7683 5.32252 25.5897 5.32031H21.7189Z" fill="white"/>
</mask>
<g mask="url(#mask14_1_2699)">
<path fill-rule="evenodd" clip-rule="evenodd" d="M21.7189 5.32031C21.5403 5.32252 21.3696 5.39856 21.2433 5.53217C21.1169 5.66578 21.0451 5.84636 21.043 6.0353V10.1209C21.0451 10.3099 21.1169 10.4904 21.2433 10.6241C21.3696 10.7577 21.5403 10.8337 21.7189 10.8359H25.5897C25.7683 10.8337 25.939 10.7577 26.0653 10.6241C26.1917 10.4904 26.2635 10.3099 26.2656 10.1209V6.0353C26.2635 5.84636 26.1917 5.66578 26.0653 5.53217C25.939 5.39856 25.7683 5.32252 25.5897 5.32031H21.7189Z" fill="#160E64"/>
</g>
<mask id="mask15_1_2699" style="mask-type:luminance" maskUnits="userSpaceOnUse" x="-1" y="11" width="11" height="11">
<path fill-rule="evenodd" clip-rule="evenodd" d="M4.48824 11.466L0.191005 15.9858C0.127987 16.0522 0.0779849 16.1311 0.0438674 16.218C0.00974982 16.3049 -0.0078125 16.3981 -0.0078125 16.4922C-0.0078125 16.5863 0.00974982 16.6795 0.0438674 16.7664C0.0779849 16.8533 0.127987 16.9322 0.191005 16.9987L4.48824 21.5269C4.55104 21.5936 4.62566 21.6464 4.70782 21.6825C4.78999 21.7186 4.87808 21.7372 4.96705 21.7372C5.05602 21.7372 5.14411 21.7186 5.22627 21.6825C5.30844 21.6464 5.38306 21.5936 5.44586 21.5269L9.73504 16.9987C9.79806 16.9322 9.84806 16.8533 9.88218 16.7664C9.9163 16.6795 9.93386 16.5863 9.93386 16.4922C9.93386 16.3981 9.9163 16.3049 9.88218 16.218C9.84806 16.1311 9.79806 16.0522 9.73504 15.9858L5.44586 11.466C5.31662 11.3334 5.14312 11.26 4.96302 11.2618C4.78554 11.2613 4.61501 11.3347 4.48824 11.466Z" fill="white"/>
</mask>
<g mask="url(#mask15_1_2699)">
<path fill-rule="evenodd" clip-rule="evenodd" d="M4.48824 11.466L0.191005 15.9858C0.127987 16.0522 0.0779849 16.1311 0.0438674 16.218C0.00974982 16.3049 -0.0078125 16.3981 -0.0078125 16.4922C-0.0078125 16.5863 0.00974982 16.6795 0.0438674 16.7664C0.0779849 16.8533 0.127987 16.9322 0.191005 16.9987L4.48824 21.5269C4.55104 21.5936 4.62566 21.6464 4.70782 21.6825C4.78999 21.7186 4.87808 21.7372 4.96705 21.7372C5.05602 21.7372 5.14411 21.7186 5.22627 21.6825C5.30844 21.6464 5.38306 21.5936 5.44586 21.5269L9.73504 16.9987C9.79806 16.9322 9.84806 16.8533 9.88218 16.7664C9.9163 16.6795 9.93386 16.5863 9.93386 16.4922C9.93386 16.3981 9.9163 16.3049 9.88218 16.218C9.84806 16.1311 9.79806 16.0522 9.73504 15.9858L5.44586 11.466C5.31662 11.3334 5.14312 11.26 4.96302 11.2618C4.78554 11.2613 4.61501 11.3347 4.48824 11.466Z" fill="#160E64"/>
</g>
<path fill-rule="evenodd" clip-rule="evenodd" d="M108.243 11.5416H108.315C108.396 11.5416 108.46 11.5416 108.46 11.4395C108.46 11.3374 108.42 11.3374 108.323 11.3374H108.243V11.5416ZM108.243 11.9247H108.098V11.2437H108.339C108.418 11.235 108.497 11.2529 108.565 11.2948C108.585 11.312 108.602 11.334 108.613 11.3591C108.624 11.3842 108.63 11.4117 108.629 11.4395C108.626 11.4786 108.611 11.5156 108.586 11.5448C108.562 11.5741 108.529 11.5939 108.492 11.6012C108.557 11.6012 108.589 11.6693 108.613 11.7629C108.618 11.8226 108.634 11.8806 108.661 11.9332H108.5C108.472 11.881 108.456 11.8228 108.452 11.7629C108.446 11.7305 108.429 11.7017 108.403 11.6827C108.378 11.6637 108.346 11.6558 108.315 11.6608H108.243V11.9247ZM107.848 11.5672C107.846 11.6379 107.858 11.7084 107.882 11.7744C107.906 11.8404 107.942 11.9006 107.989 11.9514C108.035 12.0022 108.091 12.0426 108.153 12.0702C108.214 12.0978 108.28 12.112 108.347 12.1119C108.472 12.0954 108.586 12.0313 108.669 11.9318C108.752 11.8323 108.798 11.7041 108.798 11.5714C108.798 11.4387 108.752 11.3106 108.669 11.2111C108.586 11.1115 108.472 11.0475 108.347 11.0309C108.281 11.0309 108.216 11.0449 108.155 11.0719C108.093 11.099 108.038 11.1386 107.992 11.1885C107.945 11.2384 107.909 11.2976 107.884 11.3626C107.859 11.4276 107.847 11.4972 107.848 11.5672ZM108.999 11.5672C109 11.658 108.984 11.7482 108.952 11.8324C108.919 11.9165 108.871 11.993 108.811 12.0572C108.75 12.1215 108.678 12.1722 108.598 12.2065C108.519 12.2407 108.433 12.2578 108.347 12.2566C108.261 12.2578 108.175 12.2407 108.095 12.2066C108.015 12.1725 107.943 12.1219 107.881 12.0577C107.82 11.9936 107.771 11.9172 107.738 11.833C107.705 11.7488 107.687 11.6584 107.688 11.5672C107.689 11.477 107.706 11.388 107.74 11.3052C107.774 11.2225 107.823 11.1476 107.885 11.0851C107.946 11.0225 108.018 10.9735 108.098 10.9408C108.177 10.9081 108.262 10.8925 108.347 10.8947C108.432 10.8925 108.517 10.9082 108.596 10.941C108.675 10.9737 108.747 11.0229 108.807 11.0856C108.868 11.1482 108.916 11.2231 108.949 11.3059C108.982 11.3886 108.999 11.4774 108.999 11.5672Z" fill="#160E64"/>
</g>
<defs>
<clipPath id="clip0_1_2699">
<rect width="109" height="33" fill="white"/>
</clipPath>
</defs>
</svg>
