<svg width="159" height="35" viewBox="0 0 159 35" fill="none" xmlns="http://www.w3.org/2000/svg">
<path d="M58.1598 25.6954H60.9722L55.6848 12.1827H52.1975L46.9102 25.6954H49.7226L50.8475 22.7049H57.0348L58.1598 25.6954ZM51.7475 20.4897L53.9974 14.7302L56.2473 20.4897H51.7475ZM64.9094 17.3884V15.9485H62.3221V25.6954H64.9094V21.4865C64.9094 20.1574 65.1343 19.2713 65.6973 18.7176C66.2596 18.1637 67.0469 18.053 68.1721 18.1637V15.727C66.7095 15.6163 65.5848 16.1701 64.9094 17.3884ZM81.7841 15.727C80.3214 15.727 79.1968 16.1701 78.4089 17.1669C77.7341 16.1701 76.7219 15.727 75.3717 15.727C74.134 15.727 73.1218 16.1701 72.447 17.1669V16.0593H69.8591V25.8061H72.447V20.9327C72.447 20.0467 72.672 19.3821 73.0094 18.9391C73.3467 18.496 73.9091 18.1637 74.5845 18.1637C75.8216 18.1637 76.4964 18.9391 76.4964 20.6004V25.9169H79.0843V20.9327C79.0843 20.0467 79.3092 19.3821 79.6466 18.9391C79.984 18.496 80.5463 18.2745 81.2218 18.2745C82.4589 18.2745 83.1337 19.0498 83.1337 20.7112V26.0277H85.7216V19.9359C85.7216 18.6068 85.3836 17.61 84.7088 16.8346C83.9215 16.0593 83.0212 15.6163 81.7841 15.727ZM92.9212 26.0277C94.4963 26.0277 95.7334 25.5846 96.7463 24.5878C97.7584 23.591 98.2083 22.3726 98.2083 20.9327C98.2083 19.4928 97.7584 18.2745 96.7463 17.2777C95.7334 16.2809 94.4963 15.8378 92.9212 15.8378C91.3461 15.8378 90.109 16.2809 89.0962 17.2777C88.084 18.2745 87.6335 19.4928 87.6335 20.9327C87.6335 22.3726 88.084 23.591 89.0962 24.5878C90.109 25.4739 91.3461 26.0277 92.9212 26.0277ZM92.9212 23.7017C92.1333 23.7017 91.4585 23.4802 90.8962 22.9264C90.3339 22.3726 90.109 21.708 90.109 20.9327C90.109 20.1574 90.3339 19.3821 90.8962 18.9391C91.4585 18.3852 92.1333 18.1637 92.9212 18.1637C93.7084 18.1637 94.3832 18.3852 94.9462 18.9391C95.5085 19.4928 95.7334 20.1574 95.7334 20.9327C95.7334 21.708 95.5085 22.4834 94.9462 22.9264C94.3832 23.4802 93.7084 23.7017 92.9212 23.7017ZM102.708 17.3884V15.9485H100.121V25.6954H102.708V21.4865C102.708 20.1574 102.933 19.2713 103.496 18.7176C104.058 18.1637 104.846 18.053 105.971 18.1637V15.727C104.508 15.6163 103.384 16.1701 102.708 17.3884ZM114.408 26.0277C116.095 26.0277 117.558 25.5846 118.682 24.6985C119.808 23.8125 120.595 22.8156 120.932 21.5973L118.345 20.9327C118.12 21.5973 117.67 22.2618 116.883 22.7049C116.208 23.1479 115.308 23.4802 114.295 23.4802C112.946 23.4802 111.933 23.0371 111.145 22.1511C110.358 21.265 109.908 20.1574 109.908 18.9391C109.908 17.7207 110.358 16.6131 111.145 15.727C111.933 14.841 113.058 14.3979 114.408 14.3979C115.42 14.3979 116.208 14.6194 116.995 15.1732C117.67 15.6163 118.233 16.2809 118.457 16.9454L121.045 16.2809C120.707 15.0625 119.92 14.0656 118.795 13.1795C117.67 12.2935 116.208 11.8504 114.408 11.8504C112.383 11.8504 110.696 12.515 109.233 13.8441C107.883 15.1733 107.208 16.8346 107.208 18.8283C107.208 20.8219 107.883 22.4834 109.233 23.9233C110.583 25.3631 112.271 26.0277 114.408 26.0277ZM127.57 26.0277C129.145 26.0277 130.382 25.5846 131.395 24.5878C132.407 23.591 132.857 22.3726 132.857 20.9327C132.857 19.4928 132.407 18.2745 131.395 17.2777C130.382 16.2809 129.145 15.8378 127.57 15.8378C125.995 15.8378 124.757 16.2809 123.745 17.2777C122.732 18.2745 122.283 19.4928 122.283 20.9327C122.283 22.3726 122.732 23.591 123.745 24.5878C124.645 25.4739 125.995 26.0277 127.57 26.0277ZM127.457 23.7017C126.67 23.7017 125.995 23.4802 125.432 22.9264C124.87 22.3726 124.645 21.708 124.645 20.9327C124.645 20.1574 124.87 19.3821 125.432 18.9391C125.995 18.3852 126.67 18.1637 127.457 18.1637C128.245 18.1637 128.92 18.3852 129.482 18.9391C130.044 19.4928 130.27 20.1574 130.27 20.9327C130.27 21.708 130.044 22.4834 129.482 22.9264C129.032 23.4802 128.358 23.7017 127.457 23.7017ZM142.307 11.6289V17.1669C141.52 16.1701 140.507 15.727 139.157 15.727C137.807 15.727 136.569 16.1701 135.67 17.1669C134.77 18.1637 134.207 19.3821 134.207 20.8219C134.207 22.2618 134.657 23.4802 135.67 24.477C136.682 25.4739 137.807 25.9169 139.157 25.9169C140.507 25.9169 141.52 25.4739 142.307 24.477V25.6954H144.894V11.6289H142.307ZM139.495 23.7017C138.707 23.7017 138.032 23.4802 137.47 22.9264C136.907 22.3726 136.682 21.708 136.682 20.8219C136.682 19.9359 136.907 19.2713 137.47 18.7176C138.032 18.1637 138.707 17.9422 139.495 17.9422C140.282 17.9422 140.957 18.1637 141.52 18.7176C142.082 19.2713 142.307 19.9359 142.307 20.7112C142.307 21.5973 142.082 22.2618 141.52 22.8156C140.957 23.4802 140.282 23.7017 139.495 23.7017ZM152.206 26.0277C153.444 26.0277 154.456 25.6954 155.244 25.1416C156.031 24.5878 156.707 23.9232 156.932 23.1479L154.569 22.4834C154.119 23.3694 153.332 23.8125 152.206 23.8125C151.307 23.8125 150.632 23.591 150.182 23.2586C149.731 22.8156 149.394 22.2618 149.282 21.5973H157.044C157.044 21.3758 157.157 21.0435 157.157 20.7112C157.157 19.2713 156.707 18.053 155.806 17.1669C154.907 16.1701 153.669 15.727 152.094 15.727C150.519 15.727 149.282 16.1701 148.382 17.1669C147.369 18.1637 146.919 19.3821 146.919 20.8219C146.919 22.3726 147.369 23.591 148.382 24.5878C149.282 25.5846 150.632 26.0277 152.206 26.0277ZM149.394 20.0467C149.506 19.4928 149.731 18.9391 150.182 18.496C150.632 18.053 151.307 17.8315 151.981 17.8315C152.769 17.8315 153.332 18.053 153.781 18.496C154.231 18.9391 154.569 19.3821 154.569 20.0467H149.394Z" fill="#160E64"/>
<path opacity="0.5" d="M13.2754 23.5922C19.6127 23.5922 24.75 18.5837 24.75 12.4055C24.75 6.22721 19.6127 1.21875 13.2754 1.21875C6.93817 1.21875 1.80078 6.22721 1.80078 12.4055C1.80078 18.5837 6.93817 23.5922 13.2754 23.5922Z" fill="#160E64" stroke="#160E64" stroke-width="0.5458"/>
<path opacity="0.5" d="M20.0254 33.0062C26.3627 33.0062 31.5 27.9978 31.5 21.8195C31.5 15.6412 26.3627 10.6328 20.0254 10.6328C13.6882 10.6328 8.55078 15.6412 8.55078 21.8195C8.55078 27.9978 13.6882 33.0062 20.0254 33.0062Z" fill="#160E64" stroke="#160E64" stroke-width="0.5458"/>
<path opacity="0.3" d="M26.5488 23.5922C32.886 23.5922 38.0234 18.5837 38.0234 12.4055C38.0234 6.22721 32.886 1.21875 26.5488 1.21875C20.2115 1.21875 15.0742 6.22721 15.0742 12.4055C15.0742 18.5837 20.2115 23.5922 26.5488 23.5922Z" fill="#160E64" stroke="#160E64" stroke-width="0.5458"/>
<path fill-rule="evenodd" clip-rule="evenodd" d="M19.9131 21.9295C20.4756 21.4865 21.1506 21.0434 21.6006 20.4897C24.188 17.9422 25.3129 14.6194 24.9755 11.2966C21.713 9.74593 17.8882 9.85672 14.6258 11.4073C14.4008 14.6194 15.5257 17.9422 18.0007 20.4897C18.6756 21.0434 19.2381 21.4865 19.9131 21.9295Z" fill="#160E64"/>
</svg>
