<svg width="89" height="35" viewBox="0 0 89 35" fill="none" xmlns="http://www.w3.org/2000/svg">
<g clip-path="url(#clip0_1_2811)">
<path d="M20.4466 24.0977H19.1484V34.9997H27.712V33.8369H20.4466V24.0977Z" fill="#160E64"/>
<path d="M36.316 24.0977L30.5586 34.9965H31.9535L33.6068 31.8631H40.3524L42.0057 34.9965H43.4652L37.6916 24.0977H36.3128H36.316ZM34.1429 30.7954L36.9328 25.4631H36.9974L39.8034 30.7954H34.1429Z" fill="#160E64"/>
<path d="M54.9229 29.4623V29.3989C56.2209 28.9839 56.7408 28.1094 56.7408 26.934C56.7408 26.0437 56.4503 25.296 55.672 24.7859C54.6355 24.1491 53.2567 24.1016 51.0673 24.1016H47.1602V35.0004H51.6195C53.8734 35.0004 55.3814 34.9529 56.4051 34.126C56.9895 33.6634 57.3447 33.0108 57.3447 32.0729C57.3447 30.4508 56.3727 29.7348 54.9294 29.4623H54.9229ZM48.4518 25.1661H51.5162C53.867 25.1661 55.4395 25.3245 55.4395 27.0766C55.4395 28.667 54.206 29.0504 51.5162 29.0504H48.4518V25.1661ZM52.1168 33.9327H48.4518V30.0991H52.1168C54.3707 30.0991 56.024 30.2417 56.024 32.0096C56.024 33.6159 54.855 33.9359 52.1168 33.9359V33.9327Z" fill="#160E64"/>
<path d="M66.215 28.9524C65.2624 28.8004 64.4518 28.6609 63.6866 28.4328C62.7662 28.1572 62.5015 27.6661 62.5015 26.8867C62.5015 26.1992 62.7372 25.6479 63.6866 25.3564C64.2484 25.2044 64.9653 25.141 65.7467 25.141C66.7283 25.141 67.9328 25.2171 69.1792 25.3406V24.238C67.9457 24.1461 66.8382 24.0859 65.7628 24.0859C64.8587 24.0859 63.7027 24.162 62.8599 24.5453C61.6426 25.0808 61.3164 26.0757 61.3164 27.0261C61.3164 28.908 62.5176 29.5227 64.8135 29.9061C65.8597 30.0898 66.5604 30.1976 67.4355 30.4415C68.372 30.733 68.6529 31.2526 68.6529 32.0478C68.6529 32.767 68.4204 33.3944 67.4516 33.67C66.8575 33.8379 66.1084 33.8981 65.188 33.8981C64.0966 33.8981 62.7372 33.822 61.3326 33.6985V34.8454C62.7372 34.9373 63.9868 34.9975 65.2172 34.9975C66.2472 34.9975 67.3871 34.9215 68.246 34.5223C69.5086 33.9551 69.8541 32.9286 69.8541 31.9496C69.8541 29.9758 68.5916 29.3168 66.2182 28.9493L66.215 28.9524Z" fill="#160E64"/>
<path d="M5.76312 9.42952H10.8651V5.67512H5.76312V3.809H13.5872V0.00390625H1.1875V9.43267H5.76312V9.42952Z" fill="#160E64"/>
<path d="M13.5878 11.5117H5.77344V15.3168H13.5878V11.5117Z" fill="#160E64"/>
<path d="M22.6928 7.49295C22.6928 7.49295 23.0286 8.1773 23.3903 8.64939L28.3501 15.3123H32.3251V0H27.7496V7.93972C27.7496 7.93972 27.4137 7.25536 27.0521 6.78328L22.0921 0.00317138H18.1172V15.3155H22.6928V7.49618V7.49295Z" fill="#160E64"/>
<path d="M63.1021 0.00390625C58.2682 0.00390625 55.0391 3.40029 55.0391 7.62043C55.0391 11.8406 58.2682 15.2813 63.1021 15.2813C67.9361 15.2813 71.1877 11.8849 71.1877 7.62043C71.1877 3.35594 67.9328 0.00390625 63.1021 0.00390625ZM63.1021 11.359C61.0807 11.359 59.6405 9.80971 59.6405 7.62043C59.6405 5.43116 61.1969 3.92622 63.1021 3.92622C65.1461 3.92622 66.5863 5.47552 66.5863 7.62043C66.5863 9.76538 65.1461 11.359 63.1021 11.359Z" fill="#160E64"/>
<path d="M86.0887 10.7539C87.7263 9.64501 88.5466 7.82322 88.5466 6.05214C88.5466 2.71911 86.0887 0.00390625 81.297 0.00390625H74.4091V3.82168H78.9851V3.80584H81.3682C82.7402 3.80584 83.7028 4.7975 83.7028 6.04897C83.7028 7.30042 82.763 8.29209 81.3426 8.29209H80.8776V8.30478H74.4062V15.3067H78.9816V12.094H80.8612C81.2457 12.094 81.5099 12.0719 81.9912 12.0243L83.774 15.3099H88.9987L86.0859 10.7507L86.0887 10.7539Z" fill="#160E64"/>
<path d="M4.5853 13.4096C4.5853 12.1677 3.55845 11.1602 2.29265 11.1602C1.02685 11.1602 0 12.1677 0 13.4096C0 14.6516 1.02685 15.6591 2.29265 15.6591C3.55845 15.6591 4.5853 14.6516 4.5853 13.4096Z" fill="#160E64"/>
<path d="M43.3549 0.00390625H36.8516V9.46438H41.4272V3.809H43.1837C45.5184 3.809 47.0134 5.46285 47.0134 7.6616C47.0134 9.86043 45.5217 11.5143 43.1837 11.5143H36.8516V15.3193H43.3549C48.5796 15.3193 51.8571 11.8469 51.8571 7.66483C51.8571 3.48267 48.5828 0.0102297 43.3549 0.0102297V0.00390625Z" fill="#160E64"/>
</g>
<defs>
<clipPath id="clip0_1_2811">
<rect width="89" height="35" fill="white"/>
</clipPath>
</defs>
</svg>
