<svg width="136" height="32" viewBox="0 0 136 32" fill="none" xmlns="http://www.w3.org/2000/svg">
<path d="M3.73872 2.72536L6.75673 7.69876L9.72954 2.72536H3.73872ZM8.25909 8.22539H13.4708L10.6682 4.19477L8.25909 8.22539ZM16.1139 8.22539H22.235L19.1745 3.17749L16.1139 8.22539ZM17.6269 2.72536H11.5457L14.795 7.40077L17.6269 2.72536ZM10.6841 14.1775L13.3777 9.73333H7.99053L10.6841 14.1775ZM16.3 9.73333L19.1957 14.5115L22.0914 9.73333H16.3ZM17.7386 15.1178L14.8376 10.3319L11.9365 15.1178H17.7386ZM19.2835 28.3862L22.1712 23.6234H16.4091L19.2835 28.3862ZM22.1712 22.1155L19.2915 17.3656L16.4117 22.1155H22.1712ZM20.6715 16.6283L23.5433 21.3653L26.415 16.6283H20.6715ZM24.4553 22.8681V22.8707L28.4705 29.519L29.1538 30.6494H18.8341L18.6054 30.2692L15.0476 24.3787L11.4925 30.2538L11.2638 30.6339H0.941406L1.62478 29.5036L9.88908 15.8704L1.68594 2.34259L1.00256 1.21484H19.81L20.0413 1.59504L28.4705 15.5005L28.6965 15.873L28.4705 16.2481L24.4553 22.8681ZM23.5433 24.3761L20.6555 29.1388H26.4177L23.5433 24.3761ZM9.4397 29.126L6.5573 24.3735L3.67756 29.126H9.4397ZM7.92671 23.6234L10.8065 28.3759L13.6756 23.6234H7.92671ZM13.6277 22.1155L10.6895 17.5582L7.92671 22.1155H13.6277ZM11.9472 16.6283L15.021 21.3987L15.0423 21.3628L17.9141 16.6283H11.9472ZM23.5353 10.3679L20.6555 15.1178H26.415L23.5353 10.3679Z" fill="#160E64"/>
<path d="M131.411 6.29688L127.207 12.6164L129.262 15.8429L135.942 6.46129V6.29688H131.411Z" fill="#160E64"/>
<path d="M126.111 14.2708L121.607 7.19085L121.038 6.29688H116.562V6.46129L124.229 17.6283V25.6022H127.991L127.996 17.2301L126.111 14.2708Z" fill="#160E64"/>
<path d="M51.4405 12.7012C51.4405 9.35387 48.9596 6.32513 44.2584 6.29688C41.0941 6.32513 37.9299 6.29688 34.7656 6.29688V25.5996H38.5282V19.1568H42.1471L47.9624 25.5996H52.4376V25.3504L46.3936 18.7689C50.1854 18.0291 51.4405 15.3574 51.4405 12.7012ZM44.2557 9.68526C46.6223 9.68526 47.6753 11.2317 47.6753 12.7834C47.6753 14.335 46.6489 15.8815 44.2557 15.8815H38.5255V9.68526H44.2557Z" fill="#160E64"/>
<path d="M62.6417 6.29688L53.6914 25.5996H57.7677L59.4775 21.9646H69.9089L71.5921 25.5996H75.695L66.7446 6.29688H62.6417ZM60.9905 18.5788L64.6972 10.3557L68.4012 18.5788H60.9905Z" fill="#160E64"/>
<path d="M78.8711 6.35156V25.6004H82.6336V18.4665H92.6369V15.109H82.6336V9.84784H93.2086V6.35156H78.8711Z" fill="#160E64"/>
<path d="M104.474 6.29688L95.5234 25.5996H99.5998L101.31 21.9646H111.741L113.424 25.5996H117.53L108.579 6.29688H104.474ZM102.82 18.5788L106.527 10.3557L110.231 18.5788H102.82Z" fill="#160E64"/>
</svg>
