<svg width="114" height="38" viewBox="0 0 114 38" fill="none" xmlns="http://www.w3.org/2000/svg">
<g clip-path="url(#clip0_1_3909)">
<mask id="mask0_1_3909" style="mask-type:luminance" maskUnits="userSpaceOnUse" x="27" y="16" width="21" height="24">
<path d="M47.5791 39.6482H27.5543V16.1681H47.5791V39.6482Z" fill="white"/>
</mask>
<g mask="url(#mask0_1_3909)">
<g opacity="0.85">
<path d="M45.064 27.8499L40.0536 36.5891L30.0496 36.7251L35.0094 28.105L34.9419 27.9859H34.9925L40.0029 19.2468L39.9186 19.1108H40.0704L45.064 27.8499Z" fill="#DFDFE0"/>
</g>
</g>
<mask id="mask1_1_3909" style="mask-type:luminance" maskUnits="userSpaceOnUse" x="12" y="16" width="21" height="24">
<path d="M32.7334 39.6482H12.5061V16.3211H32.7334V39.6482Z" fill="white"/>
</mask>
<g mask="url(#mask1_1_3909)">
<g opacity="0.86">
<path d="M30.2086 36.473L30.0567 36.728H20.0527L15.0423 27.9889L15.0592 27.9549L20.0527 19.2497H20.0696L15.076 27.9379L21.2336 27.8869L25.0463 27.8529H25.1981L30.1073 36.473H30.2086Z" fill="#D6D6D7"/>
</g>
</g>
<path d="M25.0268 10.3847L20.0502 19.0898H20.0164L15.0903 10.4697L25.0268 10.3847Z" fill="#D7D8D8"/>
<mask id="mask2_1_3909" style="mask-type:luminance" maskUnits="userSpaceOnUse" x="1" y="0" width="28" height="12">
<path d="M28.4146 11.9514H1.69232V0.100865H28.4146V11.9514Z" fill="white"/>
</mask>
<g mask="url(#mask2_1_3909)">
<g opacity="0.83">
<path d="M25.07 10.3359L25.0531 10.3699H25.0362V10.3869L15.0828 10.4719V10.4549H5.11259L5.0451 10.3359L10.0555 1.59676H20.0764L25.07 10.3359Z" fill="#E7E8E9"/>
</g>
</g>
<path d="M25.0497 10.372L20.073 19.0771H20.0561L25.0328 10.372H25.0497Z" fill="white"/>
<path d="M20.0785 19.2025L20.0616 19.2365L15.0681 27.9417H5.06408L0.0536499 19.2025L5.06408 10.4634H5.11469L10.0408 19.0835H20.011L20.0785 19.2025Z" fill="#ADAEAD"/>
<path d="M20.0093 19.0823H10.0559L5.11298 10.4621H15.0832L20.0093 19.0823Z" fill="#E2E2E1"/>
<path d="M25.1005 27.7265L25.1848 27.8625H25.033L21.2372 27.8965L15.0796 27.9475L20.0732 19.2424H29.9759L25.1005 27.7265Z" fill="#C0C0C0"/>
<path d="M25.1005 27.7265L25.1848 27.8625H25.033L20.1069 19.2424H29.976L25.1005 27.7265Z" fill="#BDBDBD"/>
<path d="M35.002 27.8618H25.1835L25.0992 27.7258L29.9578 19.2417H30.059L35.002 27.8618Z" fill="#C8C8C8" stroke="#C8C8C8" stroke-width="0.377358" stroke-miterlimit="5.3333"/>
<mask id="mask3_1_3909" style="mask-type:luminance" maskUnits="userSpaceOnUse" x="23" y="26" width="14" height="12">
<path d="M36.7316 37.9138H23.5392V26.4373H36.7316V37.9138Z" fill="white"/>
</mask>
<g mask="url(#mask3_1_3909)">
<g opacity="0.95">
<path d="M35.0704 27.9822L30.2118 36.4663H30.1106L25.1845 27.8632H35.0029L35.0704 27.9822Z" fill="#D2D2D3"/>
</g>
</g>
<path d="M40.0617 19.1183L35.0513 27.8574H35.0007L30.0746 19.2373H20.1043L20.0369 19.1183L20.0537 19.0843L25.0304 10.3791V10.3621H35.0513L39.9774 18.9653L40.0617 19.1183Z" fill="#C9C9C9" stroke="#C9C9C9" stroke-width="0.377358" stroke-miterlimit="5.3333"/>
<path d="M51.3832 27.1226V11.127H58.1777V13.5594H53.7705V17.9218H56.9972V20.3542H53.7705V24.6902H58.1777V27.1226H51.3832Z" fill="white"/>
<path d="M64.1609 14.8059L63.2689 21.0984H65.0528L64.1609 14.8059ZM62.9017 23.4514L62.3245 27.1265H59.8323L62.5344 11.1573H65.8136L68.4632 27.1265H65.9448L65.3939 23.4514H62.9017Z" fill="white"/>
<path d="M75.6857 14.9971C75.6857 14.0717 75.2397 13.5958 74.3216 13.5958H72.8787V18.6985H74.3216C74.6888 18.6985 75.0299 18.5663 75.2922 18.3019C75.5545 18.0376 75.6857 17.6938 75.6857 17.3237V14.9971ZM74.2691 11.137C75.607 11.137 76.5776 11.5071 77.2073 12.2474C77.7582 12.8819 78.0205 13.8073 78.0205 14.9442V17.2708C78.0205 18.4077 77.6008 19.3595 76.7351 20.1527L78.5189 27.1326H75.9218L74.479 21.1045H74.2691H72.8787V27.1326H70.4915V11.1634H74.2691V11.137Z" fill="white"/>
<path d="M82.3149 13.5691H79.7702V11.1367H87.2468V13.5691H84.7021V27.1323H82.3149V13.5691Z" fill="white"/>
<path d="M91.5499 20.3522V27.1206H89.1626V11.1514H91.5499V17.9198H94.4355V11.125H96.8228V27.0942H94.4355V20.3522H91.5499Z" fill="white"/>
<path d="M105.479 27.1226H98.9728V11.1534H101.36V24.7166H105.479V27.1226Z" fill="white"/>
<path d="M107.364 20.4286L104.163 11.1221H106.787L108.571 16.8593L110.328 11.1221H112.978L109.751 20.4286V27.1177H107.364V20.4286Z" fill="white"/>
</g>
<defs>
<clipPath id="clip0_1_3909">
<rect width="114" height="38" fill="white"/>
</clipPath>
</defs>
</svg>
