<svg width="141" height="32" viewBox="0 0 141 32" fill="none" xmlns="http://www.w3.org/2000/svg">
<path d="M93.0583 23.3401C93.9096 23.171 94.5906 22.7989 95.1694 22.2915C96.0206 21.5135 96.1228 20.4311 96.1228 19.078V13.0569C96.1228 11.7038 95.9866 10.6552 95.1694 9.84332C94.5906 9.3021 93.9096 8.96383 93.0583 8.7947V5.91943C94.4203 6.12239 95.578 6.62979 96.4633 7.47546C97.621 8.55791 98.6425 10.0463 98.6425 11.9067V20.0928C98.6425 21.9533 97.621 23.4078 96.4633 24.5241C95.578 25.3697 94.4203 25.8771 93.0583 26.0801V23.3401Z" fill="url(#paint0_linear_1_3896)"/>
<path d="M82.5026 7.47546C83.3879 6.62979 84.5455 6.12239 85.9075 5.91943V8.7947C85.0563 8.96383 84.3753 9.33592 83.7964 9.84332C82.9452 10.6213 82.8431 11.7038 82.8431 13.023V19.078C82.8431 20.4311 82.9793 21.4797 83.7964 22.2915C84.3753 22.8328 85.0563 23.171 85.9075 23.3401V26.0801C84.5455 25.8771 83.3879 25.3697 82.5026 24.5241C81.3449 23.4416 80.3234 21.9533 80.3234 20.0928V11.8729C80.3234 10.0463 81.3449 8.59174 82.5026 7.47546Z" fill="url(#paint1_linear_1_3896)"/>
<path d="M92.0025 13.835L92.9559 12.3466L90.981 11.3318L90.1638 12.8878C90.0276 13.1246 89.8233 13.2599 89.5509 13.2599C89.2785 13.2599 89.0742 13.1246 88.938 12.8878L88.1208 11.3318L86.18 12.3466L87.542 14.5115L92.0025 13.835Z" fill="url(#paint2_linear_1_3896)"/>
<path d="M94.4199 14.9175L84.7839 15.019V16.9471H87.8143L86.1799 19.5517L88.1207 20.5665L88.9379 19.0105C89.0741 18.7737 89.2784 18.6384 89.5508 18.6384C89.8232 18.6384 90.0275 18.7737 90.1637 19.0105L90.9809 20.5665L92.9558 19.5517L91.6279 17.4545L89.1082 16.9809L94.454 16.9471V14.9175H94.4199Z" fill="url(#paint3_linear_1_3896)"/>
<path d="M6.4354 26.0127C4.49457 26.0127 2.96233 25.37 1.77059 24.0846C0.578846 22.7992 0 21.1078 0 19.0106V13.0233C0 10.926 0.578846 9.20085 1.77059 7.91543C2.96233 6.63002 4.49457 5.98731 6.4354 5.98731C7.69524 5.98731 8.78483 6.25793 9.70418 6.76533C10.6235 7.30655 11.3045 8.01691 11.7472 8.96406H11.8493V0H13.6199V25.6744H11.8493V23.0359H11.7472C11.3386 23.9831 10.6576 24.6934 9.70418 25.2347C8.78483 25.7759 7.69524 26.0127 6.4354 26.0127ZM6.80995 24.5243C8.41029 24.5243 9.63608 24.0507 10.5214 23.0698C11.4067 22.0888 11.8493 20.7696 11.8493 19.0444V13.0233C11.8493 11.2981 11.4067 9.94503 10.5214 8.96406C9.63608 7.98309 8.41029 7.50951 6.80995 7.50951C5.24366 7.50951 4.01787 7.98309 3.13258 8.96406C2.24728 9.94503 1.80464 11.2981 1.80464 13.0233V19.0444C1.80464 20.7696 2.24728 22.0888 3.13258 23.0698C4.01787 24.0507 5.20961 24.5243 6.80995 24.5243ZM25.7416 26.0127C23.5624 26.0127 21.894 25.37 20.6682 24.0846C19.4424 22.7992 18.8295 21.1078 18.8295 18.9767V13.0233C18.8295 10.8922 19.4424 9.20085 20.6682 7.91543C21.894 6.63002 23.5965 5.98731 25.7416 5.98731C27.8867 5.98731 29.5552 6.63002 30.781 7.91543C32.0068 9.20085 32.5856 10.8922 32.5856 13.0233V16.3721H20.6001V19.0106C20.6001 20.7019 21.0427 22.0211 21.928 23.0021C22.8133 23.9831 24.1072 24.4905 25.7416 24.4905C27.0696 24.4905 28.1591 24.186 29.0104 23.5433C29.8616 22.9006 30.4745 22.055 30.781 20.9387H32.5516C32.2111 22.4947 31.4279 23.7463 30.2362 24.6596C29.0444 25.5729 27.5462 26.0127 25.7416 26.0127ZM20.6001 14.8499H30.815V13.0233C30.815 11.3319 30.3724 10.0127 29.4871 8.99789C28.6018 8.01691 27.342 7.50951 25.7416 7.50951C24.1072 7.50951 22.8133 7.98309 21.928 8.96406C21.0427 9.94503 20.6001 11.2643 20.6001 12.9894V14.8499ZM45.1159 25.9789C43.6177 25.9789 42.3238 25.7421 41.2002 25.3023C40.0766 24.8288 39.1913 24.186 38.5784 23.3404C37.9655 22.4947 37.659 21.5137 37.659 20.3636H42.1195C42.1195 21.0402 42.3919 21.5814 42.9367 21.9197C43.4815 22.2918 44.2306 22.4609 45.184 22.4609H46.7163C47.8058 22.4609 48.6571 22.2579 49.2019 21.852C49.7467 21.4461 50.0191 20.9049 50.0191 20.1945C50.0191 18.8414 49.0316 18.0296 47.0227 17.7252L44.2987 17.3869C40.2128 16.8118 38.2038 14.8837 38.2038 11.6025C38.2038 9.7759 38.8167 8.38901 40.0425 7.44186C41.2683 6.49471 43.0729 6.02114 45.4224 6.02114H46.7503C48.9295 6.02114 50.7001 6.49472 52.028 7.47569C53.356 8.45666 54.037 9.74207 54.037 11.3319H49.5764C49.5764 10.7569 49.3381 10.3171 48.8273 10.0127C48.3166 9.70825 47.6356 9.53911 46.7163 9.53911H45.3883C43.4475 9.53911 42.4941 10.2156 42.4941 11.6025C42.4941 12.7865 43.3453 13.5307 45.0819 13.7674L47.8399 14.1734C50.0191 14.4778 51.6535 15.1205 52.709 16.0677C53.7646 17.0148 54.3093 18.3679 54.3093 20.0592C54.3093 21.9197 53.6624 23.3404 52.4026 24.389C51.1087 25.4038 49.2359 25.945 46.7503 25.945H45.1159V25.9789ZM67.1461 26.0127C65.5117 26.0127 64.0476 25.7082 62.8218 25.0655C61.596 24.4567 60.6426 23.5772 59.9616 22.4271C59.2806 21.277 58.9401 19.9577 58.9401 18.4017V13.5645C58.9401 12.0085 59.2806 10.6892 59.9616 9.53911C60.6426 8.38901 61.596 7.50951 62.8218 6.90063C64.0476 6.29176 65.5117 5.95349 67.1461 5.95349C69.5977 5.95349 71.5385 6.59619 73.0027 7.84778C74.4668 9.09937 75.2159 10.8245 75.284 12.9556H70.9937C70.9256 11.9408 70.5511 11.1628 69.836 10.6216C69.155 10.0803 68.2357 9.80972 67.1461 9.80972C65.9544 9.80972 65.035 10.148 64.354 10.7907C63.673 11.4334 63.3325 12.3467 63.3325 13.5645V18.4355C63.3325 19.6195 63.673 20.5666 64.354 21.2093C65.035 21.852 65.9544 22.1903 67.1461 22.1903C68.2697 22.1903 69.1891 21.9197 69.8701 21.3784C70.5511 20.8372 70.9256 20.0592 70.9937 19.0444H75.284C75.2159 21.2093 74.4328 22.9006 73.0027 24.1522C71.5385 25.4038 69.5977 26.0127 67.1461 26.0127ZM103.818 32V6.32558H108.108V9.80972H108.176C108.517 8.59197 109.163 7.64482 110.049 6.96829C110.968 6.29176 112.092 5.95349 113.42 5.95349C115.326 5.95349 116.859 6.63002 118.016 7.94926C119.174 9.30233 119.753 11.0613 119.753 13.3277V18.5708C119.753 20.8372 119.174 22.6638 118.016 23.9831C116.859 25.3023 115.326 25.9789 113.42 25.9789C112.092 25.9789 111.002 25.6406 110.083 24.9641C109.163 24.2875 108.517 23.3404 108.176 22.1226H108.108L108.21 26.5201V31.9323H103.818V32ZM111.819 22.2241C112.943 22.2241 113.828 21.8858 114.441 21.2431C115.054 20.6004 115.361 19.6533 115.361 18.4355V13.5645C115.361 12.3467 115.054 11.3996 114.441 10.7569C113.828 10.1142 112.943 9.7759 111.819 9.7759C110.696 9.7759 109.81 10.1142 109.163 10.7907C108.517 11.4672 108.21 12.4144 108.21 13.666V18.3002C108.21 19.5518 108.517 20.4989 109.163 21.1755C109.81 21.8858 110.696 22.2241 111.819 22.2241ZM132.896 26.0127C131.262 26.0127 129.798 25.7082 128.606 25.0655C127.38 24.4228 126.427 23.5433 125.78 22.4271C125.099 21.277 124.758 19.9577 124.758 18.4355V13.5645C124.758 12.0423 125.099 10.723 125.78 9.57294C126.461 8.42283 127.38 7.54334 128.606 6.93446C129.832 6.29176 131.262 5.98731 132.896 5.98731C134.531 5.98731 135.927 6.29176 137.152 6.93446C138.378 7.57717 139.298 8.45666 139.979 9.57294C140.66 10.6892 141 12.0423 141 13.5645V17.0486H129.049V18.4355C129.049 21.1755 130.342 22.5624 132.964 22.5624C134.973 22.5624 136.165 21.8858 136.539 20.5666H140.864C140.523 22.2241 139.638 23.5772 138.208 24.5581C136.71 25.5391 134.973 26.0127 132.896 26.0127ZM129.014 13.5645V14.3087L136.71 14.2748V13.5307C136.71 12.2114 136.403 11.1628 135.756 10.4524C135.109 9.74207 134.156 9.36998 132.896 9.36998C131.602 9.36998 130.649 9.74207 130.002 10.4524C129.321 11.1966 129.014 12.2452 129.014 13.5645Z" fill="white"/>
<defs>
<linearGradient id="paint0_linear_1_3896" x1="86.2981" y1="28.5136" x2="98.997" y2="8.66289" gradientUnits="userSpaceOnUse">
<stop stop-color="#0083B5"/>
<stop offset="0.417" stop-color="#0ED8D2"/>
<stop offset="1" stop-color="#65CC29"/>
</linearGradient>
<linearGradient id="paint1_linear_1_3896" x1="79.3353" y1="24.0596" x2="92.0341" y2="4.20893" gradientUnits="userSpaceOnUse">
<stop stop-color="#0083B5"/>
<stop offset="0.417" stop-color="#0ED8D2"/>
<stop offset="1" stop-color="#65CC29"/>
</linearGradient>
<linearGradient id="paint2_linear_1_3896" x1="81.2026" y1="25.2542" x2="93.9015" y2="5.40342" gradientUnits="userSpaceOnUse">
<stop stop-color="#0083B5"/>
<stop offset="0.417" stop-color="#0ED8D2"/>
<stop offset="1" stop-color="#65CC29"/>
</linearGradient>
<linearGradient id="paint3_linear_1_3896" x1="82.954" y1="26.3749" x2="95.6529" y2="6.52419" gradientUnits="userSpaceOnUse">
<stop stop-color="#0083B5"/>
<stop offset="0.417" stop-color="#0ED8D2"/>
<stop offset="1" stop-color="#65CC29"/>
</linearGradient>
</defs>
</svg>
