<svg width="90" height="90" viewBox="0 0 90 90" fill="none" xmlns="http://www.w3.org/2000/svg">
<g clip-path="url(#clip0_1_3605)">
<path d="M89.2592 18.7166C88.7075 8.99344 80.9597 1.24555 71.2365 0.693866C53.8272 -0.293789 36.1719 -0.293789 18.7645 0.693866C9.04128 1.24555 1.29341 8.99344 0.740741 18.7166C-0.246914 36.126 -0.246914 53.7803 0.740741 71.1896C1.29341 80.9128 9.04128 88.6607 18.7645 89.2124C36.212 90.2024 53.7908 90.2021 71.2365 89.2124C80.9597 88.6607 88.7075 80.9128 89.2592 71.1896C90.2469 53.7803 90.2469 36.126 89.2592 18.7166Z" fill="url(#paint0_linear_1_3605)"/>
<path d="M61.2718 57.5396H58.5603C57.2522 57.5396 56.1878 58.6041 56.1878 59.9121V60.251H48.7313V59.9121C48.7313 58.6041 47.6668 57.5396 46.3587 57.5396H46.0198V52.7945H57.2045C61.4581 52.7945 65 49.2491 65 44.9991C65 40.7009 61.5034 37.2036 57.2046 37.2036H56.8656V36.8647C56.8656 33.7071 55.6344 30.7275 53.3929 28.4695C51.1408 26.2333 48.162 25.0021 45.003 25.0021C38.4613 25.0021 33.1404 30.3237 33.1404 36.8647V37.2036H32.8014C28.5443 37.2036 25.006 40.7448 25.006 44.9991C25.006 49.2973 28.5025 52.7945 32.8014 52.7945H43.9862V57.5396H43.6473C42.3392 57.5396 41.2747 58.6041 41.2747 59.9121V60.251H33.8182V59.9121C33.8182 58.6041 32.7538 57.5396 31.4457 57.5396H28.7342C27.4262 57.5396 26.3617 58.6041 26.3617 59.9121V62.6236C26.3617 63.9316 27.4262 64.9961 28.7342 64.9961H31.4457C32.7538 64.9961 33.8182 63.9316 33.8182 62.6236V62.2846H41.2747V62.6236C41.2747 63.9316 42.3392 64.9961 43.6473 64.9961H46.3587C47.6668 64.9961 48.7313 63.9316 48.7313 62.6236V62.2846H56.1878V62.6236C56.1878 63.9316 57.2522 64.9961 58.5603 64.9961H61.2718C62.5798 64.9961 63.6443 63.9316 63.6443 62.6236V59.9121C63.6443 58.6041 62.5798 57.5396 61.2718 57.5396Z" fill="url(#paint1_linear_1_3605)"/>
</g>
<defs>
<linearGradient id="paint0_linear_1_3605" x1="45" y1="-0.479152" x2="45" y2="89.8814" gradientUnits="userSpaceOnUse">
<stop stop-color="#FDFDFF"/>
<stop offset="1" stop-color="#DACDFA"/>
</linearGradient>
<linearGradient id="paint1_linear_1_3605" x1="45.003" y1="22.9319" x2="45.003" y2="67.088" gradientUnits="userSpaceOnUse">
<stop stop-color="#C268F1"/>
<stop offset="1" stop-color="#472EEC"/>
</linearGradient>
<clipPath id="clip0_1_3605">
<rect width="90" height="90" fill="white"/>
</clipPath>
</defs>
</svg>
