<svg width="90" height="90" viewBox="0 0 90 90" fill="none" xmlns="http://www.w3.org/2000/svg">
<g clip-path="url(#clip0_1_3619)">
<path d="M89.2592 18.7166C88.7075 8.99344 80.9597 1.24555 71.2365 0.693866C53.8271 -0.293789 36.1719 -0.293789 18.7645 0.693866C9.04128 1.24557 1.29339 8.99344 0.740741 18.7166C-0.246914 36.126 -0.246914 53.7803 0.740741 71.1896C1.29341 80.9128 9.04128 88.6607 18.7645 89.2124C36.216 90.2026 53.7865 90.2024 71.2365 89.2124C80.9597 88.6607 88.7076 80.9128 89.2592 71.1896C90.2469 53.7803 90.2469 36.126 89.2592 18.7166Z" fill="url(#paint0_linear_1_3619)"/>
<path d="M57.7116 49.7549L47.863 46.8322L47.863 38.963C47.863 37.8813 47.4333 36.844 46.6685 36.0792C45.9037 35.3144 44.8663 34.8847 43.7847 34.8847C42.7031 34.8847 41.6658 35.3144 40.9009 36.0792C40.1361 36.844 39.7064 37.8813 39.7064 38.963L39.7064 55.8587C39.7064 56.1677 39.5837 56.4641 39.3652 56.6826C39.1466 56.9012 38.8502 57.0239 38.5412 57.0239C38.2322 57.0239 37.9358 56.9012 37.7173 56.6826C37.4988 56.4641 37.376 56.1677 37.376 55.8587L37.376 50.1644L34.3708 51.9426C34.3338 51.9643 34.2981 51.988 34.2638 52.0137C33.4545 52.614 32.9063 53.5019 32.7321 54.4943C32.6426 55.0047 32.657 55.5279 32.7746 56.0326C32.8921 56.5372 33.1103 57.013 33.4161 57.4313L37.5307 64.5955C37.6328 64.7733 37.78 64.921 37.9574 65.0237C38.1348 65.1264 38.3362 65.1805 38.5412 65.1805L38.5594 65.1805L59.5334 64.8477C59.8392 64.8427 60.1308 64.7178 60.3454 64.4998C60.56 64.2819 60.6803 63.9883 60.6804 63.6825L60.6804 53.6113C60.6812 52.7308 60.3904 51.8749 59.8532 51.1772C59.3161 50.4795 58.563 49.9793 57.7116 49.7549Z" fill="url(#paint1_linear_1_3619)"/>
<path d="M57.7116 49.7549L47.863 46.8322L47.863 38.963C47.863 37.8813 47.4333 36.844 46.6685 36.0792C45.9037 35.3144 44.8663 34.8847 43.7847 34.8847C42.7031 34.8847 41.6658 35.3144 40.9009 36.0792C40.1361 36.844 39.7064 37.8813 39.7064 38.963L39.7064 55.8587C39.7064 56.1677 39.5837 56.4641 39.3652 56.6826C39.1466 56.9012 38.8502 57.0239 38.5412 57.0239C38.2322 57.0239 37.9358 56.9012 37.7173 56.6826C37.4988 56.4641 37.376 56.1677 37.376 55.8587L37.376 50.1644L34.3708 51.9426C34.3338 51.9643 34.2981 51.988 34.2638 52.0137C33.4545 52.614 32.9063 53.5019 32.7321 54.4943C32.6426 55.0047 32.657 55.5279 32.7746 56.0326C32.8921 56.5372 33.1103 57.013 33.4161 57.4313L37.5307 64.5955C37.6328 64.7733 37.78 64.921 37.9574 65.0237C38.1348 65.1264 38.3362 65.1805 38.5412 65.1805L38.5594 65.1805L59.5334 64.8477C59.8392 64.8427 60.1308 64.7178 60.3454 64.4998C60.56 64.2819 60.6803 63.9883 60.6804 63.6825L60.6804 53.6113C60.6812 52.7308 60.3904 51.8749 59.8532 51.1772C59.3161 50.4795 58.563 49.9793 57.7116 49.7549Z" fill="url(#paint2_linear_1_3619)"/>
<path d="M29.2194 40.1277C28.9104 40.1277 28.614 40.005 28.3955 39.7865C28.177 39.5679 28.0542 39.2716 28.0542 38.9625C28.0518 34.8132 29.6889 30.831 32.6091 27.8831C35.5292 24.9352 39.4957 23.2605 43.6449 23.2236C47.794 23.1867 51.7897 24.7907 54.7618 27.6862C57.7338 30.5817 59.4415 34.5342 59.5129 38.6829C59.5156 38.8359 59.4881 38.9879 59.432 39.1303C59.3759 39.2727 59.2924 39.4027 59.1861 39.5128C58.9714 39.7352 58.6772 39.8631 58.3681 39.8685C58.0591 39.874 57.7605 39.7564 57.5382 39.5417C57.3158 39.327 57.1879 39.0328 57.1824 38.7238C57.1166 35.193 55.6598 31.831 53.1286 29.3686C50.5974 26.9062 47.1965 25.5424 43.6653 25.5739C40.1341 25.6054 36.7581 27.0295 34.2712 29.5366C31.7843 32.0437 30.3875 35.4312 30.3847 38.9625C30.3847 39.2716 30.2619 39.5679 30.0434 39.7865C29.8248 40.005 29.5285 40.1277 29.2194 40.1277Z" fill="url(#paint3_linear_1_3619)"/>
<path d="M29.2194 40.1277C28.9104 40.1277 28.614 40.005 28.3955 39.7865C28.177 39.5679 28.0542 39.2716 28.0542 38.9625C28.0518 34.8132 29.6889 30.831 32.6091 27.8831C35.5292 24.9352 39.4957 23.2605 43.6449 23.2236C47.794 23.1867 51.7897 24.7907 54.7618 27.6862C57.7338 30.5817 59.4415 34.5342 59.5129 38.6829C59.5156 38.8359 59.4881 38.9879 59.432 39.1303C59.3759 39.2727 59.2924 39.4027 59.1861 39.5128C58.9714 39.7352 58.6772 39.8631 58.3681 39.8685C58.0591 39.874 57.7605 39.7564 57.5382 39.5417C57.3158 39.327 57.1879 39.0328 57.1824 38.7238C57.1166 35.193 55.6598 31.831 53.1286 29.3686C50.5974 26.9062 47.1965 25.5424 43.6653 25.5739C40.1341 25.6054 36.7581 27.0295 34.2712 29.5366C31.7843 32.0437 30.3875 35.4312 30.3847 38.9625C30.3847 39.2716 30.2619 39.5679 30.0434 39.7865C29.8248 40.005 29.5285 40.1277 29.2194 40.1277Z" fill="url(#paint4_linear_1_3619)"/>
<path d="M52.5239 40.1274C52.2148 40.1274 51.9185 40.0047 51.6999 39.7861C51.4814 39.5676 51.3587 39.2712 51.3587 38.9622C51.3587 36.9535 50.5607 35.027 49.1403 33.6066C47.7199 32.1862 45.7934 31.3883 43.7847 31.3883C41.776 31.3883 39.8495 32.1862 38.4291 33.6066C37.0087 35.027 36.2108 36.9535 36.2108 38.9622C36.2108 39.2712 36.088 39.5676 35.8695 39.7861C35.651 40.0047 35.3546 40.1274 35.0455 40.1274C34.7365 40.1274 34.4401 40.0047 34.2216 39.7861C34.0031 39.5676 33.8803 39.2712 33.8803 38.9622C33.8803 36.3354 34.9238 33.8162 36.7812 31.9587C38.6387 30.1013 41.1579 29.0578 43.7847 29.0578C46.4115 29.0578 48.9307 30.1013 50.7882 31.9587C52.6456 33.8162 53.6891 36.3354 53.6891 38.9622C53.6891 39.2712 53.5663 39.5676 53.3478 39.7861C53.1293 40.0047 52.8329 40.1274 52.5239 40.1274Z" fill="url(#paint5_linear_1_3619)"/>
<path d="M52.5239 40.1274C52.2148 40.1274 51.9185 40.0047 51.6999 39.7861C51.4814 39.5676 51.3587 39.2712 51.3587 38.9622C51.3587 36.9535 50.5607 35.027 49.1403 33.6066C47.7199 32.1862 45.7934 31.3883 43.7847 31.3883C41.776 31.3883 39.8495 32.1862 38.4291 33.6066C37.0087 35.027 36.2108 36.9535 36.2108 38.9622C36.2108 39.2712 36.088 39.5676 35.8695 39.7861C35.651 40.0047 35.3546 40.1274 35.0455 40.1274C34.7365 40.1274 34.4401 40.0047 34.2216 39.7861C34.0031 39.5676 33.8803 39.2712 33.8803 38.9622C33.8803 36.3354 34.9238 33.8162 36.7812 31.9587C38.6387 30.1013 41.1579 29.0578 43.7847 29.0578C46.4115 29.0578 48.9307 30.1013 50.7882 31.9587C52.6456 33.8162 53.6891 36.3354 53.6891 38.9622C53.6891 39.2712 53.5663 39.5676 53.3478 39.7861C53.1293 40.0047 52.8329 40.1274 52.5239 40.1274Z" fill="url(#paint6_linear_1_3619)"/>
</g>
<defs>
<linearGradient id="paint0_linear_1_3619" x1="45" y1="-0.479152" x2="45" y2="89.8815" gradientUnits="userSpaceOnUse">
<stop stop-color="#FDFDFF"/>
<stop offset="1" stop-color="#DACDFA"/>
</linearGradient>
<linearGradient id="paint1_linear_1_3619" x1="43.7848" y1="22.9597" x2="43.7848" y2="62.8126" gradientUnits="userSpaceOnUse">
<stop stop-color="#9918C1"/>
<stop offset="1" stop-color="#AC8BF3"/>
</linearGradient>
<linearGradient id="paint2_linear_1_3619" x1="41.1145" y1="21.1578" x2="48.5066" y2="68.882" gradientUnits="userSpaceOnUse">
<stop stop-color="#C268F1"/>
<stop offset="1" stop-color="#472EEC"/>
</linearGradient>
<linearGradient id="paint3_linear_1_3619" x1="43.7848" y1="22.9597" x2="43.7848" y2="62.8126" gradientUnits="userSpaceOnUse">
<stop stop-color="#9918C1"/>
<stop offset="1" stop-color="#AC8BF3"/>
</linearGradient>
<linearGradient id="paint4_linear_1_3619" x1="41.1145" y1="21.1578" x2="48.5066" y2="68.882" gradientUnits="userSpaceOnUse">
<stop stop-color="#C268F1"/>
<stop offset="1" stop-color="#472EEC"/>
</linearGradient>
<linearGradient id="paint5_linear_1_3619" x1="43.7848" y1="22.9597" x2="43.7848" y2="62.8126" gradientUnits="userSpaceOnUse">
<stop stop-color="#9918C1"/>
<stop offset="1" stop-color="#AC8BF3"/>
</linearGradient>
<linearGradient id="paint6_linear_1_3619" x1="41.1145" y1="21.1578" x2="48.5066" y2="68.882" gradientUnits="userSpaceOnUse">
<stop stop-color="#C268F1"/>
<stop offset="1" stop-color="#472EEC"/>
</linearGradient>
<clipPath id="clip0_1_3619">
<rect width="90" height="90" fill="white"/>
</clipPath>
</defs>
</svg>
