<svg width="90" height="90" viewBox="0 0 90 90" fill="none" xmlns="http://www.w3.org/2000/svg">
<g clip-path="url(#clip0_1_3611)">
<path d="M89.2592 18.7635C88.7075 9.04032 80.9597 1.29242 71.2365 0.740741C53.8271 -0.246914 36.1719 -0.246914 18.7645 0.740741C9.04128 1.29244 1.29339 9.04032 0.740741 18.7635C-0.246914 36.1728 -0.246914 53.8272 0.740741 71.2365C1.29341 80.9597 9.04128 88.7076 18.7645 89.2593C36.216 90.2495 53.7865 90.2492 71.2365 89.2593C80.9597 88.7076 88.7076 80.9597 89.2592 71.2365C90.2469 53.8272 90.2469 36.1728 89.2592 18.7635Z" fill="url(#paint0_linear_1_3611)"/>
<path d="M61.2727 54.8175C60.4641 54.8201 59.6784 55.0862 59.0345 55.5753C58.3907 56.0644 57.9237 56.7499 57.7043 57.5282H54.1572V52.7845H60.5951C61.4035 52.7834 62.1785 52.4618 62.7502 51.8901C63.3218 51.3184 63.6435 50.5434 63.6446 49.735V42.9583C63.6435 42.1498 63.3218 41.3748 62.7502 40.8032C62.1785 40.2315 61.4035 39.9099 60.5951 39.9088H59.5786V37.8757H60.5951C61.4035 37.8746 62.1785 37.553 62.7502 36.9813C63.3218 36.4097 63.6435 35.6347 63.6446 34.8262V28.0495C63.6435 27.2411 63.3218 26.4661 62.7502 25.8944C62.1785 25.3228 61.4035 25.0011 60.5951 25H29.4223C28.6138 25.0011 27.8388 25.3228 27.2672 25.8944C26.6955 26.4661 26.3739 27.2411 26.3728 28.0495V34.8262C26.3739 35.6347 26.6955 36.4097 27.2672 36.9813C27.8388 37.553 28.6138 37.8746 29.4223 37.8757H30.4388V39.9088H29.4223C28.6138 39.9099 27.8388 40.2315 27.2672 40.8032C26.6955 41.3748 26.3739 42.1498 26.3728 42.9583V49.735C26.3739 50.5434 26.6955 51.3184 27.2672 51.8901C27.8388 52.4618 28.6138 52.7834 29.4223 52.7845H35.8601V57.5282H32.3131C32.0677 56.6627 31.5176 55.9151 30.7642 55.4234C30.0109 54.9318 29.1051 54.7292 28.214 54.853C27.323 54.9769 26.5068 55.4188 25.9161 56.0973C25.3254 56.7758 25 57.6451 25 58.5447C25 59.4443 25.3254 60.3136 25.9161 60.9921C26.5068 61.6706 27.323 62.1126 28.214 62.2364C29.1051 62.3603 30.0109 62.1577 30.7642 61.666C31.5176 61.1743 32.0677 60.4267 32.3131 59.5612H36.8766C37.1462 59.5612 37.4048 59.4541 37.5954 59.2635C37.786 59.0729 37.8931 58.8143 37.8931 58.5447V52.7845H43.9922V57.6869C43.1266 57.9323 42.3791 58.4824 41.8874 59.2358C41.3957 59.9891 41.1931 60.8949 41.317 61.7859C41.4408 62.677 41.8828 63.4932 42.5613 64.0839C43.2398 64.6746 44.109 65 45.0087 65C45.9083 65 46.7775 64.6746 47.456 64.0839C48.1345 63.4932 48.5765 62.677 48.7004 61.7859C48.8242 60.8949 48.6216 59.9891 48.1299 59.2358C47.6383 58.4824 46.8907 57.9323 46.0252 57.6869V52.7845H52.1242V58.5447C52.1242 58.8143 52.2313 59.0729 52.4219 59.2635C52.6126 59.4541 52.8711 59.5612 53.1407 59.5612H57.7043C57.8947 60.2264 58.2669 60.8252 58.7791 61.2905C59.2912 61.7557 59.9229 62.0689 60.6032 62.1948C61.2836 62.3208 61.9856 62.2545 62.6303 62.0034C63.275 61.7522 63.8369 61.3263 64.2528 60.7734C64.6688 60.2205 64.9222 59.5625 64.9848 58.8734C65.0473 58.1844 64.9164 57.4915 64.6068 56.8728C64.2972 56.254 63.8212 55.7339 63.2322 55.3708C62.6432 55.0077 61.9646 54.8161 61.2727 54.8175ZM57.2067 47.3631C57.0057 47.3631 56.8091 47.3035 56.642 47.1918C56.4748 47.0801 56.3445 46.9214 56.2676 46.7356C56.1907 46.5499 56.1705 46.3455 56.2097 46.1483C56.249 45.9511 56.3458 45.77 56.4879 45.6279C56.6301 45.4857 56.8112 45.3889 57.0084 45.3497C57.2056 45.3104 57.41 45.3306 57.5957 45.4075C57.7815 45.4844 57.9402 45.6147 58.0519 45.7819C58.1636 45.9491 58.2232 46.1456 58.2232 46.3466C58.2232 46.6162 58.1161 46.8748 57.9255 47.0654C57.7349 47.256 57.4763 47.3631 57.2067 47.3631ZM57.2067 30.4214C57.4078 30.4214 57.6043 30.481 57.7715 30.5927C57.9386 30.7044 58.0689 30.8631 58.1458 31.0489C58.2228 31.2346 58.2429 31.439 58.2037 31.6362C58.1645 31.8334 58.0677 32.0145 57.9255 32.1567C57.7833 32.2988 57.6022 32.3956 57.405 32.4348C57.2078 32.4741 57.0035 32.4539 56.8177 32.377C56.632 32.3001 56.4732 32.1698 56.3615 32.0026C56.2498 31.8355 56.1902 31.6389 56.1902 31.4379C56.1902 31.1683 56.2973 30.9097 56.4879 30.7191C56.6786 30.5285 56.9371 30.4214 57.2067 30.4214ZM51.7854 30.4214C51.9864 30.4214 52.1829 30.481 52.3501 30.5927C52.5173 30.7044 52.6476 30.8631 52.7245 31.0489C52.8014 31.2346 52.8216 31.439 52.7823 31.6362C52.7431 31.8334 52.6463 32.0145 52.5041 32.1567C52.362 32.2988 52.1809 32.3956 51.9837 32.4348C51.7865 32.4741 51.5821 32.4539 51.3964 32.377C51.2106 32.3001 51.0519 32.1698 50.9402 32.0026C50.8285 31.8355 50.7689 31.6389 50.7689 31.4379C50.7689 31.1683 50.8759 30.9097 51.0666 30.7191C51.2572 30.5285 51.5158 30.4214 51.7854 30.4214ZM31.4553 30.4214H42.298C42.5676 30.4214 42.8261 30.5285 43.0168 30.7191C43.2074 30.9097 43.3145 31.1683 43.3145 31.4379C43.3145 31.7075 43.2074 31.966 43.0168 32.1567C42.8261 32.3473 42.5676 32.4544 42.298 32.4544H31.4553C31.1857 32.4544 30.9271 32.3473 30.7365 32.1567C30.5459 31.966 30.4388 31.7075 30.4388 31.4379C30.4388 31.1683 30.5459 30.9097 30.7365 30.7191C30.9271 30.5285 31.1857 30.4214 31.4553 30.4214ZM42.298 47.3631H31.4553C31.1857 47.3631 30.9271 47.256 30.7365 47.0654C30.5459 46.8748 30.4388 46.6162 30.4388 46.3466C30.4388 46.077 30.5459 45.8185 30.7365 45.6279C30.9271 45.4372 31.1857 45.3301 31.4553 45.3301H42.298C42.5676 45.3301 42.8261 45.4372 43.0168 45.6279C43.2074 45.8185 43.3145 46.077 43.3145 46.3466C43.3145 46.6162 43.2074 46.8748 43.0168 47.0654C42.8261 47.256 42.5676 47.3631 42.298 47.3631ZM51.7854 47.3631C51.5843 47.3631 51.3878 47.3035 51.2206 47.1918C51.0535 47.0801 50.9232 46.9214 50.8462 46.7356C50.7693 46.5499 50.7492 46.3455 50.7884 46.1483C50.8276 45.9511 50.9244 45.77 51.0666 45.6279C51.2087 45.4857 51.3899 45.3889 51.587 45.3497C51.7842 45.3104 51.9886 45.3306 52.1744 45.4075C52.3601 45.4844 52.5189 45.6147 52.6306 45.7819C52.7422 45.9491 52.8019 46.1456 52.8019 46.3466C52.8019 46.6162 52.6948 46.8748 52.5041 47.0654C52.3135 47.256 52.055 47.3631 51.7854 47.3631ZM32.4718 39.9088V37.8757H57.5456V39.9088H32.4718Z" fill="url(#paint1_linear_1_3611)"/>
<path d="M61.2727 54.8175C60.4641 54.8201 59.6784 55.0862 59.0345 55.5753C58.3907 56.0644 57.9237 56.7499 57.7043 57.5282H54.1572V52.7845H60.5951C61.4035 52.7834 62.1785 52.4618 62.7502 51.8901C63.3218 51.3184 63.6435 50.5434 63.6446 49.735V42.9583C63.6435 42.1498 63.3218 41.3748 62.7502 40.8032C62.1785 40.2315 61.4035 39.9099 60.5951 39.9088H59.5786V37.8757H60.5951C61.4035 37.8746 62.1785 37.553 62.7502 36.9813C63.3218 36.4097 63.6435 35.6347 63.6446 34.8262V28.0495C63.6435 27.2411 63.3218 26.4661 62.7502 25.8944C62.1785 25.3228 61.4035 25.0011 60.5951 25H29.4223C28.6138 25.0011 27.8388 25.3228 27.2672 25.8944C26.6955 26.4661 26.3739 27.2411 26.3728 28.0495V34.8262C26.3739 35.6347 26.6955 36.4097 27.2672 36.9813C27.8388 37.553 28.6138 37.8746 29.4223 37.8757H30.4388V39.9088H29.4223C28.6138 39.9099 27.8388 40.2315 27.2672 40.8032C26.6955 41.3748 26.3739 42.1498 26.3728 42.9583V49.735C26.3739 50.5434 26.6955 51.3184 27.2672 51.8901C27.8388 52.4618 28.6138 52.7834 29.4223 52.7845H35.8601V57.5282H32.3131C32.0677 56.6627 31.5176 55.9151 30.7642 55.4234C30.0109 54.9318 29.1051 54.7292 28.214 54.853C27.323 54.9769 26.5068 55.4188 25.9161 56.0973C25.3254 56.7758 25 57.6451 25 58.5447C25 59.4443 25.3254 60.3136 25.9161 60.9921C26.5068 61.6706 27.323 62.1126 28.214 62.2364C29.1051 62.3603 30.0109 62.1577 30.7642 61.666C31.5176 61.1743 32.0677 60.4267 32.3131 59.5612H36.8766C37.1462 59.5612 37.4048 59.4541 37.5954 59.2635C37.786 59.0729 37.8931 58.8143 37.8931 58.5447V52.7845H43.9922V57.6869C43.1266 57.9323 42.3791 58.4824 41.8874 59.2358C41.3957 59.9891 41.1931 60.8949 41.317 61.7859C41.4408 62.677 41.8828 63.4932 42.5613 64.0839C43.2398 64.6746 44.109 65 45.0087 65C45.9083 65 46.7775 64.6746 47.456 64.0839C48.1345 63.4932 48.5765 62.677 48.7004 61.7859C48.8242 60.8949 48.6216 59.9891 48.1299 59.2358C47.6383 58.4824 46.8907 57.9323 46.0252 57.6869V52.7845H52.1242V58.5447C52.1242 58.8143 52.2313 59.0729 52.4219 59.2635C52.6126 59.4541 52.8711 59.5612 53.1407 59.5612H57.7043C57.8947 60.2264 58.2669 60.8252 58.7791 61.2905C59.2912 61.7557 59.9229 62.0689 60.6032 62.1948C61.2836 62.3208 61.9856 62.2545 62.6303 62.0034C63.275 61.7522 63.8369 61.3263 64.2528 60.7734C64.6688 60.2205 64.9222 59.5625 64.9848 58.8734C65.0473 58.1844 64.9164 57.4915 64.6068 56.8728C64.2972 56.254 63.8212 55.7339 63.2322 55.3708C62.6432 55.0077 61.9646 54.8161 61.2727 54.8175ZM57.2067 47.3631C57.0057 47.3631 56.8091 47.3035 56.642 47.1918C56.4748 47.0801 56.3445 46.9214 56.2676 46.7356C56.1907 46.5499 56.1705 46.3455 56.2097 46.1483C56.249 45.9511 56.3458 45.77 56.4879 45.6279C56.6301 45.4857 56.8112 45.3889 57.0084 45.3497C57.2056 45.3104 57.41 45.3306 57.5957 45.4075C57.7815 45.4844 57.9402 45.6147 58.0519 45.7819C58.1636 45.9491 58.2232 46.1456 58.2232 46.3466C58.2232 46.6162 58.1161 46.8748 57.9255 47.0654C57.7349 47.256 57.4763 47.3631 57.2067 47.3631ZM57.2067 30.4214C57.4078 30.4214 57.6043 30.481 57.7715 30.5927C57.9386 30.7044 58.0689 30.8631 58.1458 31.0489C58.2228 31.2346 58.2429 31.439 58.2037 31.6362C58.1645 31.8334 58.0677 32.0145 57.9255 32.1567C57.7833 32.2988 57.6022 32.3956 57.405 32.4348C57.2078 32.4741 57.0035 32.4539 56.8177 32.377C56.632 32.3001 56.4732 32.1698 56.3615 32.0026C56.2498 31.8355 56.1902 31.6389 56.1902 31.4379C56.1902 31.1683 56.2973 30.9097 56.4879 30.7191C56.6786 30.5285 56.9371 30.4214 57.2067 30.4214ZM51.7854 30.4214C51.9864 30.4214 52.1829 30.481 52.3501 30.5927C52.5173 30.7044 52.6476 30.8631 52.7245 31.0489C52.8014 31.2346 52.8216 31.439 52.7823 31.6362C52.7431 31.8334 52.6463 32.0145 52.5041 32.1567C52.362 32.2988 52.1809 32.3956 51.9837 32.4348C51.7865 32.4741 51.5821 32.4539 51.3964 32.377C51.2106 32.3001 51.0519 32.1698 50.9402 32.0026C50.8285 31.8355 50.7689 31.6389 50.7689 31.4379C50.7689 31.1683 50.8759 30.9097 51.0666 30.7191C51.2572 30.5285 51.5158 30.4214 51.7854 30.4214ZM31.4553 30.4214H42.298C42.5676 30.4214 42.8261 30.5285 43.0168 30.7191C43.2074 30.9097 43.3145 31.1683 43.3145 31.4379C43.3145 31.7075 43.2074 31.966 43.0168 32.1567C42.8261 32.3473 42.5676 32.4544 42.298 32.4544H31.4553C31.1857 32.4544 30.9271 32.3473 30.7365 32.1567C30.5459 31.966 30.4388 31.7075 30.4388 31.4379C30.4388 31.1683 30.5459 30.9097 30.7365 30.7191C30.9271 30.5285 31.1857 30.4214 31.4553 30.4214ZM42.298 47.3631H31.4553C31.1857 47.3631 30.9271 47.256 30.7365 47.0654C30.5459 46.8748 30.4388 46.6162 30.4388 46.3466C30.4388 46.077 30.5459 45.8185 30.7365 45.6279C30.9271 45.4372 31.1857 45.3301 31.4553 45.3301H42.298C42.5676 45.3301 42.8261 45.4372 43.0168 45.6279C43.2074 45.8185 43.3145 46.077 43.3145 46.3466C43.3145 46.6162 43.2074 46.8748 43.0168 47.0654C42.8261 47.256 42.5676 47.3631 42.298 47.3631ZM51.7854 47.3631C51.5843 47.3631 51.3878 47.3035 51.2206 47.1918C51.0535 47.0801 50.9232 46.9214 50.8462 46.7356C50.7693 46.5499 50.7492 46.3455 50.7884 46.1483C50.8276 45.9511 50.9244 45.77 51.0666 45.6279C51.2087 45.4857 51.3899 45.3889 51.587 45.3497C51.7842 45.3104 51.9886 45.3306 52.1744 45.4075C52.3601 45.4844 52.5189 45.6147 52.6306 45.7819C52.7422 45.9491 52.8019 46.1456 52.8019 46.3466C52.8019 46.6162 52.6948 46.8748 52.5041 47.0654C52.3135 47.256 52.055 47.3631 51.7854 47.3631ZM32.4718 39.9088V37.8757H57.5456V39.9088H32.4718Z" fill="url(#paint2_linear_1_3611)"/>
</g>
<defs>
<linearGradient id="paint0_linear_1_3611" x1="45" y1="-0.432277" x2="45" y2="89.9284" gradientUnits="userSpaceOnUse">
<stop stop-color="#FDFDFF"/>
<stop offset="1" stop-color="#DACDFA"/>
</linearGradient>
<linearGradient id="paint1_linear_1_3611" x1="48.0207" y1="24.9317" x2="43.984" y2="61.3632" gradientUnits="userSpaceOnUse">
<stop stop-color="#9918C1"/>
<stop offset="1" stop-color="#AC8BF3"/>
</linearGradient>
<linearGradient id="paint2_linear_1_3611" x1="45" y1="22.9295" x2="45" y2="67.0922" gradientUnits="userSpaceOnUse">
<stop stop-color="#C268F1"/>
<stop offset="1" stop-color="#472EEC"/>
</linearGradient>
<clipPath id="clip0_1_3611">
<rect width="90" height="90" fill="white"/>
</clipPath>
</defs>
</svg>
