<svg width="1440" height="1627" viewBox="0 0 1440 1627" fill="none" xmlns="http://www.w3.org/2000/svg">
<g opacity="0.3" filter="url(#filter0_f_1_2834)">
<rect x="1330" y="380.977" width="223" height="435" rx="111.5" fill="#E085FF"/>
</g>
<g opacity="0.3" filter="url(#filter1_f_1_2834)">
<rect x="84.2344" y="863.977" width="223" height="435" rx="111.5" transform="rotate(68.681 84.2344 863.977)" fill="#4EE0E0"/>
</g>
<path d="M1271.05 409.242C1256.11 404.634 1241.83 395.203 1231.29 383.684C1228.49 394.773 1219.33 403.375 1208.95 408.167C1198.56 412.959 1186.45 414.126 1175.08 415.293C1194.78 432.281 1218.87 444.169 1244.38 449.453C1257.5 440.268 1267.36 424.786 1271.05 409.211V409.242Z" fill="#EAE6FC"/>
<path d="M1356.6 815.809C1362.99 799.159 1364.31 780.513 1359 763.371C1373.63 764.293 1388.56 759.009 1399.38 749.148" fill="#D5D4FA"/>
<path d="M1440 750.898C1422.12 737.32 1402.2 725.832 1382.2 715.633C1386.84 750.622 1377.47 787.3 1356.6 815.777C1390.16 803.858 1420.46 780.665 1440 750.898Z" fill="#EAE6FC"/>
<path d="M91.0646 863.977C83.5359 877.677 71.4286 889.75 58 897.768C68.2943 902.713 74.901 913.465 77.4823 924.585C80.0635 935.706 78.8037 947.809 77.6359 959.175C98.2552 943.293 114.757 922.097 125.082 898.228C118.721 883.545 105.538 870.735 91.0339 863.977H91.0646Z" fill="#EAE6FC"/>
<path d="M193.902 328.207C191.874 358.557 151.772 378.494 124.516 370.292C142.799 385.099 163.91 398.154 185.605 407.309C205.579 387.925 216.058 358.097 211.326 330.695L193.902 328.238V328.207Z" fill="#EAE6FC"/>
<path d="M186.343 318.53C210.895 340.125 199.341 382.61 185.605 407.277C191.229 401.809 201.554 390.259 207.638 372.35C213.815 354.133 212.524 338.436 211.326 330.664C210.434 328.606 208.56 325.073 204.811 322.216C197.067 316.318 187.848 318.223 186.373 318.561L186.343 318.53Z" fill="#D5D4FA"/>
<path fill-rule="evenodd" clip-rule="evenodd" d="M1190.04 576.205C1183.38 578.133 1177.59 583.48 1178.26 592.58C1178.77 599.366 1178.82 599.408 1185.09 597.185C1190.38 595.302 1190.12 595.64 1189.53 591.503C1189.03 587.981 1189.73 585.847 1192.22 584.086C1197.75 580.209 1203.17 587.577 1203.53 590.089C1203.92 592.847 1202.16 594.58 1196.21 597.261C1191.34 599.46 1190.02 601.785 1190.57 607.058C1190.74 608.616 1190.74 609.872 1190.6 610.094C1189.97 611.138 1192.75 611.621 1195.54 610.972C1203.93 609 1203.82 609.091 1202.9 605.956C1202.32 604.004 1202.47 603.68 1204.4 602.777C1209.07 600.606 1211.45 597.403 1212.23 592.268C1214.29 579.011 1204.62 572.02 1190.04 576.205ZM1198.21 576.551C1203.86 576.575 1210.06 583.005 1209.89 588.731C1209.74 594.028 1207.38 597.605 1202.09 600.493C1199.53 601.888 1198.85 603.292 1199.25 606.299L1199.49 607.974C1196.53 608.697 1196.33 608.725 1194.4 609.301C1193.71 601.987 1193.12 601.319 1201.66 596.887C1207.01 594.115 1207.58 589.236 1203.13 584.292C1196 576.363 1181.68 584.33 1185.97 593.844C1186.16 594.294 1186.3 594.702 1186.25 594.758C1186.19 594.843 1183.09 596.012 1182.84 596.047C1182.82 596.051 1182.22 593.047 1181.92 592.033C1179.35 583.33 1188.01 576.545 1198.21 576.551ZM1194 614.056C1189.85 616.706 1190.45 622.148 1194.98 623.086C1204.02 624.966 1211.07 618.761 1205.43 613.911C1203.77 612.44 1196.35 612.541 1194 614.056ZM1200.51 614.636C1202.53 614.652 1204.47 615.982 1204.68 617.46C1205.07 620.193 1198.57 622.501 1195.84 620.603C1194.5 619.663 1193.37 614.573 1200.51 614.636Z" fill="#D5D4FA"/>
<defs>
<filter id="filter0_f_1_2834" x="950" y="0.976562" width="983" height="1195" filterUnits="userSpaceOnUse" color-interpolation-filters="sRGB">
<feFlood flood-opacity="0" result="BackgroundImageFix"/>
<feBlend mode="normal" in="SourceGraphic" in2="BackgroundImageFix" result="shape"/>
<feGaussianBlur stdDeviation="190" result="effect1_foregroundBlur_1_2834"/>
</filter>
<filter id="filter1_f_1_2834" x="-718.122" y="466.854" width="1280.55" height="1160.13" filterUnits="userSpaceOnUse" color-interpolation-filters="sRGB">
<feFlood flood-opacity="0" result="BackgroundImageFix"/>
<feBlend mode="normal" in="SourceGraphic" in2="BackgroundImageFix" result="shape"/>
<feGaussianBlur stdDeviation="215" result="effect1_foregroundBlur_1_2834"/>
</filter>
</defs>
</svg>
