<svg width="748" height="670" viewBox="0 0 748 670" fill="none" xmlns="http://www.w3.org/2000/svg">
<g filter="url(#filter0_f_1_2435)">
<circle cx="255" cy="255" r="255" transform="matrix(-1 0 0 1 582 72)" fill="#DBFF00" fill-opacity="0.18"/>
</g>
<g opacity="0.2" filter="url(#filter1_f_1_2435)">
<circle cx="135.5" cy="135.5" r="135.5" transform="matrix(-1 0 0 1 715 329)" fill="#75E9D4"/>
</g>
<rect x="13" y="73" width="495" height="445" rx="28" fill="white"/>
<path d="M39.3 128L44.28 114H47.62L52.62 128H49.8L48.82 125.24H43L42.04 128H39.3ZM43.78 122.86H48.06L46 116.96H45.84L43.78 122.86ZM57.8747 128.26C54.5747 128.26 52.3747 125.84 52.3747 122.74C52.3747 119.64 54.5747 117.22 57.8747 117.22C60.5747 117.22 62.6747 118.88 63.0747 121.36H60.4147C60.0947 120.32 59.1147 119.58 57.8947 119.58C56.1347 119.58 55.0147 120.98 55.0147 122.74C55.0147 124.56 56.1947 125.9 57.9147 125.9C59.1147 125.9 60.0947 125.22 60.3947 124.2H63.0547C62.6547 126.64 60.5747 128.26 57.8747 128.26ZM69.2184 128.26C65.9184 128.26 63.7184 125.84 63.7184 122.74C63.7184 119.64 65.9184 117.22 69.2184 117.22C71.9184 117.22 74.0184 118.88 74.4184 121.36H71.7584C71.4384 120.32 70.4584 119.58 69.2384 119.58C67.4784 119.58 66.3584 120.98 66.3584 122.74C66.3584 124.56 67.5384 125.9 69.2584 125.9C70.4584 125.9 71.4384 125.22 71.7384 124.2H74.3984C73.9984 126.64 71.9184 128.26 69.2184 128.26ZM80.6622 128.26C77.3622 128.26 75.0622 125.88 75.0622 122.74C75.0622 119.62 77.3422 117.22 80.6622 117.22C83.9622 117.22 86.2622 119.62 86.2622 122.74C86.2622 125.86 83.9422 128.26 80.6622 128.26ZM80.6622 125.9C82.3822 125.9 83.6222 124.58 83.6222 122.74C83.6222 120.92 82.3822 119.58 80.6622 119.58C78.9222 119.58 77.7022 120.92 77.7022 122.74C77.7022 124.6 78.9422 125.9 80.6622 125.9ZM91.2542 128.26C88.8942 128.26 87.4342 126.6 87.4342 124.36V117.48H90.0342V123.7C90.0342 124.98 90.8742 125.86 92.0742 125.86C93.3342 125.86 94.2342 124.84 94.2342 123.52V117.48H96.8342V128H94.3542V126.72H94.1942C93.7742 127.5 92.7342 128.26 91.2542 128.26ZM98.5855 128V117.48H101.065V118.76H101.205C101.625 117.98 102.665 117.22 104.165 117.22C106.525 117.22 107.965 118.88 107.965 121.12V128H105.365V121.8C105.365 120.52 104.545 119.66 103.345 119.66C102.085 119.66 101.185 120.66 101.185 121.98V128H98.5855ZM114.177 128C111.997 128 110.677 126.76 110.677 124.5V119.56H108.897V117.5H110.077C110.537 117.5 110.837 117.2 110.837 116.7V114.58H113.277V117.48H116.177V119.56H113.277V124.4C113.277 125.28 113.717 125.84 114.717 125.84H116.117V128H114.177ZM121.779 128V114H130.359V116.3H124.439V119.78H129.499V122.06H124.439V125.7H130.559V128H121.779ZM131.89 128V117.48H134.37V118.76H134.51C134.93 117.98 135.97 117.22 137.47 117.22C139.83 117.22 141.27 118.88 141.27 121.12V128H138.67V121.8C138.67 120.52 137.85 119.66 136.65 119.66C135.39 119.66 134.49 120.66 134.49 121.98V128H131.89ZM147.721 132.86C144.681 132.86 143.041 131.14 142.861 129.18H145.261C145.461 130.12 146.301 130.72 147.721 130.72C149.601 130.72 150.521 129.72 150.521 127.92V126.56H150.361C150.061 127.04 149.081 128.16 147.201 128.16C144.361 128.16 142.261 126.04 142.261 122.7C142.261 119.38 144.321 117.22 147.121 117.22C148.981 117.22 150.021 118.32 150.341 118.84H150.501V117.48H153.081V127.92C153.081 130.78 151.281 132.86 147.721 132.86ZM147.721 125.82C149.461 125.82 150.541 124.48 150.541 122.7C150.541 120.74 149.341 119.58 147.701 119.58C146.041 119.58 144.901 120.84 144.901 122.7C144.901 124.62 146.041 125.82 147.721 125.82ZM159.151 128.26C156.211 128.26 154.191 126.06 154.191 122.8C154.191 119.5 156.191 117.22 159.071 117.22C160.891 117.22 161.911 118.3 162.271 118.84H162.411V117.48H165.011V128H162.451V126.66H162.311C162.011 127.1 161.071 128.26 159.151 128.26ZM159.651 125.92C161.391 125.92 162.471 124.52 162.471 122.76C162.471 120.78 161.271 119.58 159.631 119.58C157.971 119.58 156.831 120.9 156.831 122.76C156.831 124.66 157.971 125.92 159.651 125.92ZM171.464 132.86C168.424 132.86 166.784 131.14 166.604 129.18H169.004C169.204 130.12 170.044 130.72 171.464 130.72C173.344 130.72 174.264 129.72 174.264 127.92V126.56H174.104C173.804 127.04 172.824 128.16 170.944 128.16C168.104 128.16 166.004 126.04 166.004 122.7C166.004 119.38 168.064 117.22 170.864 117.22C172.724 117.22 173.764 118.32 174.084 118.84H174.244V117.48H176.824V127.92C176.824 130.78 175.024 132.86 171.464 132.86ZM171.464 125.82C173.204 125.82 174.284 124.48 174.284 122.7C174.284 120.74 173.084 119.58 171.444 119.58C169.784 119.58 168.644 120.84 168.644 122.7C168.644 124.62 169.784 125.82 171.464 125.82ZM183.233 128.26C180.133 128.26 177.933 125.94 177.933 122.8C177.933 119.48 180.153 117.22 183.233 117.22C186.613 117.22 188.453 119.72 188.453 122.68V123.5H180.453C180.533 125.1 181.633 126.18 183.313 126.18C184.593 126.18 185.573 125.58 185.933 124.72H188.353C187.833 126.86 185.953 128.26 183.233 128.26ZM180.493 121.66H185.973C185.853 120.24 184.753 119.3 183.233 119.3C181.773 119.3 180.653 120.34 180.493 121.66ZM189.761 128V117.48H192.241V118.76H192.381C192.841 117.96 193.801 117.22 195.241 117.22C196.681 117.22 197.761 117.84 198.361 118.82H198.521C199.241 117.72 200.281 117.22 201.641 117.22C203.961 117.22 205.481 118.8 205.481 121.02V128H202.881V121.92C202.881 120.48 202.221 119.66 200.981 119.66C199.801 119.66 198.941 120.56 198.941 121.98V128H196.341V121.76C196.341 120.48 195.581 119.66 194.381 119.66C193.221 119.66 192.361 120.62 192.361 121.96V128H189.761ZM211.78 128.26C208.68 128.26 206.48 125.94 206.48 122.8C206.48 119.48 208.7 117.22 211.78 117.22C215.16 117.22 217 119.72 217 122.68V123.5H209C209.08 125.1 210.18 126.18 211.86 126.18C213.14 126.18 214.12 125.58 214.48 124.72H216.9C216.38 126.86 214.5 128.26 211.78 128.26ZM209.04 121.66H214.52C214.4 120.24 213.3 119.3 211.78 119.3C210.32 119.3 209.2 120.34 209.04 121.66ZM218.308 128V117.48H220.788V118.76H220.928C221.348 117.98 222.388 117.22 223.888 117.22C226.248 117.22 227.688 118.88 227.688 121.12V128H225.088V121.8C225.088 120.52 224.268 119.66 223.068 119.66C221.808 119.66 220.908 120.66 220.908 121.98V128H218.308ZM233.899 128C231.719 128 230.399 126.76 230.399 124.5V119.56H228.619V117.5H229.799C230.259 117.5 230.559 117.2 230.559 116.7V114.58H232.999V117.48H235.899V119.56H232.999V124.4C232.999 125.28 233.439 125.84 234.439 125.84H235.839V128H233.899Z" fill="#160E64"/>
<rect x="37" y="157" width="447" height="49" rx="14" fill="#F9F7FE"/>
<path opacity="0.3" d="M88.752 187.208C86.352 187.208 84.624 185.72 84.624 183.56H86.304C86.32 184.712 87.264 185.624 88.816 185.624C90.144 185.624 91.04 185.016 91.04 184.008C91.04 180.984 84.976 183.224 84.976 178.712C84.976 177.016 86.352 175.592 88.72 175.592C90.624 175.592 92.528 176.616 92.56 178.952H90.816C90.816 177.848 90.064 177.144 88.704 177.144C87.328 177.144 86.688 177.88 86.688 178.68C86.688 181.384 92.816 179.352 92.816 183.88C92.816 185.752 91.328 187.208 88.752 187.208ZM97.9436 187.208C95.4316 187.208 93.7356 185.352 93.7356 182.84C93.7356 180.184 95.5276 178.424 97.9116 178.424C100.52 178.424 102.008 180.344 102.008 182.728V183.352H95.4156C95.4796 184.808 96.4556 185.8 97.9916 185.8C99.0476 185.8 99.9596 185.288 100.296 184.472H101.928C101.496 186.088 100.008 187.208 97.9436 187.208ZM95.4476 182.056H100.344C100.232 180.648 99.2076 179.832 97.9116 179.832C96.6316 179.832 95.5756 180.744 95.4476 182.056ZM107.018 187.208C104.618 187.208 102.954 185.432 102.954 182.84C102.954 180.248 104.602 178.424 106.938 178.424C108.538 178.424 109.402 179.416 109.674 179.848H109.786V178.632H111.466V187H109.818V185.816H109.722C109.498 186.136 108.682 187.208 107.018 187.208ZM107.258 185.688C108.858 185.688 109.834 184.408 109.834 182.824C109.834 181.016 108.714 179.96 107.242 179.96C105.722 179.96 104.666 181.144 104.666 182.824C104.666 184.568 105.722 185.688 107.258 185.688ZM113.39 187V178.632H115.006V180.088H115.118C115.374 179.416 116.174 178.616 117.358 178.616H118.094V180.248H117.31C115.886 180.248 115.07 181.32 115.07 182.872V187H113.39ZM122.994 187.208C120.402 187.208 118.642 185.288 118.642 182.824C118.642 180.344 120.434 178.424 122.978 178.424C124.962 178.424 126.642 179.64 127.026 181.56H125.298C125.01 180.6 124.098 179.96 122.994 179.96C121.41 179.96 120.37 181.208 120.37 182.824C120.37 184.472 121.458 185.688 123.026 185.688C124.098 185.688 125.026 185.048 125.314 184.104H127.026C126.658 186.024 124.962 187.208 122.994 187.208ZM128.578 187V175H130.242V179.752H130.354C130.706 179.064 131.57 178.424 132.818 178.424C134.722 178.424 135.906 179.816 135.906 181.624V187H134.226V181.944C134.226 180.776 133.378 179.992 132.322 179.992C131.186 179.992 130.258 180.856 130.258 182.04V187H128.578Z" fill="#160E64"/>
<g opacity="0.3">
<path d="M62.5234 174.859C63.577 174.859 64.6097 175.153 65.5054 175.708C66.4011 176.263 67.1244 177.056 67.5939 177.999C68.0635 178.942 68.2607 179.998 68.1633 181.047C68.066 182.096 67.678 183.097 67.043 183.938L70.3023 187.198C70.4447 187.345 70.5234 187.542 70.5216 187.747C70.5198 187.952 70.4377 188.148 70.2928 188.293C70.148 188.438 69.952 188.52 69.7472 188.522C69.5424 188.523 69.345 188.445 69.1977 188.302L65.9375 185.043C65.2207 185.584 64.3854 185.948 63.5006 186.103C62.6158 186.258 61.7068 186.2 60.8486 185.934C59.9905 185.669 59.2079 185.203 58.5653 184.575C57.9228 183.947 57.4387 183.176 57.1532 182.324C56.8677 181.472 56.7888 180.565 56.9231 179.677C57.0574 178.788 57.4011 177.945 57.9257 177.216C58.4503 176.486 59.1408 175.892 59.9403 175.483C60.7397 175.073 61.6251 174.859 62.5234 174.859ZM62.5234 176.422C61.4356 176.422 60.3924 176.854 59.6232 177.623C58.854 178.392 58.4219 179.436 58.4219 180.523C58.4219 181.611 58.854 182.654 59.6232 183.424C60.3924 184.193 61.4356 184.625 62.5234 184.625C63.6112 184.625 64.6545 184.193 65.4237 183.424C66.1929 182.654 66.625 181.611 66.625 180.523C66.625 179.436 66.1929 178.392 65.4237 177.623C64.6545 176.854 63.6112 176.422 62.5234 176.422Z" fill="#160E64"/>
</g>
<path d="M455.998 181.891C456.669 181.891 457.321 182.107 457.858 182.507C458.395 182.908 458.789 183.471 458.981 184.113H460.887C461.123 184.113 461.349 184.206 461.516 184.373C461.683 184.54 461.776 184.766 461.776 185.002C461.776 185.237 461.683 185.464 461.516 185.63C461.349 185.797 461.123 185.891 460.887 185.891H458.981C458.789 186.532 458.395 187.095 457.858 187.495C457.32 187.895 456.668 188.111 455.998 188.111C455.329 188.111 454.677 187.895 454.139 187.495C453.602 187.095 453.208 186.532 453.016 185.891H443.11C442.874 185.891 442.648 185.797 442.481 185.63C442.314 185.464 442.221 185.237 442.221 185.002C442.221 184.766 442.314 184.54 442.481 184.373C442.648 184.206 442.874 184.113 443.11 184.113H453.016C453.208 183.471 453.602 182.908 454.139 182.507C454.676 182.107 455.328 181.891 455.998 181.891ZM455.998 183.446C455.586 183.446 455.19 183.61 454.899 183.902C454.607 184.194 454.443 184.589 454.443 185.002C454.443 185.414 454.607 185.81 454.899 186.102C455.19 186.393 455.586 186.557 455.998 186.557C456.411 186.557 456.807 186.393 457.098 186.102C457.39 185.81 457.554 185.414 457.554 185.002C457.554 184.589 457.39 184.194 457.098 183.902C456.807 183.61 456.411 183.446 455.998 183.446ZM448.887 173.891C449.557 173.891 450.21 174.107 450.747 174.507C451.284 174.908 451.678 175.471 451.87 176.113H460.887C461.123 176.113 461.349 176.206 461.516 176.373C461.683 176.54 461.776 176.766 461.776 177.002C461.776 177.237 461.683 177.464 461.516 177.63C461.349 177.797 461.123 177.891 460.887 177.891H451.87C451.678 178.532 451.284 179.095 450.746 179.495C450.209 179.895 449.557 180.111 448.887 180.111C448.218 180.111 447.566 179.895 447.028 179.495C446.491 179.095 446.097 178.532 445.905 177.891H443.11C442.874 177.891 442.648 177.797 442.481 177.63C442.314 177.464 442.221 177.237 442.221 177.002C442.221 176.766 442.314 176.54 442.481 176.373C442.648 176.206 442.874 176.113 443.11 176.113H445.905C446.097 175.471 446.491 174.908 447.028 174.507C447.565 174.107 448.217 173.891 448.887 173.891ZM448.887 175.446C448.475 175.446 448.079 175.61 447.787 175.902C447.496 176.194 447.332 176.589 447.332 177.002C447.332 177.414 447.496 177.81 447.787 178.102C448.079 178.393 448.475 178.557 448.887 178.557C449.3 178.557 449.696 178.393 449.987 178.102C450.279 177.81 450.443 177.414 450.443 177.002C450.443 176.589 450.279 176.194 449.987 175.902C449.696 175.61 449.3 175.446 448.887 175.446Z" fill="#5F53D4"/>
<line x1="73" y1="464.254" x2="488" y2="464.254" stroke="#E8E2E2" stroke-dasharray="2 2"/>
<line x1="73" y1="409.254" x2="488" y2="409.254" stroke="#E8E2E2" stroke-dasharray="2 2"/>
<line x1="73" y1="354.254" x2="488" y2="354.254" stroke="#E8E2E2" stroke-dasharray="2 2"/>
<line x1="73" y1="299.254" x2="488" y2="299.254" stroke="#E8E2E2" stroke-dasharray="2 2"/>
<line x1="73" y1="244.254" x2="488" y2="244.254" stroke="#E8E2E2" stroke-dasharray="2 2"/>
<line x1="94.4277" y1="244.754" x2="94.4277" y2="462.754" stroke="#E8E2E2" stroke-dasharray="2 2"/>
<line x1="125.566" y1="244.754" x2="125.566" y2="462.754" stroke="#E8E2E2" stroke-dasharray="2 2"/>
<line x1="156.705" y1="244.754" x2="156.705" y2="462.754" stroke="#E8E2E2" stroke-dasharray="2 2"/>
<line x1="187.842" y1="244.754" x2="187.842" y2="462.754" stroke="#E8E2E2" stroke-dasharray="2 2"/>
<line x1="218.98" y1="244.754" x2="218.98" y2="462.754" stroke="#E8E2E2" stroke-dasharray="2 2"/>
<line x1="250.117" y1="244.754" x2="250.117" y2="462.754" stroke="#E8E2E2" stroke-dasharray="2 2"/>
<line x1="281.256" y1="244.754" x2="281.256" y2="462.754" stroke="#E8E2E2" stroke-dasharray="2 2"/>
<line x1="312.393" y1="244.754" x2="312.393" y2="462.754" stroke="#E8E2E2" stroke-dasharray="2 2"/>
<line x1="343.531" y1="244.754" x2="343.531" y2="462.754" stroke="#E8E2E2" stroke-dasharray="2 2"/>
<line x1="374.668" y1="244.754" x2="374.668" y2="462.754" stroke="#E8E2E2" stroke-dasharray="2 2"/>
<line x1="405.807" y1="244.754" x2="405.807" y2="462.754" stroke="#E8E2E2" stroke-dasharray="2 2"/>
<line x1="436.943" y1="244.754" x2="436.943" y2="462.754" stroke="#E8E2E2" stroke-dasharray="2 2"/>
<line x1="468.082" y1="244.754" x2="468.082" y2="462.754" stroke="#E8E2E2" stroke-dasharray="2 2"/>
<path d="M487.171 309.349C459.695 317.532 449.704 288.024 438.88 276.54C437.44 275.033 435.961 273.673 434.449 272.467C414.734 256.539 392.261 261.619 374.635 285.216C365.225 297.818 354.632 316.351 343.967 343.609C337.649 359.759 331.75 372.069 326.491 381.444C307.97 414.391 279.531 412.373 262.373 376.677C248.392 347.582 241.074 307.606 238.146 288.135C236.523 277.157 233.561 267.128 229.519 258.923C207.388 213.998 199.945 299.502 199.945 299.502C199.945 299.502 189.121 374.961 152.487 347.073C115.853 319.185 74.2266 440.573 74.2266 440.573V467.148H280.706H487.185L487.171 309.349Z" fill="url(#paint0_linear_1_2435)"/>
<path d="M73.9395 442.355C73.9395 442.355 115.594 318.946 152.247 347.294C188.9 375.642 199.733 298.951 199.733 298.951C199.733 298.951 207.943 214.036 229.324 257.694C233.369 266.036 236.333 276.233 237.957 287.394C240.887 307.19 248.204 347.833 262.198 377.414C279.366 413.705 307.823 415.757 326.355 382.261C331.63 372.729 337.533 360.213 343.841 343.794C354.513 316.081 365.112 297.238 374.527 284.427C392.164 260.435 414.651 255.271 434.377 271.464C435.89 272.691 437.37 274.073 438.811 275.606C449.641 287.281 459.638 317.298 487.131 308.962" stroke="#1668E8" stroke-width="2" stroke-miterlimit="10"/>
<circle cx="199.207" cy="300" r="5" fill="white" stroke="#1668E8" stroke-width="2"/>
<path d="M42.42 245.93C42.42 247.3 41.42 248.12 40.06 248.12C40.05 248.12 40.05 248.12 40.04 248.12H40.03C38.51 248.11 37.47 247.09 37.47 244.79C37.47 242.64 38.43 241.45 40.05 241.45C41.25 241.45 42.09 242.14 42.4 243.38H41.5C41.27 242.61 40.74 242.21 40.02 242.21C38.9 242.21 38.29 243.12 38.29 244.76C38.66 244.13 39.33 243.78 40.12 243.78C41.49 243.78 42.42 244.58 42.42 245.93ZM40.04 247.36C40.93 247.36 41.52 246.86 41.52 245.96C41.52 245.07 40.91 244.54 40.04 244.54C39.14 244.54 38.55 245.06 38.55 245.97C38.55 246.84 39.15 247.36 40.04 247.36ZM43.3617 248V246.92H44.4417V247.5C44.4417 248.43 44.2917 249 43.9417 249.65H43.4417C43.6717 249.05 43.8017 248.62 43.8017 248H43.3617ZM47.9171 248.12C46.3271 248.12 45.4071 246.88 45.4071 244.79C45.4071 242.64 46.3471 241.45 47.9171 241.45C49.4971 241.45 50.4171 242.69 50.4171 244.79C50.4171 246.94 49.4771 248.12 47.9171 248.12ZM47.9171 247.36C48.9471 247.36 49.5171 246.44 49.5171 244.79C49.5171 243.15 48.9371 242.21 47.9171 242.21C46.8771 242.21 46.3071 243.12 46.3071 244.79C46.3071 246.41 46.8871 247.36 47.9171 247.36ZM53.6788 248.12C52.0888 248.12 51.1688 246.88 51.1688 244.79C51.1688 242.64 52.1088 241.45 53.6788 241.45C55.2588 241.45 56.1788 242.69 56.1788 244.79C56.1788 246.94 55.2388 248.12 53.6788 248.12ZM53.6788 247.36C54.7088 247.36 55.2788 246.44 55.2788 244.79C55.2788 243.15 54.6988 242.21 53.6788 242.21C52.6388 242.21 52.0688 243.12 52.0688 244.79C52.0688 246.41 52.6488 247.36 53.6788 247.36ZM59.4405 248.12C57.8505 248.12 56.9305 246.88 56.9305 244.79C56.9305 242.64 57.8705 241.45 59.4405 241.45C61.0205 241.45 61.9405 242.69 61.9405 244.79C61.9405 246.94 61.0005 248.12 59.4405 248.12ZM59.4405 247.36C60.4705 247.36 61.0405 246.44 61.0405 244.79C61.0405 243.15 60.4605 242.21 59.4405 242.21C58.4005 242.21 57.8305 243.12 57.8305 244.79C57.8305 246.41 58.4105 247.36 59.4405 247.36ZM42.36 289.86C42.36 291.18 41.54 292.12 39.97 292.12C38.53 292.12 37.67 291.4 37.5 290.19H38.38C38.49 290.91 39.01 291.36 39.96 291.36C40.97 291.36 41.48 290.8 41.48 289.87C41.48 289.12 41.12 288.34 39.96 288.34C39.2 288.34 38.78 288.66 38.54 289.02L37.75 288.94L37.95 285.57H42.06V286.27H38.65L38.54 288.09C38.91 287.79 39.37 287.58 40.03 287.58C41.73 287.58 42.36 288.66 42.36 289.86ZM43.3617 292V290.92H44.4417V291.5C44.4417 292.43 44.2917 293 43.9417 293.65H43.4417C43.6717 293.05 43.8017 292.62 43.8017 292H43.3617ZM47.9171 292.12C46.3271 292.12 45.4071 290.88 45.4071 288.79C45.4071 286.64 46.3471 285.45 47.9171 285.45C49.4971 285.45 50.4171 286.69 50.4171 288.79C50.4171 290.94 49.4771 292.12 47.9171 292.12ZM47.9171 291.36C48.9471 291.36 49.5171 290.44 49.5171 288.79C49.5171 287.15 48.9371 286.21 47.9171 286.21C46.8771 286.21 46.3071 287.12 46.3071 288.79C46.3071 290.41 46.8871 291.36 47.9171 291.36ZM53.6788 292.12C52.0888 292.12 51.1688 290.88 51.1688 288.79C51.1688 286.64 52.1088 285.45 53.6788 285.45C55.2588 285.45 56.1788 286.69 56.1788 288.79C56.1788 290.94 55.2388 292.12 53.6788 292.12ZM53.6788 291.36C54.7088 291.36 55.2788 290.44 55.2788 288.79C55.2788 287.15 54.6988 286.21 53.6788 286.21C52.6388 286.21 52.0688 287.12 52.0688 288.79C52.0688 290.41 52.6488 291.36 53.6788 291.36ZM59.4405 292.12C57.8505 292.12 56.9305 290.88 56.9305 288.79C56.9305 286.64 57.8705 285.45 59.4405 285.45C61.0205 285.45 61.9405 286.69 61.9405 288.79C61.9405 290.94 61.0005 292.12 59.4405 292.12ZM59.4405 291.36C60.4705 291.36 61.0405 290.44 61.0405 288.79C61.0405 287.15 60.4605 286.21 59.4405 286.21C58.4005 286.21 57.8305 287.12 57.8305 288.79C57.8305 290.41 58.4105 291.36 59.4405 291.36ZM41.47 336H40.57V334.49H37.44V333.69L40.66 329.57H41.47V333.79H42.41V334.49H41.47V336ZM38.27 333.79H40.57V330.76L38.27 333.79ZM43.3617 336V334.92H44.4417V335.5C44.4417 336.43 44.2917 337 43.9417 337.65H43.4417C43.6717 337.05 43.8017 336.62 43.8017 336H43.3617ZM47.9171 336.12C46.3271 336.12 45.4071 334.88 45.4071 332.79C45.4071 330.64 46.3471 329.45 47.9171 329.45C49.4971 329.45 50.4171 330.69 50.4171 332.79C50.4171 334.94 49.4771 336.12 47.9171 336.12ZM47.9171 335.36C48.9471 335.36 49.5171 334.44 49.5171 332.79C49.5171 331.15 48.9371 330.21 47.9171 330.21C46.8771 330.21 46.3071 331.12 46.3071 332.79C46.3071 334.41 46.8871 335.36 47.9171 335.36ZM53.6788 336.12C52.0888 336.12 51.1688 334.88 51.1688 332.79C51.1688 330.64 52.1088 329.45 53.6788 329.45C55.2588 329.45 56.1788 330.69 56.1788 332.79C56.1788 334.94 55.2388 336.12 53.6788 336.12ZM53.6788 335.36C54.7088 335.36 55.2788 334.44 55.2788 332.79C55.2788 331.15 54.6988 330.21 53.6788 330.21C52.6388 330.21 52.0688 331.12 52.0688 332.79C52.0688 334.41 52.6488 335.36 53.6788 335.36ZM59.4405 336.12C57.8505 336.12 56.9305 334.88 56.9305 332.79C56.9305 330.64 57.8705 329.45 59.4405 329.45C61.0205 329.45 61.9405 330.69 61.9405 332.79C61.9405 334.94 61.0005 336.12 59.4405 336.12ZM59.4405 335.36C60.4705 335.36 61.0405 334.44 61.0405 332.79C61.0405 331.15 60.4605 330.21 59.4405 330.21C58.4005 330.21 57.8305 331.12 57.8305 332.79C57.8305 334.41 58.4105 335.36 59.4405 335.36ZM42.32 378.21C42.32 379.3 41.5 380.12 39.91 380.12C38.48 380.12 37.59 379.38 37.41 378.15H38.31C38.43 378.89 38.93 379.36 39.9 379.36C40.9 379.36 41.42 378.92 41.42 378.17C41.42 377.62 41.13 377.03 39.62 377.03H39.36V376.33H39.57C41 376.33 41.23 375.74 41.23 375.29C41.23 374.61 40.78 374.21 39.92 374.21C39.02 374.21 38.56 374.66 38.44 375.4H37.55C37.72 374.19 38.55 373.45 39.93 373.45C41.38 373.45 42.13 374.23 42.13 375.28C42.13 375.88 41.87 376.35 41.2 376.63C42.03 376.94 42.32 377.52 42.32 378.21ZM43.3617 380V378.92H44.4417V379.5C44.4417 380.43 44.2917 381 43.9417 381.65H43.4417C43.6717 381.05 43.8017 380.62 43.8017 380H43.3617ZM47.9171 380.12C46.3271 380.12 45.4071 378.88 45.4071 376.79C45.4071 374.64 46.3471 373.45 47.9171 373.45C49.4971 373.45 50.4171 374.69 50.4171 376.79C50.4171 378.94 49.4771 380.12 47.9171 380.12ZM47.9171 379.36C48.9471 379.36 49.5171 378.44 49.5171 376.79C49.5171 375.15 48.9371 374.21 47.9171 374.21C46.8771 374.21 46.3071 375.12 46.3071 376.79C46.3071 378.41 46.8871 379.36 47.9171 379.36ZM53.6788 380.12C52.0888 380.12 51.1688 378.88 51.1688 376.79C51.1688 374.64 52.1088 373.45 53.6788 373.45C55.2588 373.45 56.1788 374.69 56.1788 376.79C56.1788 378.94 55.2388 380.12 53.6788 380.12ZM53.6788 379.36C54.7088 379.36 55.2788 378.44 55.2788 376.79C55.2788 375.15 54.6988 374.21 53.6788 374.21C52.6388 374.21 52.0688 375.12 52.0688 376.79C52.0688 378.41 52.6488 379.36 53.6788 379.36ZM59.4405 380.12C57.8505 380.12 56.9305 378.88 56.9305 376.79C56.9305 374.64 57.8705 373.45 59.4405 373.45C61.0205 373.45 61.9405 374.69 61.9405 376.79C61.9405 378.94 61.0005 380.12 59.4405 380.12ZM59.4405 379.36C60.4705 379.36 61.0405 378.44 61.0405 376.79C61.0405 375.15 60.4605 374.21 59.4405 374.21C58.4005 374.21 57.8305 375.12 57.8305 376.79C57.8305 378.41 58.4105 379.36 59.4405 379.36ZM37.62 424V423.76C37.62 420.87 41.18 421.11 41.18 419.38C41.18 418.65 40.75 418.21 39.95 418.21C39.07 418.21 38.64 418.66 38.52 419.4H37.61C37.78 418.19 38.59 417.45 39.96 417.45C41.36 417.45 42.08 418.28 42.08 419.37C42.08 421.45 38.9 421.43 38.53 423.3H42.15V424H37.62ZM43.3617 424V422.92H44.4417V423.5C44.4417 424.43 44.2917 425 43.9417 425.65H43.4417C43.6717 425.05 43.8017 424.62 43.8017 424H43.3617ZM47.9171 424.12C46.3271 424.12 45.4071 422.88 45.4071 420.79C45.4071 418.64 46.3471 417.45 47.9171 417.45C49.4971 417.45 50.4171 418.69 50.4171 420.79C50.4171 422.94 49.4771 424.12 47.9171 424.12ZM47.9171 423.36C48.9471 423.36 49.5171 422.44 49.5171 420.79C49.5171 419.15 48.9371 418.21 47.9171 418.21C46.8771 418.21 46.3071 419.12 46.3071 420.79C46.3071 422.41 46.8871 423.36 47.9171 423.36ZM53.6788 424.12C52.0888 424.12 51.1688 422.88 51.1688 420.79C51.1688 418.64 52.1088 417.45 53.6788 417.45C55.2588 417.45 56.1788 418.69 56.1788 420.79C56.1788 422.94 55.2388 424.12 53.6788 424.12ZM53.6788 423.36C54.7088 423.36 55.2788 422.44 55.2788 420.79C55.2788 419.15 54.6988 418.21 53.6788 418.21C52.6388 418.21 52.0688 419.12 52.0688 420.79C52.0688 422.41 52.6488 423.36 53.6788 423.36ZM59.4405 424.12C57.8505 424.12 56.9305 422.88 56.9305 420.79C56.9305 418.64 57.8705 417.45 59.4405 417.45C61.0205 417.45 61.9405 418.69 61.9405 420.79C61.9405 422.94 61.0005 424.12 59.4405 424.12ZM59.4405 423.36C60.4705 423.36 61.0405 422.44 61.0405 420.79C61.0405 419.15 60.4605 418.21 59.4405 418.21C58.4005 418.21 57.8305 419.12 57.8305 420.79C57.8305 422.41 58.4105 423.36 59.4405 423.36ZM38.38 468V467.3H39.61V462.8H38.38V462.1H39.11C39.63 462.1 39.76 461.98 39.76 461.69V461.57H40.53V467.3H41.76V468H38.38ZM43.3617 468V466.92H44.4417V467.5C44.4417 468.43 44.2917 469 43.9417 469.65H43.4417C43.6717 469.05 43.8017 468.62 43.8017 468H43.3617ZM47.9171 468.12C46.3271 468.12 45.4071 466.88 45.4071 464.79C45.4071 462.64 46.3471 461.45 47.9171 461.45C49.4971 461.45 50.4171 462.69 50.4171 464.79C50.4171 466.94 49.4771 468.12 47.9171 468.12ZM47.9171 467.36C48.9471 467.36 49.5171 466.44 49.5171 464.79C49.5171 463.15 48.9371 462.21 47.9171 462.21C46.8771 462.21 46.3071 463.12 46.3071 464.79C46.3071 466.41 46.8871 467.36 47.9171 467.36ZM53.6788 468.12C52.0888 468.12 51.1688 466.88 51.1688 464.79C51.1688 462.64 52.1088 461.45 53.6788 461.45C55.2588 461.45 56.1788 462.69 56.1788 464.79C56.1788 466.94 55.2388 468.12 53.6788 468.12ZM53.6788 467.36C54.7088 467.36 55.2788 466.44 55.2788 464.79C55.2788 463.15 54.6988 462.21 53.6788 462.21C52.6388 462.21 52.0688 463.12 52.0688 464.79C52.0688 466.41 52.6488 467.36 53.6788 467.36ZM59.4405 468.12C57.8505 468.12 56.9305 466.88 56.9305 464.79C56.9305 462.64 57.8705 461.45 59.4405 461.45C61.0205 461.45 61.9405 462.69 61.9405 464.79C61.9405 466.94 61.0005 468.12 59.4405 468.12ZM59.4405 467.36C60.4705 467.36 61.0405 466.44 61.0405 464.79C61.0405 463.15 60.4605 462.21 59.4405 462.21C58.4005 462.21 57.8305 463.12 57.8305 464.79C57.8305 466.41 58.4105 467.36 59.4405 467.36Z" fill="#160E64" fill-opacity="0.5"/>
<path d="M73.38 485V484.3H74.61V479.8H73.38V479.1H74.11C74.63 479.1 74.76 478.98 74.76 478.69V478.57H75.53V484.3H76.76V485H73.38ZM78.3817 485V484.76C78.3817 481.87 81.9417 482.11 81.9417 480.38C81.9417 479.65 81.5117 479.21 80.7117 479.21C79.8317 479.21 79.4017 479.66 79.2817 480.4H78.3717C78.5417 479.19 79.3517 478.45 80.7217 478.45C82.1217 478.45 82.8417 479.28 82.8417 480.37C82.8417 482.45 79.6617 482.43 79.2917 484.3H82.9117V485H78.3817ZM84.1234 481.25V480.16H85.2034V481.25H84.1234ZM84.1234 485V483.92H85.2034V485H84.1234ZM88.6788 485.12C87.0888 485.12 86.1688 483.88 86.1688 481.79C86.1688 479.64 87.1088 478.45 88.6788 478.45C90.2588 478.45 91.1788 479.69 91.1788 481.79C91.1788 483.94 90.2388 485.12 88.6788 485.12ZM88.6788 484.36C89.7088 484.36 90.2788 483.44 90.2788 481.79C90.2788 480.15 89.6988 479.21 88.6788 479.21C87.6388 479.21 87.0688 480.12 87.0688 481.79C87.0688 483.41 87.6488 484.36 88.6788 484.36ZM94.4405 485.12C92.8505 485.12 91.9305 483.88 91.9305 481.79C91.9305 479.64 92.8705 478.45 94.4405 478.45C96.0205 478.45 96.9405 479.69 96.9405 481.79C96.9405 483.94 96.0005 485.12 94.4405 485.12ZM94.4405 484.36C95.4705 484.36 96.0405 483.44 96.0405 481.79C96.0405 480.15 95.4605 479.21 94.4405 479.21C93.4005 479.21 92.8305 480.12 92.8305 481.79C92.8305 483.41 93.4105 484.36 94.4405 484.36ZM102.972 485L102.332 483.37H99.0723L98.4323 485H97.5223L100.192 478.2H101.252L103.932 485H102.972ZM100.502 479.69L99.3523 482.63H102.052L100.902 479.69L100.702 479.09L100.502 479.69ZM104.909 485V478.2H106.179L108.269 483.19L108.469 483.8L108.679 483.19L110.759 478.2H111.989V485H111.069V479.31L110.589 480.65L108.769 485H108.119L106.299 480.64L105.829 479.34V485H104.909ZM131.667 485.12C130.077 485.12 129.157 483.88 129.157 481.79C129.157 479.64 130.097 478.45 131.667 478.45C133.247 478.45 134.167 479.69 134.167 481.79C134.167 483.94 133.227 485.12 131.667 485.12ZM131.667 484.36C132.697 484.36 133.267 483.44 133.267 481.79C133.267 480.15 132.687 479.21 131.667 479.21C130.627 479.21 130.057 480.12 130.057 481.79C130.057 483.41 130.637 484.36 131.667 484.36ZM135.929 485V484.3H137.159V479.8H135.929V479.1H136.659C137.179 479.1 137.309 478.98 137.309 478.69V478.57H138.079V484.3H139.309V485H135.929ZM140.911 481.25V480.16H141.991V481.25H140.911ZM140.911 485V483.92H141.991V485H140.911ZM145.466 485.12C143.876 485.12 142.956 483.88 142.956 481.79C142.956 479.64 143.896 478.45 145.466 478.45C147.046 478.45 147.966 479.69 147.966 481.79C147.966 483.94 147.026 485.12 145.466 485.12ZM145.466 484.36C146.496 484.36 147.066 483.44 147.066 481.79C147.066 480.15 146.486 479.21 145.466 479.21C144.426 479.21 143.856 480.12 143.856 481.79C143.856 483.41 144.436 484.36 145.466 484.36ZM151.228 485.12C149.638 485.12 148.718 483.88 148.718 481.79C148.718 479.64 149.658 478.45 151.228 478.45C152.808 478.45 153.728 479.69 153.728 481.79C153.728 483.94 152.788 485.12 151.228 485.12ZM151.228 484.36C152.258 484.36 152.828 483.44 152.828 481.79C152.828 480.15 152.248 479.21 151.228 479.21C150.188 479.21 149.618 480.12 149.618 481.79C149.618 483.41 150.198 484.36 151.228 484.36ZM159.759 485L159.119 483.37H155.859L155.219 485H154.309L156.979 478.2H158.039L160.719 485H159.759ZM157.289 479.69L156.139 482.63H158.839L157.689 479.69L157.489 479.09L157.289 479.69ZM161.696 485V478.2H162.966L165.056 483.19L165.256 483.8L165.466 483.19L167.546 478.2H168.776V485H167.856V479.31L167.376 480.65L165.556 485H164.906L163.086 480.64L162.616 479.34V485H161.696ZM186.452 485.12C184.862 485.12 183.942 483.88 183.942 481.79C183.942 479.64 184.882 478.45 186.452 478.45C188.032 478.45 188.952 479.69 188.952 481.79C188.952 483.94 188.012 485.12 186.452 485.12ZM186.452 484.36C187.482 484.36 188.052 483.44 188.052 481.79C188.052 480.15 187.472 479.21 186.452 479.21C185.412 479.21 184.842 480.12 184.842 481.79C184.842 483.41 185.422 484.36 186.452 484.36ZM189.954 485V484.76C189.954 481.87 193.514 482.11 193.514 480.38C193.514 479.65 193.084 479.21 192.284 479.21C191.404 479.21 190.974 479.66 190.854 480.4H189.944C190.114 479.19 190.924 478.45 192.294 478.45C193.694 478.45 194.414 479.28 194.414 480.37C194.414 482.45 191.234 482.43 190.864 484.3H194.484V485H189.954ZM195.696 481.25V480.16H196.776V481.25H195.696ZM195.696 485V483.92H196.776V485H195.696ZM200.251 485.12C198.661 485.12 197.741 483.88 197.741 481.79C197.741 479.64 198.681 478.45 200.251 478.45C201.831 478.45 202.751 479.69 202.751 481.79C202.751 483.94 201.811 485.12 200.251 485.12ZM200.251 484.36C201.281 484.36 201.851 483.44 201.851 481.79C201.851 480.15 201.271 479.21 200.251 479.21C199.211 479.21 198.641 480.12 198.641 481.79C198.641 483.41 199.221 484.36 200.251 484.36ZM206.013 485.12C204.423 485.12 203.503 483.88 203.503 481.79C203.503 479.64 204.443 478.45 206.013 478.45C207.593 478.45 208.513 479.69 208.513 481.79C208.513 483.94 207.573 485.12 206.013 485.12ZM206.013 484.36C207.043 484.36 207.613 483.44 207.613 481.79C207.613 480.15 207.033 479.21 206.013 479.21C204.973 479.21 204.403 480.12 204.403 481.79C204.403 483.41 204.983 484.36 206.013 484.36ZM214.545 485L213.905 483.37H210.645L210.005 485H209.095L211.765 478.2H212.825L215.505 485H214.545ZM212.075 479.69L210.925 482.63H213.625L212.475 479.69L212.275 479.09L212.075 479.69ZM216.481 485V478.2H217.751L219.841 483.19L220.041 483.8L220.251 483.19L222.331 478.2H223.561V485H222.641V479.31L222.161 480.65L220.341 485H219.691L217.871 480.64L217.401 479.34V485H216.481ZM239.235 485.12C237.645 485.12 236.725 483.88 236.725 481.79C236.725 479.64 237.665 478.45 239.235 478.45C240.815 478.45 241.735 479.69 241.735 481.79C241.735 483.94 240.795 485.12 239.235 485.12ZM239.235 484.36C240.265 484.36 240.835 483.44 240.835 481.79C240.835 480.15 240.255 479.21 239.235 479.21C238.195 479.21 237.625 480.12 237.625 481.79C237.625 483.41 238.205 484.36 239.235 484.36ZM247.437 483.21C247.437 484.3 246.617 485.12 245.027 485.12C243.597 485.12 242.707 484.38 242.527 483.15H243.427C243.547 483.89 244.047 484.36 245.017 484.36C246.017 484.36 246.537 483.92 246.537 483.17C246.537 482.62 246.247 482.03 244.737 482.03H244.477V481.33H244.687C246.117 481.33 246.347 480.74 246.347 480.29C246.347 479.61 245.897 479.21 245.037 479.21C244.137 479.21 243.677 479.66 243.557 480.4H242.667C242.837 479.19 243.667 478.45 245.047 478.45C246.497 478.45 247.247 479.23 247.247 480.28C247.247 480.88 246.987 481.35 246.317 481.63C247.147 481.94 247.437 482.52 247.437 483.21ZM248.479 481.25V480.16H249.559V481.25H248.479ZM248.479 485V483.92H249.559V485H248.479ZM253.034 485.12C251.444 485.12 250.524 483.88 250.524 481.79C250.524 479.64 251.464 478.45 253.034 478.45C254.614 478.45 255.534 479.69 255.534 481.79C255.534 483.94 254.594 485.12 253.034 485.12ZM253.034 484.36C254.064 484.36 254.634 483.44 254.634 481.79C254.634 480.15 254.054 479.21 253.034 479.21C251.994 479.21 251.424 480.12 251.424 481.79C251.424 483.41 252.004 484.36 253.034 484.36ZM258.796 485.12C257.206 485.12 256.286 483.88 256.286 481.79C256.286 479.64 257.226 478.45 258.796 478.45C260.376 478.45 261.296 479.69 261.296 481.79C261.296 483.94 260.356 485.12 258.796 485.12ZM258.796 484.36C259.826 484.36 260.396 483.44 260.396 481.79C260.396 480.15 259.816 479.21 258.796 479.21C257.756 479.21 257.186 480.12 257.186 481.79C257.186 483.41 257.766 484.36 258.796 484.36ZM267.328 485L266.688 483.37H263.428L262.788 485H261.878L264.548 478.2H265.608L268.288 485H267.328ZM264.858 479.69L263.708 482.63H266.408L265.258 479.69L265.058 479.09L264.858 479.69ZM269.264 485V478.2H270.534L272.624 483.19L272.824 483.8L273.034 483.19L275.114 478.2H276.344V485H275.424V479.31L274.944 480.65L273.124 485H272.474L270.654 480.64L270.184 479.34V485H269.264ZM296.023 485.12C294.433 485.12 293.513 483.88 293.513 481.79C293.513 479.64 294.453 478.45 296.023 478.45C297.603 478.45 298.523 479.69 298.523 481.79C298.523 483.94 297.583 485.12 296.023 485.12ZM296.023 484.36C297.053 484.36 297.623 483.44 297.623 481.79C297.623 480.15 297.043 479.21 296.023 479.21C294.983 479.21 294.413 480.12 294.413 481.79C294.413 483.41 294.993 484.36 296.023 484.36ZM303.374 485H302.474V483.49H299.344V482.69L302.564 478.57H303.374V482.79H304.314V483.49H303.374V485ZM300.174 482.79H302.474V479.76L300.174 482.79ZM305.266 481.25V480.16H306.346V481.25H305.266ZM305.266 485V483.92H306.346V485H305.266ZM309.821 485.12C308.231 485.12 307.311 483.88 307.311 481.79C307.311 479.64 308.251 478.45 309.821 478.45C311.401 478.45 312.321 479.69 312.321 481.79C312.321 483.94 311.381 485.12 309.821 485.12ZM309.821 484.36C310.851 484.36 311.421 483.44 311.421 481.79C311.421 480.15 310.841 479.21 309.821 479.21C308.781 479.21 308.211 480.12 308.211 481.79C308.211 483.41 308.791 484.36 309.821 484.36ZM315.583 485.12C313.993 485.12 313.073 483.88 313.073 481.79C313.073 479.64 314.013 478.45 315.583 478.45C317.163 478.45 318.083 479.69 318.083 481.79C318.083 483.94 317.143 485.12 315.583 485.12ZM315.583 484.36C316.613 484.36 317.183 483.44 317.183 481.79C317.183 480.15 316.603 479.21 315.583 479.21C314.543 479.21 313.973 480.12 313.973 481.79C313.973 483.41 314.553 484.36 315.583 484.36ZM324.115 485L323.475 483.37H320.215L319.575 485H318.665L321.335 478.2H322.395L325.075 485H324.115ZM321.645 479.69L320.495 482.63H323.195L322.045 479.69L321.845 479.09L321.645 479.69ZM326.051 485V478.2H327.321L329.411 483.19L329.611 483.8L329.821 483.19L331.901 478.2H333.131V485H332.211V479.31L331.731 480.65L329.911 485H329.261L327.441 480.64L326.971 479.34V485H326.051ZM346.804 485.12C345.214 485.12 344.294 483.88 344.294 481.79C344.294 479.64 345.234 478.45 346.804 478.45C348.384 478.45 349.304 479.69 349.304 481.79C349.304 483.94 348.364 485.12 346.804 485.12ZM346.804 484.36C347.834 484.36 348.404 483.44 348.404 481.79C348.404 480.15 347.824 479.21 346.804 479.21C345.764 479.21 345.194 480.12 345.194 481.79C345.194 483.41 345.774 484.36 346.804 484.36ZM355.046 482.86C355.046 484.18 354.226 485.12 352.656 485.12C351.216 485.12 350.356 484.4 350.186 483.19H351.066C351.176 483.91 351.696 484.36 352.646 484.36C353.656 484.36 354.166 483.8 354.166 482.87C354.166 482.12 353.806 481.34 352.646 481.34C351.886 481.34 351.466 481.66 351.226 482.02L350.436 481.94L350.636 478.57H354.746V479.27H351.336L351.226 481.09C351.596 480.79 352.056 480.58 352.716 480.58C354.416 480.58 355.046 481.66 355.046 482.86ZM356.047 481.25V480.16H357.127V481.25H356.047ZM356.047 485V483.92H357.127V485H356.047ZM360.603 485.12C359.013 485.12 358.093 483.88 358.093 481.79C358.093 479.64 359.033 478.45 360.603 478.45C362.183 478.45 363.103 479.69 363.103 481.79C363.103 483.94 362.163 485.12 360.603 485.12ZM360.603 484.36C361.633 484.36 362.203 483.44 362.203 481.79C362.203 480.15 361.623 479.21 360.603 479.21C359.563 479.21 358.993 480.12 358.993 481.79C358.993 483.41 359.573 484.36 360.603 484.36ZM366.364 485.12C364.774 485.12 363.854 483.88 363.854 481.79C363.854 479.64 364.794 478.45 366.364 478.45C367.944 478.45 368.864 479.69 368.864 481.79C368.864 483.94 367.924 485.12 366.364 485.12ZM366.364 484.36C367.394 484.36 367.964 483.44 367.964 481.79C367.964 480.15 367.384 479.21 366.364 479.21C365.324 479.21 364.754 480.12 364.754 481.79C364.754 483.41 365.334 484.36 366.364 484.36ZM374.896 485L374.256 483.37H370.996L370.356 485H369.446L372.116 478.2H373.176L375.856 485H374.896ZM372.426 479.69L371.276 482.63H373.976L372.826 479.69L372.626 479.09L372.426 479.69ZM376.833 485V478.2H378.103L380.193 483.19L380.393 483.8L380.603 483.19L382.683 478.2H383.913V485H382.993V479.31L382.513 480.65L380.693 485H380.043L378.223 480.64L377.753 479.34V485H376.833ZM399.587 485.12C397.997 485.12 397.077 483.88 397.077 481.79C397.077 479.64 398.017 478.45 399.587 478.45C401.167 478.45 402.087 479.69 402.087 481.79C402.087 483.94 401.147 485.12 399.587 485.12ZM399.587 484.36C400.617 484.36 401.187 483.44 401.187 481.79C401.187 480.15 400.607 479.21 399.587 479.21C398.547 479.21 397.977 480.12 397.977 481.79C397.977 483.41 398.557 484.36 399.587 484.36ZM407.889 482.93C407.889 484.3 406.889 485.12 405.529 485.12C405.519 485.12 405.519 485.12 405.509 485.12H405.499C403.979 485.11 402.939 484.09 402.939 481.79C402.939 479.64 403.899 478.45 405.519 478.45C406.719 478.45 407.559 479.14 407.869 480.38H406.969C406.739 479.61 406.209 479.21 405.489 479.21C404.369 479.21 403.759 480.12 403.759 481.76C404.129 481.13 404.799 480.78 405.589 480.78C406.959 480.78 407.889 481.58 407.889 482.93ZM405.509 484.36C406.399 484.36 406.989 483.86 406.989 482.96C406.989 482.07 406.379 481.54 405.509 481.54C404.609 481.54 404.019 482.06 404.019 482.97C404.019 483.84 404.619 484.36 405.509 484.36ZM408.83 481.25V480.16H409.91V481.25H408.83ZM408.83 485V483.92H409.91V485H408.83ZM413.386 485.12C411.796 485.12 410.876 483.88 410.876 481.79C410.876 479.64 411.816 478.45 413.386 478.45C414.966 478.45 415.886 479.69 415.886 481.79C415.886 483.94 414.946 485.12 413.386 485.12ZM413.386 484.36C414.416 484.36 414.986 483.44 414.986 481.79C414.986 480.15 414.406 479.21 413.386 479.21C412.346 479.21 411.776 480.12 411.776 481.79C411.776 483.41 412.356 484.36 413.386 484.36ZM419.148 485.12C417.558 485.12 416.638 483.88 416.638 481.79C416.638 479.64 417.578 478.45 419.148 478.45C420.728 478.45 421.648 479.69 421.648 481.79C421.648 483.94 420.708 485.12 419.148 485.12ZM419.148 484.36C420.178 484.36 420.748 483.44 420.748 481.79C420.748 480.15 420.168 479.21 419.148 479.21C418.108 479.21 417.538 480.12 417.538 481.79C417.538 483.41 418.118 484.36 419.148 484.36ZM427.679 485L427.039 483.37H423.779L423.139 485H422.229L424.899 478.2H425.959L428.639 485H427.679ZM425.209 479.69L424.059 482.63H426.759L425.609 479.69L425.409 479.09L425.209 479.69ZM429.616 485V478.2H430.886L432.976 483.19L433.176 483.8L433.386 483.19L435.466 478.2H436.696V485H435.776V479.31L435.296 480.65L433.476 485H432.826L431.006 480.64L430.536 479.34V485H429.616ZM452.37 485.12C450.78 485.12 449.86 483.88 449.86 481.79C449.86 479.64 450.8 478.45 452.37 478.45C453.95 478.45 454.87 479.69 454.87 481.79C454.87 483.94 453.93 485.12 452.37 485.12ZM452.37 484.36C453.4 484.36 453.97 483.44 453.97 481.79C453.97 480.15 453.39 479.21 452.37 479.21C451.33 479.21 450.76 480.12 450.76 481.79C450.76 483.41 451.34 484.36 452.37 484.36ZM457.932 485H457.012C457.352 482.87 458.182 480.96 459.412 479.27H455.822V478.57H460.362V479.13C459.012 480.98 458.202 482.95 457.932 485ZM461.614 481.25V480.16H462.694V481.25H461.614ZM461.614 485V483.92H462.694V485H461.614ZM466.169 485.12C464.579 485.12 463.659 483.88 463.659 481.79C463.659 479.64 464.599 478.45 466.169 478.45C467.749 478.45 468.669 479.69 468.669 481.79C468.669 483.94 467.729 485.12 466.169 485.12ZM466.169 484.36C467.199 484.36 467.769 483.44 467.769 481.79C467.769 480.15 467.189 479.21 466.169 479.21C465.129 479.21 464.559 480.12 464.559 481.79C464.559 483.41 465.139 484.36 466.169 484.36ZM471.931 485.12C470.341 485.12 469.421 483.88 469.421 481.79C469.421 479.64 470.361 478.45 471.931 478.45C473.511 478.45 474.431 479.69 474.431 481.79C474.431 483.94 473.491 485.12 471.931 485.12ZM471.931 484.36C472.961 484.36 473.531 483.44 473.531 481.79C473.531 480.15 472.951 479.21 471.931 479.21C470.891 479.21 470.321 480.12 470.321 481.79C470.321 483.41 470.901 484.36 471.931 484.36ZM480.462 485L479.823 483.37H476.563L475.923 485H475.013L477.683 478.2H478.743L481.423 485H480.462ZM477.993 479.69L476.843 482.63H479.543L478.393 479.69L478.193 479.09L477.993 479.69ZM482.399 485V478.2H483.669L485.759 483.19L485.959 483.8L486.169 483.19L488.249 478.2H489.479V485H488.559V479.31L488.079 480.65L486.259 485H485.609L483.789 480.64L483.319 479.34V485H482.399Z" fill="#160E64" fill-opacity="0.5"/>
<g filter="url(#filter2_d_1_2435)">
<rect x="392" y="469" width="192" height="72" rx="36" fill="white"/>
</g>
<circle cx="428" cy="505" r="30" fill="#4DAA75"/>
<path d="M414.89 513.872C414.905 511.151 416.894 508.844 419.583 508.43L419.825 508.392C421.979 508.061 424.171 508.073 426.32 508.428L426.562 508.467C429.247 508.911 431.211 511.239 431.196 513.96C431.19 515.136 430.232 516.084 429.056 516.077L417.008 516.012C415.832 516.006 414.884 515.048 414.89 513.872Z" stroke="white" stroke-width="2"/>
<path d="M427.879 499.085C427.865 501.711 425.724 503.829 423.098 503.815C420.471 503.801 418.353 501.66 418.367 499.033C418.382 496.407 420.522 494.289 423.149 494.303C425.776 494.317 427.894 496.458 427.879 499.085Z" stroke="white" stroke-width="2"/>
<path d="M431.251 503.859C433.878 503.873 436.019 501.755 436.033 499.128C436.047 496.502 433.929 494.361 431.303 494.347M434.433 516.106L437.209 516.121C438.385 516.127 439.344 515.179 439.35 514.003C439.365 511.283 437.4 508.954 434.716 508.511V508.511C434.555 508.484 434.392 508.471 434.229 508.47C433.794 508.467 433.659 508.467 432.913 508.463" stroke="white" stroke-width="2" stroke-linecap="round"/>
<path d="M480.209 489.455V504H477.574V492.018H477.489L474.087 494.192V491.777L477.702 489.455H480.209ZM488.572 504.199C487.517 504.199 486.579 504.021 485.76 503.666C484.946 503.311 484.306 502.826 483.842 502.21C483.383 501.59 483.156 500.887 483.161 500.101C483.156 499.49 483.288 498.929 483.558 498.418C483.828 497.906 484.193 497.48 484.652 497.139C485.116 496.794 485.632 496.573 486.2 496.479V496.379C485.452 496.214 484.846 495.832 484.382 495.236C483.923 494.634 483.696 493.941 483.7 493.155C483.696 492.407 483.904 491.739 484.325 491.152C484.747 490.565 485.324 490.103 486.058 489.767C486.792 489.426 487.63 489.256 488.572 489.256C489.505 489.256 490.336 489.426 491.065 489.767C491.799 490.103 492.377 490.565 492.798 491.152C493.224 491.739 493.438 492.407 493.438 493.155C493.438 493.941 493.203 494.634 492.734 495.236C492.27 495.832 491.671 496.214 490.938 496.379V496.479C491.506 496.573 492.017 496.794 492.472 497.139C492.931 497.48 493.295 497.906 493.565 498.418C493.84 498.929 493.977 499.49 493.977 500.101C493.977 500.887 493.745 501.59 493.281 502.21C492.817 502.826 492.178 503.311 491.364 503.666C490.554 504.021 489.624 504.199 488.572 504.199ZM488.572 502.168C489.117 502.168 489.59 502.075 489.993 501.891C490.395 501.701 490.708 501.436 490.93 501.095C491.153 500.754 491.267 500.361 491.271 499.916C491.267 499.452 491.146 499.043 490.909 498.688C490.677 498.328 490.357 498.046 489.95 497.842C489.548 497.639 489.089 497.537 488.572 497.537C488.052 497.537 487.588 497.639 487.18 497.842C486.773 498.046 486.451 498.328 486.214 498.688C485.982 499.043 485.869 499.452 485.874 499.916C485.869 500.361 485.978 500.754 486.2 501.095C486.423 501.431 486.735 501.694 487.138 501.884C487.545 502.073 488.023 502.168 488.572 502.168ZM488.572 495.541C489.018 495.541 489.411 495.451 489.751 495.271C490.097 495.091 490.369 494.84 490.568 494.518C490.767 494.196 490.869 493.825 490.874 493.403C490.869 492.987 490.769 492.622 490.575 492.31C490.381 491.992 490.111 491.749 489.766 491.578C489.42 491.403 489.022 491.315 488.572 491.315C488.113 491.315 487.708 491.403 487.358 491.578C487.012 491.749 486.742 491.992 486.548 492.31C486.359 492.622 486.267 492.987 486.271 493.403C486.267 493.825 486.361 494.196 486.555 494.518C486.754 494.836 487.027 495.087 487.372 495.271C487.723 495.451 488.123 495.541 488.572 495.541ZM501.189 504.277C500.019 504.277 499.015 503.981 498.177 503.389C497.344 502.793 496.702 501.933 496.252 500.811C495.807 499.684 495.585 498.328 495.585 496.741C495.59 495.155 495.815 493.806 496.26 492.693C496.709 491.576 497.351 490.723 498.184 490.136C499.022 489.549 500.024 489.256 501.189 489.256C502.353 489.256 503.355 489.549 504.193 490.136C505.031 490.723 505.672 491.576 506.118 492.693C506.567 493.811 506.792 495.16 506.792 496.741C506.792 498.332 506.567 499.691 506.118 500.818C505.672 501.94 505.031 502.797 504.193 503.389C503.359 503.981 502.358 504.277 501.189 504.277ZM501.189 502.054C502.098 502.054 502.815 501.607 503.341 500.712C503.871 499.812 504.136 498.489 504.136 496.741C504.136 495.586 504.015 494.616 503.774 493.83C503.532 493.044 503.191 492.452 502.751 492.054C502.311 491.652 501.79 491.45 501.189 491.45C500.284 491.45 499.569 491.9 499.044 492.8C498.518 493.695 498.253 495.009 498.248 496.741C498.243 497.902 498.359 498.877 498.596 499.668C498.838 500.458 499.179 501.055 499.619 501.457C500.059 501.855 500.583 502.054 501.189 502.054ZM514.028 504.277C512.859 504.277 511.855 503.981 511.017 503.389C510.184 502.793 509.542 501.933 509.092 500.811C508.647 499.684 508.425 498.328 508.425 496.741C508.429 495.155 508.654 493.806 509.099 492.693C509.549 491.576 510.191 490.723 511.024 490.136C511.862 489.549 512.864 489.256 514.028 489.256C515.193 489.256 516.195 489.549 517.033 490.136C517.871 490.723 518.512 491.576 518.957 492.693C519.407 493.811 519.632 495.16 519.632 496.741C519.632 498.332 519.407 499.691 518.957 500.818C518.512 501.94 517.871 502.797 517.033 503.389C516.199 503.981 515.198 504.277 514.028 504.277ZM514.028 502.054C514.938 502.054 515.655 501.607 516.18 500.712C516.711 499.812 516.976 498.489 516.976 496.741C516.976 495.586 516.855 494.616 516.614 493.83C516.372 493.044 516.031 492.452 515.591 492.054C515.151 491.652 514.63 491.45 514.028 491.45C513.124 491.45 512.409 491.9 511.884 492.8C511.358 493.695 511.093 495.009 511.088 496.741C511.083 497.902 511.199 498.877 511.436 499.668C511.678 500.458 512.018 501.055 512.459 501.457C512.899 501.855 513.422 502.054 514.028 502.054ZM526.868 504.277C525.699 504.277 524.695 503.981 523.857 503.389C523.024 502.793 522.382 501.933 521.932 500.811C521.487 499.684 521.265 498.328 521.265 496.741C521.269 495.155 521.494 493.806 521.939 492.693C522.389 491.576 523.031 490.723 523.864 490.136C524.702 489.549 525.703 489.256 526.868 489.256C528.033 489.256 529.034 489.549 529.873 490.136C530.711 490.723 531.352 491.576 531.797 492.693C532.247 493.811 532.472 495.16 532.472 496.741C532.472 498.332 532.247 499.691 531.797 500.818C531.352 501.94 530.711 502.797 529.873 503.389C529.039 503.981 528.038 504.277 526.868 504.277ZM526.868 502.054C527.777 502.054 528.495 501.607 529.02 500.712C529.551 499.812 529.816 498.489 529.816 496.741C529.816 495.586 529.695 494.616 529.453 493.83C529.212 493.044 528.871 492.452 528.431 492.054C527.99 491.652 527.47 491.45 526.868 491.45C525.964 491.45 525.249 491.9 524.723 492.8C524.198 493.695 523.933 495.009 523.928 496.741C523.923 497.902 524.039 498.877 524.276 499.668C524.517 500.458 524.858 501.055 525.299 501.457C525.739 501.855 526.262 502.054 526.868 502.054ZM534.474 489.455H537.698L542.016 499.994H542.187L546.505 489.455H549.729V504H547.201V494.007H547.066L543.046 503.957H541.157L537.137 493.986H537.002V504H534.474V489.455Z" fill="#160E64"/>
<path d="M475.78 523V516.2H477.05L479.14 521.19L479.34 521.8L479.55 521.19L481.63 516.2H482.86V523H481.94V517.31L481.46 518.65L479.64 523H478.99L477.17 518.64L476.7 517.34V523H475.78ZM485.153 519.42H484.273C484.443 518.25 485.213 517.56 486.513 517.56C487.933 517.56 488.623 518.39 488.623 519.63V521.72C488.623 522.33 488.673 522.71 488.813 523H487.883C487.783 522.79 487.753 522.48 487.743 522.16C487.293 522.83 486.573 523.12 485.933 523.12C484.833 523.12 484.093 522.61 484.093 521.6C484.093 520.87 484.493 520.34 485.273 520.08C485.993 519.84 486.723 519.78 487.743 519.77V519.65C487.743 518.79 487.343 518.32 486.433 518.32C485.673 518.32 485.263 518.74 485.153 519.42ZM484.993 521.58C484.993 522.07 485.403 522.36 486.023 522.36C487.003 522.36 487.743 521.59 487.743 520.68V520.43C485.483 520.45 484.993 520.93 484.993 521.58ZM490.065 516.98V515.8H490.945V516.98H490.065ZM490.065 523V517.69H490.945V523H490.065ZM492.341 523V515.8H493.221V523H492.341ZM497.268 519.05C497.268 520.53 500.718 519.31 500.718 521.5C500.718 522.49 499.838 523.12 498.588 523.12C497.328 523.12 496.448 522.52 496.248 521.27H497.128C497.248 522.01 497.798 522.42 498.618 522.42C499.418 522.42 499.838 522.06 499.838 521.56C499.838 520.11 496.428 521.31 496.428 519.11C496.428 518.3 497.058 517.56 498.358 517.56C499.508 517.56 500.358 518.1 500.528 519.42H499.648C499.518 518.59 499.058 518.28 498.308 518.28C497.648 518.28 497.268 518.61 497.268 519.05ZM506.354 521.27C506.064 522.51 505.174 523.12 503.964 523.12C502.424 523.12 501.494 522.08 501.494 520.35C501.494 518.55 502.424 517.56 503.914 517.56C505.414 517.56 506.314 518.59 506.314 520.28V520.5H502.394C502.444 521.69 503.004 522.36 503.964 522.36C504.714 522.36 505.244 522 505.434 521.27H506.354ZM503.914 518.32C503.064 518.32 502.554 518.85 502.424 519.84H505.394C505.274 518.86 504.744 518.32 503.914 518.32ZM507.487 523V517.69H508.367V518.51C508.727 517.86 509.297 517.56 509.937 517.56C510.147 517.56 510.337 517.61 510.437 517.69V518.48C510.287 518.43 510.097 518.41 509.887 518.41C508.827 518.41 508.367 519.07 508.367 520.03V523H507.487ZM512.548 523L510.568 517.69H511.518L512.988 521.81L513.118 522.27L513.248 521.81L514.718 517.69H515.608L513.628 523H512.548ZM516.354 516.98V515.8H517.234V516.98H516.354ZM516.354 523V517.69H517.234V523H516.354ZM523.02 519.52H522.14C522 518.71 521.46 518.32 520.76 518.32C519.78 518.32 519.26 519.04 519.26 520.35C519.26 521.64 519.81 522.37 520.79 522.37C521.5 522.37 522.01 521.99 522.18 521.23H523.06C522.82 522.55 521.93 523.12 520.77 523.12C519.26 523.12 518.36 522.07 518.36 520.35C518.36 518.55 519.28 517.56 520.76 517.56C521.93 517.56 522.85 518.22 523.02 519.52ZM528.737 521.27C528.447 522.51 527.557 523.12 526.347 523.12C524.807 523.12 523.877 522.08 523.877 520.35C523.877 518.55 524.807 517.56 526.297 517.56C527.797 517.56 528.697 518.59 528.697 520.28V520.5H524.777C524.827 521.69 525.387 522.36 526.347 522.36C527.097 522.36 527.627 522 527.817 521.27H528.737ZM526.297 518.32C525.447 518.32 524.937 518.85 524.807 519.84H527.777C527.657 518.86 527.127 518.32 526.297 518.32ZM530.52 519.05C530.52 520.53 533.97 519.31 533.97 521.5C533.97 522.49 533.09 523.12 531.84 523.12C530.58 523.12 529.7 522.52 529.5 521.27H530.38C530.5 522.01 531.05 522.42 531.87 522.42C532.67 522.42 533.09 522.06 533.09 521.56C533.09 520.11 529.68 521.31 529.68 519.11C529.68 518.3 530.31 517.56 531.61 517.56C532.76 517.56 533.61 518.1 533.78 519.42H532.9C532.77 518.59 532.31 518.28 531.56 518.28C530.9 518.28 530.52 518.61 530.52 519.05Z" fill="#160E64" fill-opacity="0.5"/>
<defs>
<filter id="filter0_f_1_2435" x="0.258598" y="0.258598" width="653.483" height="653.483" filterUnits="userSpaceOnUse" color-interpolation-filters="sRGB">
<feFlood flood-opacity="0" result="BackgroundImageFix"/>
<feBlend mode="normal" in="SourceGraphic" in2="BackgroundImageFix" result="shape"/>
<feGaussianBlur stdDeviation="35.8707" result="effect1_foregroundBlur_1_2435"/>
</filter>
<filter id="filter1_f_1_2435" x="342.26" y="227.26" width="474.48" height="474.48" filterUnits="userSpaceOnUse" color-interpolation-filters="sRGB">
<feFlood flood-opacity="0" result="BackgroundImageFix"/>
<feBlend mode="normal" in="SourceGraphic" in2="BackgroundImageFix" result="shape"/>
<feGaussianBlur stdDeviation="50.87" result="effect1_foregroundBlur_1_2435"/>
</filter>
<filter id="filter2_d_1_2435" x="362" y="447" width="252" height="132" filterUnits="userSpaceOnUse" color-interpolation-filters="sRGB">
<feFlood flood-opacity="0" result="BackgroundImageFix"/>
<feColorMatrix in="SourceAlpha" type="matrix" values="0 0 0 0 0 0 0 0 0 0 0 0 0 0 0 0 0 0 127 0" result="hardAlpha"/>
<feOffset dy="8"/>
<feGaussianBlur stdDeviation="15"/>
<feComposite in2="hardAlpha" operator="out"/>
<feColorMatrix type="matrix" values="0 0 0 0 0 0 0 0 0 0 0 0 0 0 0 0 0 0 0.06 0"/>
<feBlend mode="normal" in2="BackgroundImageFix" result="effect1_dropShadow_1_2435"/>
<feBlend mode="normal" in="SourceGraphic" in2="effect1_dropShadow_1_2435" result="shape"/>
</filter>
<linearGradient id="paint0_linear_1_2435" x1="280.706" y1="137.648" x2="280.706" y2="467.148" gradientUnits="userSpaceOnUse">
<stop stop-color="#1668E8" stop-opacity="0.56"/>
<stop offset="1" stop-color="#1668E8" stop-opacity="0"/>
</linearGradient>
</defs>
</svg>
