<svg width="50" height="50" viewBox="0 0 50 50" fill="none" xmlns="http://www.w3.org/2000/svg">
<g clip-path="url(#clip0_1_2579)">
<path d="M41.9324 0.613431C30.6562 -0.183644 19.3379 -0.183644 8.06173 0.613431C6.13303 0.758412 4.32028 1.59025 2.95263 2.95789C1.58499 4.32554 0.753151 6.13829 0.60817 8.06699C-0.189702 19.3431 -0.189702 30.6615 0.60817 41.9376C0.753151 43.8663 1.58499 45.6791 2.95263 47.0467C4.32028 48.4144 6.13303 49.2462 8.06173 49.3912C19.3378 50.1903 30.6563 50.1903 41.9324 49.3912C43.8611 49.2462 45.6738 48.4144 47.0415 47.0467C48.4091 45.6791 49.241 43.8663 49.3859 41.9376C50.1838 30.6615 50.1838 19.3431 49.3859 8.06699C49.241 6.13829 48.4091 4.32554 47.0415 2.95789C45.6738 1.59025 43.8611 0.758412 41.9324 0.613431Z" fill="url(#paint0_linear_1_2579)"/>
<path d="M13.3627 27.0647C13.0602 26.7702 12.6547 26.6055 12.2325 26.6055C11.8103 26.6055 11.4047 26.7702 11.1022 27.0647L7.91279 30.2541C7.62211 30.5551 7.46127 30.9582 7.4649 31.3766C7.46854 31.795 7.63636 32.1952 7.93223 32.4911C8.22809 32.7869 8.62832 32.9548 9.04672 32.9584C9.46512 32.962 9.86821 32.8012 10.1692 32.5105L10.6367 32.0431V37.7653C10.6367 38.1885 10.8048 38.5944 11.1041 38.8937C11.4034 39.1929 11.8093 39.3611 12.2325 39.3611C12.6557 39.3611 13.0616 39.1929 13.3608 38.8937C13.6601 38.5944 13.8282 38.1885 13.8282 37.7653V32.0431L14.2958 32.5105C14.5979 32.8041 15.0027 32.9683 15.424 32.9683C15.8453 32.9683 16.25 32.8041 16.5522 32.5105C16.7004 32.3624 16.818 32.1865 16.8982 31.993C16.9785 31.7994 17.0198 31.5919 17.0198 31.3823C17.0198 31.1728 16.9785 30.9653 16.8982 30.7717C16.818 30.5781 16.7004 30.4022 16.5522 30.2541L13.3627 27.0647Z" fill="url(#paint1_linear_1_2579)"/>
<path d="M26.1284 17.4916C25.8249 17.1988 25.4197 17.0352 24.9981 17.0352C24.5764 17.0352 24.1712 17.1988 23.8678 17.4916L20.6784 20.681C20.3877 20.982 20.2269 21.3851 20.2305 21.8035C20.2342 22.2219 20.402 22.6221 20.6979 22.9179C20.9937 23.2138 21.3939 23.3816 21.8123 23.3853C22.2307 23.3889 22.6338 23.2281 22.9348 22.9374L23.4023 22.47V37.7666C23.4023 38.1899 23.5705 38.5957 23.8697 38.895C24.169 39.1943 24.5749 39.3624 24.9981 39.3624C25.4213 39.3624 25.8272 39.1943 26.1265 38.895C26.4257 38.5957 26.5938 38.1899 26.5938 37.7666V22.47L27.0614 22.9374C27.3632 23.2316 27.7681 23.3963 28.1896 23.3963C28.6111 23.3963 29.0159 23.2316 29.3178 22.9374C29.466 22.7893 29.5836 22.6134 29.6638 22.4198C29.7441 22.2262 29.7854 22.0187 29.7854 21.8092C29.7854 21.5996 29.7441 21.3921 29.6638 21.1986C29.5836 21.005 29.466 20.8291 29.3178 20.681L26.1284 17.4916Z" fill="url(#paint2_linear_1_2579)"/>
<path d="M38.894 11.1073C38.5913 10.8131 38.1858 10.6484 37.7637 10.6484C37.3416 10.6484 36.9361 10.8131 36.6335 11.1073L33.444 14.2967C33.1534 14.5977 32.9925 15.0008 32.9962 15.4192C32.9998 15.8376 33.1676 16.2378 33.4635 16.5337C33.7593 16.8295 34.1596 16.9974 34.578 17.001C34.9964 17.0046 35.3995 16.8438 35.7004 16.5531L36.168 16.0857V37.7653C36.168 38.1886 36.3361 38.5944 36.6354 38.8937C36.9346 39.193 37.3405 39.3611 37.7637 39.3611C38.1869 39.3611 38.5928 39.193 38.8921 38.8937C39.1913 38.5944 39.3595 38.1886 39.3595 37.7653V16.0857L39.827 16.5531C40.1293 16.8466 40.5339 17.0107 40.9552 17.0107C41.3765 17.0107 41.7812 16.8466 42.0834 16.5531C42.2316 16.405 42.3492 16.2291 42.4295 16.0355C42.5097 15.842 42.551 15.6345 42.551 15.4249C42.551 15.2154 42.5097 15.0079 42.4295 14.8143C42.3492 14.6207 42.2316 14.4448 42.0834 14.2967L38.894 11.1073Z" fill="url(#paint3_linear_1_2579)"/>
</g>
<defs>
<linearGradient id="paint0_linear_1_2579" x1="24.9971" y1="-0.0875798" x2="24.9971" y2="50.0268" gradientUnits="userSpaceOnUse">
<stop stop-color="#FFEDFF"/>
<stop offset="1" stop-color="#FFC3F9"/>
</linearGradient>
<linearGradient id="paint1_linear_1_2579" x1="12.2325" y1="10.2307" x2="12.2325" y2="38.3462" gradientUnits="userSpaceOnUse">
<stop stop-color="#B444FF"/>
<stop offset="1" stop-color="#F582FF"/>
</linearGradient>
<linearGradient id="paint2_linear_1_2579" x1="24.9981" y1="10.2321" x2="24.9981" y2="38.3475" gradientUnits="userSpaceOnUse">
<stop stop-color="#B444FF"/>
<stop offset="1" stop-color="#F582FF"/>
</linearGradient>
<linearGradient id="paint3_linear_1_2579" x1="37.7637" y1="10.2308" x2="37.7637" y2="38.3462" gradientUnits="userSpaceOnUse">
<stop stop-color="#B444FF"/>
<stop offset="1" stop-color="#F582FF"/>
</linearGradient>
<clipPath id="clip0_1_2579">
<rect width="50" height="50" fill="white"/>
</clipPath>
</defs>
</svg>
