<svg width="442" height="8" viewBox="0 0 442 8" fill="none" xmlns="http://www.w3.org/2000/svg">
<path d="M167.355 0.209514C169.548 0.18922 171.741 0.162161 173.934 0.141867C174.7 0.133975 175.467 0.12721 176.234 0.124955C188.325 0.0877489 200.411 0.0573076 212.502 0.0234839C214.805 0.0167192 217.107 -0.0047025 219.409 0.000934783C224.562 0.00995443 229.719 0.046033 234.872 0.0663272C241.81 0.0933862 248.744 0.119318 255.682 0.142994C258.176 0.152014 260.671 0.159906 263.164 0.165543C264.152 0.168926 265.139 0.158779 266.126 0.170053C276.602 0.292946 287.078 0.43275 297.553 0.56579C302.408 0.628928 307.262 0.684173 312.114 0.759713C314.803 0.803683 317.492 0.870203 320.181 0.925449C331.066 1.15094 341.957 1.36854 352.845 1.60643C354.189 1.63575 355.534 1.68535 356.878 1.72594C359.567 1.80486 362.255 1.88717 364.944 1.96271C365.245 1.97286 365.545 1.97849 365.848 1.98187C371.084 2.05516 376.323 2.12168 381.56 2.19271C385.538 2.24683 389.513 2.3032 393.491 2.35619L394.888 2.36972C397.802 2.40129 402.664 2.44413 405.664 2.49261C407.2 2.51742 408.741 2.51178 410.273 2.58281C410.89 2.61212 411.542 2.63354 412.086 2.79139C412.453 2.89624 412.426 3.29423 412.84 3.32355C416.133 3.5558 419.473 3.52649 422.797 3.54904C423.034 3.55129 423.217 3.41825 423.45 3.39796C424.265 3.32806 425.09 3.25703 425.916 3.28296C426.403 3.29762 426.844 3.45433 427.319 3.5186C427.535 3.54668 427.756 3.56143 427.979 3.56257C431.165 3.59188 433.161 3.54791 436.121 3.60428C436.734 3.61556 438.318 3.66066 439.084 3.73056C439.473 3.76664 439.887 3.77566 440.24 3.86924C440.815 4.02595 441.431 4.19394 441.815 4.47017C442.017 4.61448 442.097 4.89973 441.83 5.00797C438.788 6.23915 436.469 5.76336 432.715 5.70699C424.98 5.5815 417.246 5.43869 409.512 5.27856C407.181 5.23008 404.849 5.19287 402.517 5.12973C397.085 4.98429 391.657 4.81179 386.225 4.65507C376.376 4.37095 366.534 4.03046 356.681 3.80497C354.16 3.7486 351.637 3.80497 349.114 3.80835C339.655 3.81512 330.198 3.81399 320.742 3.8309C315.643 3.83992 310.543 3.87036 305.445 3.88728C301.607 3.89855 297.77 3.90982 293.932 3.91659C273.812 3.95831 253.689 4.00002 233.569 4.0361C229.374 4.04399 225.179 4.02483 220.987 4.0485C219.726 4.05639 218.466 4.10262 217.206 4.12404C210.984 4.22777 204.762 4.31233 198.542 4.42169C195.061 4.4837 191.583 4.56826 188.102 4.64042C182.294 4.76218 176.486 4.87718 170.673 5.00346C160.477 5.22895 152.024 5.46459 141.58 5.71714C135.487 5.86371 125.952 6.07567 119.631 6.20871C118.344 6.23689 117.058 6.26057 115.766 6.28425C110.179 6.38797 104.589 6.48832 98.9993 6.5943C97.2453 6.62812 95.4913 6.66307 93.7373 6.70366C86.6945 6.87331 79.6539 7.06799 72.6159 7.28768C69.8452 7.37337 67.0809 7.47033 64.3144 7.56616C62.6717 7.62254 61.0165 7.62705 59.3843 7.74656C59.0272 7.77249 58.7625 7.96867 58.4033 7.99798C58.1933 8.01376 55.2314 7.93371 54.9458 7.87396C54.6853 7.81984 54.387 7.65862 54.4437 7.50979C54.5046 7.36322 54.9017 7.31587 55.1789 7.28543C56.1242 7.18396 57.0947 7.17043 58.0546 7.11969C59.6091 7.03513 63.1108 6.87842 64.2976 6.83219C68.8433 6.65518 73.3889 6.47704 77.9388 6.32371C81.3754 6.20758 93.0945 5.84454 98.8964 5.71488C108.471 5.50292 109.196 5.53223 119.528 5.28194C129.172 5.0463 138.816 4.79149 148.458 4.54458C152.323 4.44649 156.299 4.75091 160.047 4.24581C163.239 3.81512 153.472 4.2909 150.182 4.31345C139.024 4.38899 127.87 4.45664 116.714 4.54233C106.984 4.61674 97.2537 4.69453 87.5238 4.79037C83.7952 4.82645 80.0667 4.88958 76.3424 4.93919C71.8219 5.00233 67.2972 5.05757 62.7768 5.13086C52.967 5.2887 43.1573 5.46233 33.3475 5.62468C28.1381 5.71263 22.9328 5.79719 17.7254 5.87836C15.5072 5.91444 13.2869 5.94263 11.0666 5.97307C9.91547 5.98885 8.76434 6.00238 7.61532 6.02155C7.01035 6.03282 6.40748 6.0441 5.80461 6.05763C5.04 6.07454 4.26908 6.11851 3.50237 6.07341C3.03284 6.04831 2.56594 6.01068 2.10338 5.96067C1.92903 5.94263 1.72527 5.93586 1.60764 5.86709C1.01527 5.52321 -0.156854 5.21204 0.0174945 4.75316C0.196044 4.29203 1.4585 4.18041 2.30293 4.05188C3.76494 3.83316 5.31098 3.81963 6.8192 3.7283C9.78943 3.54791 13.2449 3.44419 16.1857 3.3461C22.7857 3.12603 29.388 2.92609 35.9922 2.74629C53.301 2.27276 72.6936 1.74962 90.0739 1.37418C107.895 0.987459 121.205 0.761968 138.495 0.480104C139.7 0.460937 140.906 0.444025 142.112 0.431623C143.782 0.414711 145.456 0.411329 147.126 0.397799C153.869 0.338044 160.612 0.274907 167.355 0.209514ZM131.392 2.6809C137.642 2.66286 143.807 2.62001 150.056 2.57717C160.173 2.5084 170.369 2.4633 180.485 2.41933C189.528 2.38099 198.494 2.36859 207.457 2.35619L234.105 2.32011L260.913 2.28403C255.569 2.27276 250.139 2.23555 244.793 2.22428L224.806 2.13972C222.255 2.13295 219.787 2.10026 217.239 2.11717L182.124 2.21188C179.41 2.22992 176.614 2.22541 173.816 2.2457C168.06 2.28403 162.307 2.34717 156.551 2.38663C151.699 2.42046 146.931 2.47683 142.08 2.51065C140.845 2.54448 139.528 2.55237 138.215 2.58506C135.995 2.60085 133.775 2.64031 131.392 2.6809Z" fill="#E085FF"/>
</svg>
