<svg width="163" height="32" viewBox="0 0 163 32" fill="none" xmlns="http://www.w3.org/2000/svg">
<g clip-path="url(#clip0_1_1753)">
<path fill-rule="evenodd" clip-rule="evenodd" d="M12.1607 10.8828C11.2645 10.8828 10.5312 11.6407 10.5312 12.567C10.5312 13.4934 11.2645 14.2512 12.1607 14.2512C13.0569 14.2512 13.7902 13.4934 13.7902 12.567C13.7902 11.6407 13.0569 10.8828 12.1607 10.8828ZM12.3179 17.7049C11.4216 17.7049 10.6883 18.4628 10.6883 19.3891C10.6883 20.3154 11.4216 21.0733 12.3179 21.0733C13.214 21.0733 13.9473 20.3155 13.9473 19.3891C13.9473 18.4628 13.214 17.7049 12.3179 17.7049ZM17.132 19.3891C17.132 18.4628 17.8653 17.7049 18.7616 17.7049C19.6578 17.7049 20.3911 18.4628 20.3911 19.3891C20.3911 20.3155 19.6578 21.0733 18.7616 21.0733C17.8653 21.0733 17.132 20.3154 17.132 19.3891Z" fill="#7B6DF0"/>
<path d="M5.70373 4.21094C4.80751 4.21094 4.07422 4.96884 4.07422 5.89514C4.07422 6.82143 4.80743 7.57942 5.70373 7.57942C6.60002 7.57942 7.33323 6.82152 7.33323 5.89522C7.33323 4.96892 6.59994 4.21094 5.70373 4.21094Z" fill="#4EE0E0"/>
<path d="M5.70373 10.9492C4.80751 10.9492 4.07422 11.7071 4.07422 12.6335C4.07422 13.5597 4.80751 14.3176 5.70373 14.3176C6.59994 14.3176 7.33323 13.5597 7.33323 12.6335C7.33323 11.7071 6.59994 10.9492 5.70373 10.9492Z" fill="#E085FF"/>
<path d="M5.70373 17.6836C4.80751 17.6836 4.07422 18.4415 4.07422 19.3678C4.07422 20.294 4.80751 21.052 5.70373 21.052C6.59994 21.052 7.33323 20.2941 7.33323 19.3678C7.33323 18.4415 6.59994 17.6836 5.70373 17.6836Z" fill="#E085FF"/>
<path d="M12.2213 7.57933C13.1176 7.57933 13.8508 6.82143 13.8508 5.89514C13.8508 4.96884 13.1176 4.21094 12.2213 4.21094C11.3251 4.21094 10.5918 4.96884 10.5918 5.89514C10.5918 6.82143 11.3251 7.57933 12.2213 7.57933Z" fill="#E085FF"/>
<path d="M18.7388 7.57933C19.6351 7.57933 20.3684 6.82143 20.3684 5.89514C20.3684 4.96884 19.6351 4.21094 18.7388 4.21094C17.8426 4.21094 17.1094 4.96884 17.1094 5.89514C17.1094 6.82143 17.8426 7.57933 18.7388 7.57933Z" fill="#E085FF"/>
<path d="M5.70373 24.4219C4.80751 24.4219 4.07422 25.1797 4.07422 26.106C4.07422 27.0323 4.80751 27.7903 5.70373 27.7903C6.59994 27.7903 7.33323 27.0324 7.33323 26.1061C7.33323 25.1797 6.59994 24.4219 5.70373 24.4219Z" fill="#4EE0E0"/>
<path d="M25.2584 17.6836C24.3621 17.6836 23.6289 18.4415 23.6289 19.3678C23.6289 20.294 24.3621 21.052 25.2584 21.052C26.1546 21.052 26.8879 20.294 26.8879 19.3678C26.8879 18.4415 26.1546 17.6836 25.2584 17.6836Z" fill="#E085FF"/>
<path d="M25.2584 24.4219C24.3621 24.4219 23.6289 25.1797 23.6289 26.106C23.6289 27.0323 24.3621 27.7903 25.2584 27.7903C26.1546 27.7903 26.8879 27.0324 26.8879 26.1061C26.8879 25.1797 26.1546 24.4219 25.2584 24.4219Z" fill="#4EE0E0"/>
<path d="M25.2584 10.9492C24.3621 10.9492 23.6289 11.7071 23.6289 12.6335C23.6289 13.5597 24.3621 14.3176 25.2584 14.3176C26.1546 14.3176 26.8879 13.5597 26.8879 12.6335C26.8879 11.7071 26.1546 10.9492 25.2584 10.9492Z" fill="#E085FF"/>
<path d="M25.2584 4.21094C24.3621 4.21094 23.6289 4.96884 23.6289 5.89514C23.6289 6.82143 24.362 7.57942 25.2584 7.57942C26.1546 7.57942 26.8879 6.82152 26.8879 5.89522C26.8879 4.96892 26.1546 4.21094 25.2584 4.21094Z" fill="#4EE0E0"/>
<path d="M12.2213 24.4219C11.3251 24.4219 10.5918 25.1797 10.5918 26.106C10.5918 27.0323 11.3251 27.7903 12.2213 27.7903C13.1176 27.7903 13.8508 27.0323 13.8508 26.106C13.8508 25.1797 13.1176 24.4219 12.2213 24.4219Z" fill="#E085FF"/>
<path d="M18.7388 24.4219C17.8426 24.4219 17.1094 25.1797 17.1094 26.106C17.1094 27.0324 17.8426 27.7903 18.7388 27.7903C19.6351 27.7903 20.3684 27.0324 20.3684 26.1061C20.3685 25.1797 19.6351 24.4219 18.7388 24.4219Z" fill="#E085FF"/>
<path fill-rule="evenodd" clip-rule="evenodd" d="M18.7395 1.6842C19.1877 1.6842 19.5544 1.30524 19.5544 0.842059C19.5544 0.378951 19.1877 0 18.7395 0C18.2914 0 17.9247 0.378951 17.9247 0.842138C17.9248 1.30524 18.2915 1.6842 18.7395 1.6842ZM0 12.6316C0 12.1685 0.366645 11.7896 0.814792 11.7896C1.26286 11.7896 1.62951 12.1685 1.62958 12.6316C1.62958 13.0949 1.26294 13.4738 0.814792 13.4738C0.366645 13.4738 0 13.0949 0 12.6316ZM0 19.3682C0 18.905 0.366645 18.5261 0.814792 18.5261C1.26286 18.5261 1.62951 18.905 1.62958 19.3682C1.62958 19.8313 1.26294 20.2104 0.814792 20.2104C0.366645 20.2104 0 19.8313 0 19.3682ZM12.2214 30.3157C11.7733 30.3157 11.4067 30.6946 11.4067 31.1577C11.4067 31.621 11.7733 31.9999 12.2214 31.9999C12.6697 31.9999 13.0363 31.621 13.0363 31.1577C13.0363 30.6946 12.6697 30.3157 12.2214 30.3157ZM30.9613 12.6316C30.9613 13.0949 30.5946 13.4738 30.1465 13.4738C29.6983 13.4738 29.3317 13.0949 29.3317 12.6316C29.3317 12.1685 29.6983 11.7896 30.1465 11.7896C30.5946 11.7896 30.9613 12.1685 30.9613 12.6316ZM13.0363 0.842059C13.0363 1.30524 12.6697 1.6842 12.2214 1.6842C11.7733 1.6842 11.4067 1.30524 11.4067 0.842138C11.4067 0.378951 11.7733 0 12.2214 0C12.6697 0 13.0363 0.378951 13.0363 0.842059ZM30.1465 18.5261C29.6983 18.5261 29.3317 18.905 29.3317 19.3683C29.3317 19.8313 29.6983 20.2104 30.1465 20.2104C30.5946 20.2104 30.9613 19.8313 30.9613 19.3682C30.9612 18.905 30.5946 18.5261 30.1465 18.5261ZM17.9247 31.1577C17.9247 30.6946 18.2914 30.3157 18.7395 30.3157C19.1877 30.3157 19.5544 30.6946 19.5544 31.1577C19.5544 31.621 19.1877 31.9999 18.7395 31.9999C18.2914 31.9999 17.9247 31.621 17.9247 31.1577Z" fill="#4EE0E0"/>
<path d="M15.7148 12.638C15.7148 12.638 17.0933 12.1553 17.7264 11.5009C18.3595 10.8465 18.8265 9.42188 18.8265 9.42188C18.8265 9.42188 19.252 10.8475 19.8717 11.5009C20.5117 12.1758 21.9383 12.638 21.9383 12.638C21.9383 12.638 20.5117 13.1002 19.8717 13.7751C19.252 14.4285 18.8265 15.8542 18.8265 15.8542C18.8265 15.8542 18.3595 14.4294 17.7264 13.7751C17.0933 13.1207 15.7148 12.638 15.7148 12.638Z" fill="#160E64"/>
<path d="M49.7956 8.875H39.3086V24.9498H41.5082V17.9687H48.6181V15.9709H41.5082V10.8729H49.7956V8.875Z" fill="#160E64"/>
<path d="M58.7707 19.3935C58.7707 21.6439 57.5709 23.2744 55.7712 23.2744C53.9492 23.2744 53.5938 21.6439 53.5938 20.0824V13.4688H51.5275V20.1054C51.5275 22.1491 52.0385 25.2263 55.1046 25.2263C56.6822 25.2263 57.9708 24.3996 58.7707 22.7692V24.9507H60.837V13.4688H58.7707V19.3935Z" fill="#160E64"/>
<path d="M69.5071 13.1719C67.7964 13.1719 66.4188 14.0905 65.619 15.652V13.4704H63.5526V24.9524H65.619V19.3722C65.619 16.8232 66.9298 15.1238 68.8406 15.1238C70.9958 15.1238 70.9958 17.2136 70.9958 18.7291V24.9524H73.0621V18.6603C73.0621 16.7772 73.0621 13.1719 69.5071 13.1719Z" fill="#160E64"/>
<path d="M81.5268 13.1719C79.816 13.1719 78.4384 14.0905 77.6385 15.652V13.4704H75.5723V24.9524H77.6385V19.3722C77.6385 16.8232 78.9495 15.1238 80.8602 15.1238C83.0154 15.1238 83.0154 17.2136 83.0154 18.7291V24.9524H85.0817V18.6603C85.0817 16.7772 85.0817 13.1719 81.5268 13.1719Z" fill="#160E64"/>
<path d="M95.5037 21.4159C95.0811 22.6101 93.993 23.345 92.5706 23.345C90.6599 23.345 89.4823 22.0589 89.2601 19.9003H97.303C98.281 16.1113 96.4589 13.1719 92.6598 13.1719C89.2157 13.1719 87.0605 15.5831 87.0605 19.2114C87.0605 22.8397 89.1935 25.2509 92.5706 25.2509C95.215 25.2509 97.1036 23.7812 97.7474 21.4159H95.5037ZM92.5924 15.0319C94.5703 15.0319 95.592 16.2261 95.4144 18.155H89.3046C89.5934 16.1802 90.7488 15.0319 92.5924 15.0319Z" fill="#160E64"/>
<path d="M102.095 24.9498V8.875H100.029V24.9498H102.095Z" fill="#160E64"/>
<path d="M111.351 25.2989C115.217 25.2989 117.705 23.347 117.705 20.109C117.705 13.8858 108.351 16.8481 108.351 13.2657C108.351 12.0486 109.44 11.2679 111.151 11.2679C113.217 11.2679 114.351 12.3472 114.084 14.2303H117.305C117.705 10.8086 115.261 8.53516 111.217 8.53516C107.507 8.53516 105.108 10.4412 105.108 13.6332C105.108 19.9483 114.439 16.8941 114.439 20.4765C114.439 21.7165 113.306 22.5662 111.417 22.5662C109.24 22.5662 108.018 21.4639 108.129 19.5809H104.907C104.641 23.0714 107.24 25.2989 111.351 25.2989Z" fill="#160E64"/>
<path d="M127.318 13.4708H124.141V10.3477H121.12V13.4708H118.92V16.1346H121.12V21.1637C121.12 22.6334 121.386 25.2972 124.919 25.2972C125.83 25.2972 126.563 25.1135 127.096 24.8149V22.1052C126.541 22.4267 126.118 22.6104 125.496 22.6104C124.364 22.6104 124.141 21.9674 124.141 21.1407V16.1346H127.318V13.4708Z" fill="#160E64"/>
<path d="M134.146 25.2959C137.657 25.2959 139.99 22.8618 139.99 19.2105C139.99 15.5592 137.657 13.125 134.146 13.125C130.636 13.125 128.303 15.5592 128.303 19.2105C128.303 22.8618 130.636 25.2959 134.146 25.2959ZM134.146 22.6091C132.523 22.6091 131.435 21.2542 131.435 19.2105C131.435 17.1437 132.523 15.8118 134.146 15.8118C135.768 15.8118 136.856 17.1437 136.856 19.2105C136.856 21.2542 135.768 22.6091 134.146 22.6091Z" fill="#160E64"/>
<path d="M147.745 13.125C146.301 13.125 145.212 13.9747 144.634 15.4214V13.4695H141.635V24.9514H144.634V19.3023C144.634 17.1897 145.434 15.8347 146.523 15.8347C147.256 15.8347 147.723 16.4089 147.723 17.3045C147.723 17.9244 147.501 18.5904 147.078 19.3253H150.211C150.589 18.5445 150.811 17.6029 150.811 16.6844C150.811 14.5488 149.612 13.125 147.745 13.125Z" fill="#160E64"/>
<path d="M157.068 21.8047L154.425 13.4688H151.225L155.735 25.5708C155.38 26.3745 154.757 27.2012 153.491 27.2012C153.047 27.2012 152.536 27.0863 151.958 26.8797V29.5205C152.58 29.7731 153.246 29.865 153.824 29.865C157.068 29.865 158.134 27.2012 158.602 25.8004L162.645 13.4688H159.49L157.068 21.8047Z" fill="#160E64"/>
</g>
<defs>
<clipPath id="clip0_1_1753">
<rect width="163" height="32" fill="white"/>
</clipPath>
</defs>
</svg>
