<svg width="18" height="14" viewBox="0 0 18 14" fill="none" xmlns="http://www.w3.org/2000/svg">
<path d="M1 6C0.734783 6 0.480429 6.10536 0.292892 6.29289C0.105356 6.48043 0 6.73478 0 7V7.5C0 7.76522 0.105356 8.01957 0.292892 8.20711C0.480429 8.39464 0.734783 8.5 1 8.5H17C17.2652 8.5 17.5196 8.39464 17.7071 8.20711C17.8946 8.01957 18 7.76522 18 7.5V7C18 6.73478 17.8946 6.48043 17.7071 6.29289C17.5196 6.10536 17.2652 6 17 6H1ZM1 0.5C0.734783 0.5 0.480429 0.605357 0.292892 0.792893C0.105356 0.98043 0 1.23478 0 1.5V2C0 2.26522 0.105356 2.51957 0.292892 2.70711C0.480429 2.89464 0.734783 3 1 3H17C17.2652 3 17.5196 2.89464 17.7071 2.70711C17.8946 2.51957 18 2.26522 18 2V1.5C18 1.23478 17.8946 0.98043 17.7071 0.792893C17.5196 0.605357 17.2652 0.5 17 0.5H1ZM17 14C17.2652 14 17.5196 13.8946 17.7071 13.7071C17.8946 13.5196 18 13.2652 18 13V12.5C18 12.2348 17.8946 11.9804 17.7071 11.7929C17.5196 11.6054 17.2652 11.5 17 11.5H8C7.73478 11.5 7.48043 11.6054 7.29289 11.7929C7.10536 11.9804 7 12.2348 7 12.5V13C7 13.2652 7.10536 13.5196 7.29289 13.7071C7.48043 13.8946 7.73478 14 8 14H17Z" fill="#160E64"/>
</svg>
