<svg width="50" height="50" viewBox="0 0 50 50" fill="none" xmlns="http://www.w3.org/2000/svg">
<g clip-path="url(#clip0_1_2590)">
<path d="M49.5885 10.3968C49.282 4.99506 44.9776 0.69067 39.5758 0.384179C29.904 -0.164518 20.0955 -0.164518 10.4247 0.384179C5.02294 0.690681 0.718551 4.99506 0.411523 10.3968C-0.137174 20.0687 -0.137174 29.8766 0.411523 39.5485C0.718562 44.9502 5.02294 49.2546 10.4247 49.5611C20.1212 50.1113 29.88 50.1112 39.5758 49.5611C44.9776 49.2546 49.282 44.9502 49.5885 39.5485C50.1372 29.8766 50.1372 20.0687 49.5885 10.3968Z" fill="url(#paint0_linear_1_2590)"/>
<path d="M41.1352 30.534C41.0246 31.1362 40.7108 31.7014 40.2187 32.0951C40.2187 32.0951 30.3313 40.0402 30.3311 40.0403C29.2026 40.9471 27.626 41.3739 26.172 41.1047L17.4258 39.5794C17.5794 39.1953 17.6892 38.8002 17.7441 38.3722L18.4683 31.0527C18.5451 30.2515 18.3915 29.4285 18.0403 28.6713C17.9636 28.5067 17.8758 28.353 17.777 28.1994C18.3257 28.1116 18.9073 28.1116 19.4779 28.2104C19.4779 28.2104 25.7939 29.3289 25.7989 29.3297C27.4359 29.6196 28.521 31.2046 28.2571 32.8304C28.003 34.3955 26.299 35.5459 24.7564 35.2776L22.5946 34.8935C22.1447 34.8167 21.7166 35.113 21.6398 35.5629C21.563 36.0128 21.8593 36.4408 22.3092 36.5177C22.3092 36.5177 24.4601 36.9017 24.4602 36.9017C26.9208 37.3301 29.444 35.578 29.8813 33.1158C29.9361 32.7646 29.9471 32.4134 29.9361 32.0732L37.2887 27.8154C38.4409 27.146 39.9443 27.4861 40.7235 28.5835C41.1313 29.1578 41.2573 29.8685 41.1352 30.534Z" fill="url(#paint1_linear_1_2590)"/>
<path d="M16.549 29.3743C16.128 28.4854 15.2951 27.7775 14.3241 27.6177C14.3241 27.6177 12.333 27.2899 12.3319 27.2898C10.5161 26.9909 8.8125 28.4162 8.8125 30.2626V38.164C8.8125 40.0199 10.6001 41.4859 12.4176 41.1224C12.4176 41.1224 13.6948 40.869 13.695 40.8689C15.0017 40.6097 15.9199 39.5165 16.1063 38.2117C16.1063 38.2117 16.8285 30.9086 16.8297 30.897C16.8813 30.3751 16.7739 29.8489 16.549 29.3743Z" fill="url(#paint2_linear_1_2590)"/>
<path d="M23.904 21.4325H28.5679V26.0965C28.5679 26.5508 28.9366 26.9195 29.391 26.9195C29.8454 26.9195 30.214 26.5508 30.214 26.0965V15.9456H32.6832C35.5574 15.9456 37.8958 13.6072 37.8958 10.7329V9.63555C37.8958 9.18116 37.5271 8.8125 37.0728 8.8125H33.7806C30.9063 8.8125 28.5679 11.1509 28.5679 14.0251V15.1225V15.7308C27.6341 14.8496 26.3838 14.2995 25.0014 14.2995H19.5145C19.0601 14.2995 18.6914 14.6681 18.6914 15.1225V16.2199C18.6914 19.0941 21.0298 21.4325 23.904 21.4325Z" fill="url(#paint3_linear_1_2590)"/>
</g>
<defs>
<linearGradient id="paint0_linear_1_2590" x1="25" y1="-0.267421" x2="25" y2="49.4555" gradientUnits="userSpaceOnUse">
<stop stop-color="#F3F9FF"/>
<stop offset="1" stop-color="#CBE5FF"/>
</linearGradient>
<linearGradient id="paint1_linear_1_2590" x1="29.3027" y1="5.45426" x2="29.3027" y2="40.7629" gradientUnits="userSpaceOnUse">
<stop stop-color="#49C4FF"/>
<stop offset="1" stop-color="#91A5FF"/>
</linearGradient>
<linearGradient id="paint2_linear_1_2590" x1="12.8277" y1="5.45455" x2="12.8277" y2="40.7632" gradientUnits="userSpaceOnUse">
<stop stop-color="#49C4FF"/>
<stop offset="1" stop-color="#91A5FF"/>
</linearGradient>
<linearGradient id="paint3_linear_1_2590" x1="28.2936" y1="5.45557" x2="28.2936" y2="40.7642" gradientUnits="userSpaceOnUse">
<stop stop-color="#49C4FF"/>
<stop offset="1" stop-color="#91A5FF"/>
</linearGradient>
<clipPath id="clip0_1_2590">
<rect width="50" height="50" fill="white"/>
</clipPath>
</defs>
</svg>
