<svg width="190" height="60" viewBox="0 0 190 60" fill="none" xmlns="http://www.w3.org/2000/svg">
<rect width="190" height="60" rx="8" fill="#4DAA75"/>
<path d="M22.5376 17.6172C22.4912 17.183 22.2957 16.8449 21.951 16.603C21.6096 16.361 21.1655 16.2401 20.6186 16.2401C20.2341 16.2401 19.9044 16.2981 19.6293 16.4141C19.3542 16.5301 19.1437 16.6875 18.9979 16.8864C18.852 17.0852 18.7775 17.3123 18.7741 17.5675C18.7741 17.7796 18.8222 17.9635 18.9183 18.1193C19.0178 18.2751 19.152 18.4077 19.321 18.517C19.4901 18.6231 19.6773 18.7126 19.8828 18.7855C20.0883 18.8584 20.2955 18.9197 20.5043 18.9695L21.4588 19.2081C21.8433 19.2976 22.2128 19.4186 22.5675 19.571C22.9254 19.7235 23.2453 19.9157 23.527 20.1477C23.812 20.3797 24.0374 20.6598 24.2031 20.9879C24.3688 21.3161 24.4517 21.7005 24.4517 22.1413C24.4517 22.7379 24.2992 23.2633 23.9943 23.7173C23.6894 24.1681 23.2486 24.5211 22.6719 24.7763C22.0985 25.0282 21.4041 25.1541 20.5888 25.1541C19.7966 25.1541 19.1089 25.0315 18.5256 24.7862C17.9455 24.541 17.4915 24.183 17.1634 23.7124C16.8385 23.2417 16.6629 22.6683 16.6364 21.9922H18.451C18.4775 22.3468 18.5869 22.6418 18.7791 22.8771C18.9714 23.1125 19.2216 23.2881 19.5298 23.4041C19.8414 23.5201 20.1894 23.5781 20.5739 23.5781C20.9749 23.5781 21.3262 23.5185 21.6278 23.3991C21.9328 23.2765 22.1714 23.1075 22.3438 22.892C22.5161 22.6733 22.6039 22.4181 22.6072 22.1264C22.6039 21.8613 22.526 21.6425 22.3736 21.4702C22.2211 21.2945 22.0073 21.1487 21.7322 21.0327C21.4605 20.9134 21.1423 20.8073 20.7777 20.7145L19.6193 20.4162C18.7808 20.2008 18.1179 19.8743 17.6307 19.4368C17.1468 18.996 16.9048 18.411 16.9048 17.6818C16.9048 17.0819 17.0672 16.5566 17.392 16.1058C17.7202 15.6551 18.166 15.3054 18.7294 15.0568C19.2929 14.8049 19.9309 14.679 20.6435 14.679C21.366 14.679 21.9991 14.8049 22.5426 15.0568C23.0895 15.3054 23.5187 15.6518 23.8303 16.0959C24.1418 16.5367 24.3026 17.0438 24.3125 17.6172H22.5376ZM29.3972 25.1491C28.6316 25.1491 27.9703 24.9901 27.4135 24.6719C26.86 24.3504 26.4341 23.8963 26.1358 23.3097C25.8375 22.7197 25.6884 22.0253 25.6884 21.2266C25.6884 20.4411 25.8375 19.7517 26.1358 19.1584C26.4374 18.5618 26.8584 18.0978 27.3986 17.7663C27.9389 17.4316 28.5736 17.2642 29.3027 17.2642C29.7734 17.2642 30.2175 17.3404 30.6351 17.4929C31.056 17.642 31.4273 17.8741 31.7488 18.1889C32.0736 18.5038 32.3288 18.9048 32.5144 19.392C32.7 19.8759 32.7928 20.4527 32.7928 21.1222V21.674H26.5336V20.4609H31.0676C31.0643 20.1162 30.9898 19.8097 30.8439 19.5412C30.6981 19.2694 30.4943 19.0556 30.2324 18.8999C29.9739 18.7441 29.6723 18.6662 29.3276 18.6662C28.9597 18.6662 28.6365 18.7557 28.3581 18.9347C28.0797 19.1103 27.8626 19.3423 27.7069 19.6307C27.5544 19.9157 27.4765 20.2289 27.4732 20.5703V21.6293C27.4732 22.0734 27.5544 22.4545 27.7168 22.7727C27.8792 23.0876 28.1062 23.3295 28.3979 23.4986C28.6896 23.6643 29.031 23.7472 29.4221 23.7472C29.6839 23.7472 29.9209 23.7107 30.133 23.6378C30.3451 23.5616 30.5291 23.4505 30.6848 23.3047C30.8406 23.1589 30.9583 22.9782 31.0378 22.7628L32.7182 22.9517C32.6122 23.3958 32.41 23.7836 32.1117 24.1151C31.8167 24.4432 31.4389 24.6984 30.9782 24.8807C30.5175 25.0597 29.9905 25.1491 29.3972 25.1491ZM34.3153 25V17.3636H36.0604V18.6364H36.1399C36.2791 18.1955 36.5178 17.8558 36.8558 17.6172C37.1972 17.3752 37.5866 17.2543 38.0241 17.2543C38.1236 17.2543 38.2346 17.2592 38.3572 17.2692C38.4832 17.2758 38.5876 17.2874 38.6705 17.304V18.9595C38.5942 18.933 38.4732 18.9098 38.3075 18.8899C38.1451 18.8667 37.9877 18.8551 37.8352 18.8551C37.5071 18.8551 37.2121 18.9264 36.9503 19.0689C36.6918 19.2081 36.4879 19.402 36.3388 19.6506C36.1896 19.8991 36.1151 20.1858 36.1151 20.5107V25H34.3153ZM46.9196 17.3636L44.2001 25H42.2115L39.492 17.3636H41.411L43.166 23.0362H43.2456L45.0055 17.3636H46.9196ZM48.165 25V17.3636H49.9647V25H48.165ZM49.0698 16.2798C48.7847 16.2798 48.5395 16.1854 48.334 15.9964C48.1285 15.8042 48.0257 15.5739 48.0257 15.3054C48.0257 15.0336 48.1285 14.8033 48.334 14.6143C48.5395 14.4221 48.7847 14.326 49.0698 14.326C49.3581 14.326 49.6034 14.4221 49.8056 14.6143C50.0111 14.8033 50.1138 15.0336 50.1138 15.3054C50.1138 15.5739 50.0111 15.8042 49.8056 15.9964C49.6034 16.1854 49.3581 16.2798 49.0698 16.2798ZM55.1463 25.1491C54.384 25.1491 53.7294 24.9818 53.1825 24.647C52.639 24.3123 52.2197 23.8499 51.9247 23.2599C51.633 22.6667 51.4872 21.9839 51.4872 21.2116C51.4872 20.4361 51.6364 19.7517 51.9347 19.1584C52.233 18.5618 52.6539 18.0978 53.1974 17.7663C53.7443 17.4316 54.3906 17.2642 55.1364 17.2642C55.7562 17.2642 56.3047 17.3786 56.782 17.6072C57.2625 17.8326 57.6454 18.1525 57.9304 18.5668C58.2154 18.9777 58.3778 19.4583 58.4176 20.0085H56.6974C56.6278 19.6406 56.4621 19.334 56.2003 19.0888C55.9418 18.8402 55.5954 18.7159 55.1612 18.7159C54.7933 18.7159 54.4702 18.8153 54.1918 19.0142C53.9134 19.2098 53.6963 19.4915 53.5405 19.8594C53.388 20.2273 53.3118 20.6681 53.3118 21.1818C53.3118 21.7022 53.388 22.1496 53.5405 22.5241C53.6929 22.8954 53.9067 23.1821 54.1818 23.3842C54.4602 23.5831 54.7867 23.6825 55.1612 23.6825C55.4264 23.6825 55.6634 23.6328 55.8722 23.5334C56.0843 23.4306 56.2616 23.2831 56.4041 23.0909C56.5466 22.8987 56.6444 22.665 56.6974 22.3899H58.4176C58.3745 22.9302 58.2154 23.4091 57.9403 23.8267C57.6652 24.241 57.2907 24.5658 56.8168 24.8011C56.3428 25.0331 55.786 25.1491 55.1463 25.1491ZM63.2761 25.1491C62.5105 25.1491 61.8493 24.9901 61.2924 24.6719C60.7389 24.3504 60.313 23.8963 60.0147 23.3097C59.7164 22.7197 59.5673 22.0253 59.5673 21.2266C59.5673 20.4411 59.7164 19.7517 60.0147 19.1584C60.3163 18.5618 60.7373 18.0978 61.2775 17.7663C61.8178 17.4316 62.4525 17.2642 63.1816 17.2642C63.6523 17.2642 64.0964 17.3404 64.514 17.4929C64.935 17.642 65.3062 17.8741 65.6277 18.1889C65.9525 18.5038 66.2077 18.9048 66.3933 19.392C66.5789 19.8759 66.6717 20.4527 66.6717 21.1222V21.674H60.4125V20.4609H64.9466C64.9432 20.1162 64.8687 19.8097 64.7228 19.5412C64.577 19.2694 64.3732 19.0556 64.1113 18.8999C63.8528 18.7441 63.5512 18.6662 63.2065 18.6662C62.8386 18.6662 62.5154 18.7557 62.237 18.9347C61.9586 19.1103 61.7415 19.3423 61.5858 19.6307C61.4333 19.9157 61.3554 20.2289 61.3521 20.5703V21.6293C61.3521 22.0734 61.4333 22.4545 61.5957 22.7727C61.7581 23.0876 61.9851 23.3295 62.2768 23.4986C62.5685 23.6643 62.9099 23.7472 63.301 23.7472C63.5628 23.7472 63.7998 23.7107 64.0119 23.6378C64.224 23.5616 64.408 23.4505 64.5637 23.3047C64.7195 23.1589 64.8372 22.9782 64.9167 22.7628L66.5971 22.9517C66.4911 23.3958 66.2889 23.7836 65.9906 24.1151C65.6956 24.4432 65.3178 24.6984 64.8571 24.8807C64.3964 25.0597 63.8694 25.1491 63.2761 25.1491ZM77.2798 17.6172C77.2334 17.183 77.0379 16.8449 76.6932 16.603C76.3518 16.361 75.9077 16.2401 75.3608 16.2401C74.9763 16.2401 74.6465 16.2981 74.3714 16.4141C74.0964 16.5301 73.8859 16.6875 73.7401 16.8864C73.5942 17.0852 73.5196 17.3123 73.5163 17.5675C73.5163 17.7796 73.5644 17.9635 73.6605 18.1193C73.7599 18.2751 73.8942 18.4077 74.0632 18.517C74.2322 18.6231 74.4195 18.7126 74.625 18.7855C74.8305 18.8584 75.0376 18.9197 75.2464 18.9695L76.201 19.2081C76.5855 19.2976 76.955 19.4186 77.3097 19.571C77.6676 19.7235 77.9875 19.9157 78.2692 20.1477C78.5542 20.3797 78.7796 20.6598 78.9453 20.9879C79.111 21.3161 79.1939 21.7005 79.1939 22.1413C79.1939 22.7379 79.0414 23.2633 78.7365 23.7173C78.4316 24.1681 77.9908 24.5211 77.4141 24.7763C76.8407 25.0282 76.1463 25.1541 75.331 25.1541C74.5388 25.1541 73.8511 25.0315 73.2678 24.7862C72.6877 24.541 72.2337 24.183 71.9055 23.7124C71.5807 23.2417 71.4051 22.6683 71.3786 21.9922H73.1932C73.2197 22.3468 73.3291 22.6418 73.5213 22.8771C73.7135 23.1125 73.9638 23.2881 74.272 23.4041C74.5836 23.5201 74.9316 23.5781 75.3161 23.5781C75.7171 23.5781 76.0684 23.5185 76.37 23.3991C76.675 23.2765 76.9136 23.1075 77.0859 22.892C77.2583 22.6733 77.3461 22.4181 77.3494 22.1264C77.3461 21.8613 77.2682 21.6425 77.1158 21.4702C76.9633 21.2945 76.7495 21.1487 76.4744 21.0327C76.2027 20.9134 75.8845 20.8073 75.5199 20.7145L74.3615 20.4162C73.523 20.2008 72.8601 19.8743 72.3729 19.4368C71.889 18.996 71.647 18.411 71.647 17.6818C71.647 17.0819 71.8094 16.5566 72.1342 16.1058C72.4624 15.6551 72.9081 15.3054 73.4716 15.0568C74.035 14.8049 74.6731 14.679 75.3857 14.679C76.1082 14.679 76.7412 14.8049 77.2848 15.0568C77.8317 15.3054 78.2609 15.6518 78.5724 16.0959C78.884 16.5367 79.0447 17.0438 79.0547 17.6172H77.2798ZM84.5719 17.3636V18.7557H80.182V17.3636H84.5719ZM81.2658 15.5341H83.0655V22.7031C83.0655 22.9451 83.102 23.1307 83.1749 23.2599C83.2511 23.3859 83.3506 23.4721 83.4732 23.5185C83.5958 23.5649 83.7317 23.5881 83.8809 23.5881C83.9935 23.5881 84.0963 23.5798 84.1891 23.5632C84.2852 23.5466 84.3581 23.5317 84.4078 23.5185L84.7111 24.9254C84.615 24.9586 84.4775 24.995 84.2985 25.0348C84.1228 25.0746 83.9074 25.0978 83.6522 25.1044C83.2014 25.1177 82.7954 25.0497 82.4341 24.9006C82.0729 24.7481 81.7862 24.5128 81.574 24.1946C81.3652 23.8764 81.2625 23.4787 81.2658 23.0014V15.5341ZM88.2745 25.1541C87.7906 25.1541 87.3548 25.0679 86.967 24.8956C86.5825 24.7199 86.2776 24.4614 86.0522 24.12C85.8301 23.7786 85.7191 23.3577 85.7191 22.8572C85.7191 22.4264 85.7987 22.0701 85.9577 21.7884C86.1168 21.5066 86.3339 21.2812 86.609 21.1122C86.8841 20.9432 87.194 20.8156 87.5387 20.7294C87.8867 20.6399 88.2463 20.5753 88.6175 20.5355C89.065 20.4891 89.4279 20.4477 89.7063 20.4112C89.9847 20.3714 90.1869 20.3118 90.3129 20.2322C90.4421 20.1494 90.5067 20.0218 90.5067 19.8494V19.8196C90.5067 19.4451 90.3957 19.1551 90.1737 18.9496C89.9516 18.7441 89.6317 18.6413 89.2141 18.6413C88.7733 18.6413 88.4237 18.7375 88.1651 18.9297C87.9099 19.1219 87.7376 19.349 87.6481 19.6108L85.9677 19.3722C86.1003 18.9081 86.319 18.5204 86.6239 18.2088C86.9289 17.8939 87.3017 17.6586 87.7425 17.5028C88.1834 17.3438 88.6706 17.2642 89.2042 17.2642C89.5721 17.2642 89.9383 17.3073 90.3029 17.3935C90.6675 17.4796 91.0006 17.6222 91.3022 17.821C91.6038 18.0166 91.8458 18.2834 92.0281 18.6214C92.2137 18.9595 92.3065 19.3821 92.3065 19.8892V25H90.5763V23.951H90.5167C90.4073 24.1631 90.2532 24.362 90.0543 24.5476C89.8588 24.7299 89.6119 24.8774 89.3136 24.9901C89.0186 25.0994 88.6722 25.1541 88.2745 25.1541ZM88.7418 23.8317C89.1031 23.8317 89.4163 23.7604 89.6815 23.6179C89.9466 23.4721 90.1504 23.2798 90.293 23.0412C90.4388 22.8026 90.5117 22.5424 90.5117 22.2607V21.3608C90.4554 21.4072 90.3593 21.4503 90.2234 21.4901C90.0908 21.5298 89.9416 21.5646 89.7759 21.5945C89.6102 21.6243 89.4461 21.6508 89.2837 21.674C89.1213 21.6972 88.9805 21.7171 88.8612 21.7337C88.5927 21.7701 88.3524 21.8298 88.1403 21.9126C87.9281 21.9955 87.7608 22.1115 87.6381 22.2607C87.5155 22.4065 87.4542 22.5954 87.4542 22.8274C87.4542 23.1589 87.5752 23.4091 87.8171 23.5781C88.0591 23.7472 88.3673 23.8317 88.7418 23.8317ZM97.9293 17.3636V18.7557H93.5394V17.3636H97.9293ZM94.6232 15.5341H96.4229V22.7031C96.4229 22.9451 96.4594 23.1307 96.5323 23.2599C96.6085 23.3859 96.708 23.4721 96.8306 23.5185C96.9532 23.5649 97.0891 23.5881 97.2383 23.5881C97.351 23.5881 97.4537 23.5798 97.5465 23.5632C97.6426 23.5466 97.7156 23.5317 97.7653 23.5185L98.0685 24.9254C97.9724 24.9586 97.8349 24.995 97.6559 25.0348C97.4802 25.0746 97.2648 25.0978 97.0096 25.1044C96.5588 25.1177 96.1528 25.0497 95.7915 24.9006C95.4303 24.7481 95.1436 24.5128 94.9315 24.1946C94.7227 23.8764 94.6199 23.4787 94.6232 23.0014V15.5341ZM104.302 21.7884V17.3636H106.101V25H104.356V23.6428H104.277C104.104 24.0703 103.821 24.42 103.427 24.6918C103.036 24.9635 102.553 25.0994 101.98 25.0994C101.479 25.0994 101.037 24.9884 100.653 24.7663C100.271 24.541 99.9731 24.2145 99.7576 23.7869C99.5422 23.3561 99.4345 22.8357 99.4345 22.2259V17.3636H101.234V21.9474C101.234 22.4313 101.367 22.8158 101.632 23.1009C101.897 23.3859 102.245 23.5284 102.676 23.5284C102.941 23.5284 103.198 23.4638 103.447 23.3345C103.695 23.2053 103.899 23.013 104.058 22.7578C104.22 22.4993 104.302 22.1761 104.302 21.7884ZM113.988 19.3821L112.347 19.5611C112.301 19.3954 112.219 19.2396 112.103 19.0938C111.991 18.9479 111.838 18.8303 111.646 18.7408C111.454 18.6513 111.218 18.6065 110.94 18.6065C110.565 18.6065 110.251 18.6877 109.995 18.8501C109.743 19.0125 109.619 19.223 109.623 19.4815C109.619 19.7036 109.7 19.8842 109.866 20.0234C110.035 20.1626 110.314 20.277 110.701 20.3665L112.004 20.6449C112.726 20.8007 113.263 21.0476 113.615 21.3857C113.969 21.7237 114.148 22.1662 114.152 22.7131C114.148 23.1937 114.007 23.6179 113.729 23.9858C113.454 24.3504 113.071 24.6354 112.581 24.8409C112.09 25.0464 111.527 25.1491 110.89 25.1491C109.956 25.1491 109.203 24.9536 108.633 24.5625C108.063 24.1681 107.723 23.6196 107.614 22.9169L109.369 22.7479C109.449 23.0926 109.618 23.3527 109.876 23.5284C110.135 23.7041 110.471 23.7919 110.885 23.7919C111.313 23.7919 111.656 23.7041 111.914 23.5284C112.176 23.3527 112.307 23.1357 112.307 22.8771C112.307 22.6584 112.223 22.4777 112.054 22.3352C111.888 22.1927 111.629 22.0833 111.278 22.0071L109.975 21.7337C109.243 21.5812 108.701 21.3243 108.35 20.9631C107.998 20.5985 107.824 20.1378 107.828 19.581C107.824 19.1103 107.952 18.7027 108.211 18.358C108.472 18.0099 108.835 17.7415 109.299 17.5526C109.767 17.3603 110.305 17.2642 110.915 17.2642C111.81 17.2642 112.514 17.4548 113.028 17.8359C113.545 18.2171 113.865 18.7325 113.988 19.3821ZM17.696 45H16.2983L19.4389 36.2727H20.9602L24.1009 45H22.7031L20.2358 37.858H20.1676L17.696 45ZM17.9304 41.5824H22.4645V42.6903H17.9304V41.5824ZM26.533 36.2727V45H25.2589V36.2727H26.533ZM29.5213 36.2727V45H28.2472V36.2727H29.5213ZM39.3161 40.0526L38.1612 40.2571C38.1129 40.1094 38.0362 39.9687 37.9311 39.8352C37.8288 39.7017 37.6896 39.5923 37.5135 39.5071C37.3374 39.4219 37.1172 39.3793 36.853 39.3793C36.4922 39.3793 36.1911 39.4602 35.9496 39.6222C35.7081 39.7812 35.5874 39.9872 35.5874 40.2401C35.5874 40.4588 35.6683 40.6349 35.8303 40.7685C35.9922 40.902 36.2536 41.0114 36.6143 41.0966L37.6541 41.3352C38.2564 41.4744 38.7053 41.6889 39.0007 41.9787C39.2962 42.2685 39.4439 42.6449 39.4439 43.108C39.4439 43.5 39.3303 43.8494 39.103 44.1562C38.8786 44.4602 38.5646 44.6989 38.1612 44.8722C37.7607 45.0455 37.2962 45.1321 36.7678 45.1321C36.0348 45.1321 35.4368 44.9759 34.9737 44.6634C34.5107 44.348 34.2266 43.9006 34.1214 43.321L35.353 43.1335C35.4297 43.4545 35.5874 43.6974 35.826 43.8622C36.0646 44.0241 36.3757 44.1051 36.7592 44.1051C37.1768 44.1051 37.5107 44.0185 37.7607 43.8452C38.0107 43.669 38.1357 43.4545 38.1357 43.2017C38.1357 42.9972 38.0589 42.8253 37.9055 42.6861C37.755 42.5469 37.5234 42.4418 37.2109 42.3707L36.103 42.1278C35.4922 41.9886 35.0405 41.767 34.7479 41.4631C34.4581 41.1591 34.3132 40.7741 34.3132 40.3082C34.3132 39.9219 34.4212 39.5838 34.6371 39.294C34.853 39.0043 35.1513 38.7784 35.532 38.6165C35.9126 38.4517 36.3487 38.3693 36.8402 38.3693C37.5476 38.3693 38.1044 38.5227 38.5107 38.8295C38.9169 39.1335 39.1854 39.5412 39.3161 40.0526ZM41.6502 47.4545C41.4599 47.4545 41.2866 47.4389 41.1303 47.4077C40.9741 47.3793 40.8576 47.348 40.7809 47.3139L41.0877 46.2699C41.3207 46.3324 41.5281 46.3594 41.7099 46.3509C41.8917 46.3423 42.0522 46.2741 42.1914 46.1463C42.3335 46.0185 42.4585 45.8097 42.5664 45.5199L42.7241 45.0852L40.3292 38.4545H41.6928L43.3505 43.5341H43.4187L45.0763 38.4545H46.4442L43.7468 45.8736C43.6218 46.2145 43.4627 46.5028 43.2695 46.7386C43.0763 46.9773 42.8462 47.1563 42.5792 47.2756C42.3121 47.3949 42.0025 47.4545 41.6502 47.4545ZM52.5465 40.0526L51.3917 40.2571C51.3434 40.1094 51.2667 39.9687 51.1616 39.8352C51.0593 39.7017 50.9201 39.5923 50.744 39.5071C50.5678 39.4219 50.3477 39.3793 50.0835 39.3793C49.7227 39.3793 49.4215 39.4602 49.18 39.6222C48.9386 39.7812 48.8178 39.9872 48.8178 40.2401C48.8178 40.4588 48.8988 40.6349 49.0607 40.7685C49.2227 40.902 49.484 41.0114 49.8448 41.0966L50.8846 41.3352C51.4869 41.4744 51.9357 41.6889 52.2312 41.9787C52.5266 42.2685 52.6744 42.6449 52.6744 43.108C52.6744 43.5 52.5607 43.8494 52.3335 44.1562C52.109 44.4602 51.7951 44.6989 51.3917 44.8722C50.9911 45.0455 50.5266 45.1321 49.9982 45.1321C49.2653 45.1321 48.6673 44.9759 48.2042 44.6634C47.7411 44.348 47.457 43.9006 47.3519 43.321L48.5835 43.1335C48.6602 43.4545 48.8178 43.6974 49.0565 43.8622C49.2951 44.0241 49.6062 44.1051 49.9897 44.1051C50.4073 44.1051 50.7411 44.0185 50.9911 43.8452C51.2411 43.669 51.3661 43.4545 51.3661 43.2017C51.3661 42.9972 51.2894 42.8253 51.136 42.6861C50.9854 42.5469 50.7539 42.4418 50.4414 42.3707L49.3335 42.1278C48.7227 41.9886 48.271 41.767 47.9783 41.4631C47.6886 41.1591 47.5437 40.7741 47.5437 40.3082C47.5437 39.9219 47.6516 39.5838 47.8675 39.294C48.0835 39.0043 48.3817 38.7784 48.7624 38.6165C49.1431 38.4517 49.5792 38.3693 50.0707 38.3693C50.7781 38.3693 51.3349 38.5227 51.7411 38.8295C52.1474 39.1335 52.4158 39.5412 52.5465 40.0526ZM57.1307 38.4545V39.4773H53.5554V38.4545H57.1307ZM54.5142 36.8864H55.7884V43.0781C55.7884 43.3253 55.8253 43.5114 55.8991 43.6364C55.973 43.7585 56.0682 43.8423 56.1847 43.8878C56.304 43.9304 56.4332 43.9517 56.5724 43.9517C56.6747 43.9517 56.7642 43.9446 56.8409 43.9304C56.9176 43.9162 56.9773 43.9048 57.0199 43.8963L57.25 44.9489C57.1761 44.9773 57.071 45.0057 56.9347 45.0341C56.7983 45.0653 56.6278 45.0824 56.4233 45.0852C56.0881 45.0909 55.7756 45.0312 55.4858 44.9062C55.196 44.7812 54.9616 44.5881 54.7827 44.3267C54.6037 44.0653 54.5142 43.7372 54.5142 43.3423V36.8864ZM61.2908 45.1321C60.646 45.1321 60.0906 44.9943 59.6246 44.7188C59.1616 44.4403 58.8036 44.0497 58.5508 43.5469C58.3008 43.0412 58.1758 42.4489 58.1758 41.7699C58.1758 41.0994 58.3008 40.5085 58.5508 39.9972C58.8036 39.4858 59.1559 39.0866 59.6076 38.7997C60.0621 38.5128 60.5934 38.3693 61.2013 38.3693C61.5707 38.3693 61.9286 38.4304 62.2752 38.5526C62.6218 38.6747 62.9329 38.8665 63.2085 39.1278C63.484 39.3892 63.7013 39.7287 63.8604 40.1463C64.0195 40.5611 64.0991 41.0653 64.0991 41.6591V42.1108H58.896V41.1562H62.8505C62.8505 40.821 62.7823 40.5241 62.646 40.2656C62.5096 40.0043 62.3178 39.7983 62.0707 39.6477C61.8263 39.4972 61.5394 39.4219 61.2099 39.4219C60.8519 39.4219 60.5394 39.5099 60.2724 39.6861C60.0082 39.8594 59.8036 40.0866 59.6587 40.3679C59.5167 40.6463 59.4457 40.9489 59.4457 41.2756V42.0213C59.4457 42.4588 59.5224 42.831 59.6758 43.1378C59.832 43.4446 60.0494 43.679 60.3278 43.8409C60.6062 44 60.9315 44.0795 61.3036 44.0795C61.5451 44.0795 61.7653 44.0455 61.9641 43.9773C62.163 43.9062 62.3349 43.8011 62.4798 43.6619C62.6246 43.5227 62.7354 43.3509 62.8121 43.1463L64.0181 43.3636C63.9215 43.7187 63.7482 44.0298 63.4982 44.2969C63.2511 44.5611 62.94 44.767 62.565 44.9148C62.1928 45.0597 61.7681 45.1321 61.2908 45.1321ZM65.5128 45V38.4545H66.7358V39.5199H66.8168C66.9531 39.1591 67.1761 38.8778 67.4858 38.6761C67.7955 38.4716 68.1662 38.3693 68.598 38.3693C69.0355 38.3693 69.402 38.4716 69.6974 38.6761C69.9957 38.8807 70.2159 39.1619 70.358 39.5199H70.4261C70.5824 39.1705 70.831 38.892 71.1719 38.6847C71.5128 38.4744 71.919 38.3693 72.3906 38.3693C72.9844 38.3693 73.4688 38.5554 73.8438 38.9276C74.2216 39.2997 74.4105 39.8608 74.4105 40.6108V45H73.1364V40.7301C73.1364 40.2869 73.0156 39.9659 72.7741 39.767C72.5327 39.5682 72.2443 39.4688 71.9091 39.4688C71.4943 39.4688 71.1719 39.5966 70.9418 39.8523C70.7116 40.1051 70.5966 40.4304 70.5966 40.8281V45H69.3267V40.6491C69.3267 40.294 69.2159 40.0085 68.9943 39.7926C68.7727 39.5767 68.4844 39.4688 68.1293 39.4688C67.8878 39.4688 67.6648 39.5327 67.4602 39.6605C67.2585 39.7855 67.0952 39.9602 66.9702 40.1847C66.848 40.4091 66.7869 40.669 66.7869 40.9645V45H65.5128ZM81.0231 40.0526L79.8683 40.2571C79.82 40.1094 79.7433 39.9687 79.6381 39.8352C79.5359 39.7017 79.3967 39.5923 79.2205 39.5071C79.0444 39.4219 78.8242 39.3793 78.56 39.3793C78.1992 39.3793 77.8981 39.4602 77.6566 39.6222C77.4151 39.7812 77.2944 39.9872 77.2944 40.2401C77.2944 40.4588 77.3754 40.6349 77.5373 40.7685C77.6992 40.902 77.9606 41.0114 78.3214 41.0966L79.3612 41.3352C79.9634 41.4744 80.4123 41.6889 80.7077 41.9787C81.0032 42.2685 81.1509 42.6449 81.1509 43.108C81.1509 43.5 81.0373 43.8494 80.81 44.1562C80.5856 44.4602 80.2717 44.6989 79.8683 44.8722C79.4677 45.0455 79.0032 45.1321 78.4748 45.1321C77.7418 45.1321 77.1438 44.9759 76.6808 44.6634C76.2177 44.348 75.9336 43.9006 75.8285 43.321L77.06 43.1335C77.1367 43.4545 77.2944 43.6974 77.533 43.8622C77.7717 44.0241 78.0827 44.1051 78.4663 44.1051C78.8839 44.1051 79.2177 44.0185 79.4677 43.8452C79.7177 43.669 79.8427 43.4545 79.8427 43.2017C79.8427 42.9972 79.766 42.8253 79.6126 42.6861C79.462 42.5469 79.2305 42.4418 78.918 42.3707L77.81 42.1278C77.1992 41.9886 76.7475 41.767 76.4549 41.4631C76.1651 41.1591 76.0202 40.7741 76.0202 40.3082C76.0202 39.9219 76.1282 39.5838 76.3441 39.294C76.56 39.0043 76.8583 38.7784 77.239 38.6165C77.6197 38.4517 78.0558 38.3693 78.5472 38.3693C79.2546 38.3693 79.8114 38.5227 80.2177 38.8295C80.6239 39.1335 80.8924 39.5412 81.0231 40.0526ZM88.4847 45.1321C87.8711 45.1321 87.3356 44.9915 86.8782 44.7102C86.4208 44.429 86.0657 44.0355 85.8129 43.5298C85.56 43.0241 85.4336 42.4332 85.4336 41.7571C85.4336 41.0781 85.56 40.4844 85.8129 39.9759C86.0657 39.4673 86.4208 39.0724 86.8782 38.7912C87.3356 38.5099 87.8711 38.3693 88.4847 38.3693C89.0984 38.3693 89.6339 38.5099 90.0913 38.7912C90.5487 39.0724 90.9038 39.4673 91.1566 39.9759C91.4094 40.4844 91.5359 41.0781 91.5359 41.7571C91.5359 42.4332 91.4094 43.0241 91.1566 43.5298C90.9038 44.0355 90.5487 44.429 90.0913 44.7102C89.6339 44.9915 89.0984 45.1321 88.4847 45.1321ZM88.489 44.0625C88.8867 44.0625 89.2163 43.9574 89.4776 43.7472C89.739 43.5369 89.9322 43.2571 90.0572 42.9077C90.185 42.5582 90.2489 42.1733 90.2489 41.7528C90.2489 41.3352 90.185 40.9517 90.0572 40.6023C89.9322 40.25 89.739 39.9673 89.4776 39.7543C89.2163 39.5412 88.8867 39.4347 88.489 39.4347C88.0884 39.4347 87.756 39.5412 87.4918 39.7543C87.2305 39.9673 87.0359 40.25 86.908 40.6023C86.783 40.9517 86.7205 41.3352 86.7205 41.7528C86.7205 42.1733 86.783 42.5582 86.908 42.9077C87.0359 43.2571 87.2305 43.5369 87.4918 43.7472C87.756 43.9574 88.0884 44.0625 88.489 44.0625ZM92.9581 47.4545V38.4545H94.2024V39.5156H94.3089C94.3828 39.3793 94.4893 39.2216 94.6286 39.0426C94.7678 38.8636 94.9609 38.7074 95.2081 38.5739C95.4553 38.4375 95.782 38.3693 96.1882 38.3693C96.7166 38.3693 97.1882 38.5028 97.603 38.7699C98.0178 39.0369 98.343 39.4219 98.5788 39.9247C98.8175 40.4276 98.9368 41.0327 98.9368 41.7401C98.9368 42.4474 98.8189 43.054 98.5831 43.5597C98.3473 44.0625 98.0234 44.4503 97.6115 44.723C97.1996 44.9929 96.7294 45.1278 96.201 45.1278C95.8033 45.1278 95.478 45.0611 95.2251 44.9276C94.9751 44.794 94.7791 44.6378 94.6371 44.4588C94.495 44.2798 94.3857 44.1207 94.3089 43.9815H94.2322V47.4545H92.9581ZM94.2067 41.7273C94.2067 42.1875 94.2734 42.5909 94.407 42.9375C94.5405 43.2841 94.7337 43.5554 94.9865 43.7514C95.2393 43.9446 95.549 44.0412 95.9155 44.0412C96.2962 44.0412 96.6143 43.9403 96.87 43.7386C97.1257 43.5341 97.3189 43.2571 97.4496 42.9077C97.5831 42.5582 97.6499 42.1648 97.6499 41.7273C97.6499 41.2955 97.5845 40.9077 97.4538 40.5639C97.326 40.2202 97.1328 39.9489 96.8743 39.75C96.6186 39.5511 96.299 39.4517 95.9155 39.4517C95.5462 39.4517 95.2337 39.5469 94.978 39.7372C94.7251 39.9276 94.5334 40.1932 94.4027 40.5341C94.272 40.875 94.2067 41.2727 94.2067 41.7273ZM103.185 45.1321C102.54 45.1321 101.985 44.9943 101.519 44.7188C101.056 44.4403 100.698 44.0497 100.445 43.5469C100.195 43.0412 100.07 42.4489 100.07 41.7699C100.07 41.0994 100.195 40.5085 100.445 39.9972C100.698 39.4858 101.05 39.0866 101.502 38.7997C101.957 38.5128 102.488 38.3693 103.096 38.3693C103.465 38.3693 103.823 38.4304 104.17 38.5526C104.516 38.6747 104.827 38.8665 105.103 39.1278C105.379 39.3892 105.596 39.7287 105.755 40.1463C105.914 40.5611 105.994 41.0653 105.994 41.6591V42.1108H100.79V41.1562H104.745C104.745 40.821 104.677 40.5241 104.54 40.2656C104.404 40.0043 104.212 39.7983 103.965 39.6477C103.721 39.4972 103.434 39.4219 103.104 39.4219C102.746 39.4219 102.434 39.5099 102.167 39.6861C101.903 39.8594 101.698 40.0866 101.553 40.3679C101.411 40.6463 101.34 40.9489 101.34 41.2756V42.0213C101.34 42.4588 101.417 42.831 101.57 43.1378C101.727 43.4446 101.944 43.679 102.222 43.8409C102.501 44 102.826 44.0795 103.198 44.0795C103.44 44.0795 103.66 44.0455 103.859 43.9773C104.058 43.9062 104.229 43.8011 104.374 43.6619C104.519 43.5227 104.63 43.3509 104.707 43.1463L105.913 43.3636C105.816 43.7187 105.643 44.0298 105.393 44.2969C105.146 44.5611 104.835 44.767 104.46 44.9148C104.087 45.0597 103.663 45.1321 103.185 45.1321ZM107.407 45V38.4545H108.639V39.4943H108.707C108.826 39.142 109.037 38.8651 109.338 38.6634C109.642 38.4588 109.985 38.3565 110.369 38.3565C110.449 38.3565 110.542 38.3594 110.65 38.3651C110.761 38.3707 110.848 38.3778 110.91 38.3864V39.6051C110.859 39.5909 110.768 39.5753 110.637 39.5582C110.507 39.5384 110.376 39.5284 110.245 39.5284C109.944 39.5284 109.676 39.5923 109.44 39.7202C109.207 39.8452 109.022 40.0199 108.886 40.2443C108.75 40.4659 108.681 40.7187 108.681 41.0028V45H107.407ZM113.859 45.1449C113.444 45.1449 113.069 45.0682 112.734 44.9148C112.399 44.7585 112.133 44.5327 111.937 44.2372C111.744 43.9418 111.647 43.5795 111.647 43.1506C111.647 42.7812 111.718 42.4773 111.86 42.2386C112.002 42 112.194 41.8111 112.436 41.6719C112.677 41.5327 112.947 41.4276 113.245 41.3565C113.544 41.2855 113.848 41.2315 114.157 41.1946C114.549 41.1491 114.868 41.1122 115.112 41.0838C115.356 41.0526 115.534 41.0028 115.645 40.9347C115.755 40.8665 115.811 40.7557 115.811 40.6023V40.5724C115.811 40.2003 115.706 39.9119 115.495 39.7074C115.288 39.5028 114.978 39.4006 114.566 39.4006C114.137 39.4006 113.799 39.4957 113.552 39.6861C113.308 39.8736 113.139 40.0824 113.045 40.3125L111.848 40.0398C111.99 39.642 112.197 39.321 112.47 39.0767C112.745 38.8295 113.062 38.6506 113.42 38.5398C113.778 38.4261 114.154 38.3693 114.549 38.3693C114.811 38.3693 115.088 38.4006 115.38 38.4631C115.676 38.5227 115.951 38.6335 116.207 38.7955C116.466 38.9574 116.677 39.1889 116.842 39.4901C117.007 39.7884 117.089 40.1761 117.089 40.6534V45H115.845V44.1051H115.794C115.711 44.2699 115.588 44.4318 115.423 44.5909C115.258 44.75 115.047 44.8821 114.788 44.9872C114.529 45.0923 114.22 45.1449 113.859 45.1449ZM114.136 44.1222C114.488 44.1222 114.789 44.0526 115.039 43.9134C115.292 43.7741 115.484 43.5923 115.615 43.3679C115.748 43.1406 115.815 42.8977 115.815 42.6392V41.7955C115.77 41.8409 115.681 41.8835 115.551 41.9233C115.423 41.9602 115.277 41.9929 115.112 42.0213C114.947 42.0469 114.787 42.071 114.63 42.0938C114.474 42.1136 114.343 42.1307 114.238 42.1449C113.991 42.1761 113.765 42.2287 113.561 42.3026C113.359 42.3764 113.197 42.483 113.075 42.6222C112.956 42.7585 112.896 42.9403 112.896 43.1676C112.896 43.483 113.012 43.7216 113.245 43.8835C113.478 44.0426 113.775 44.1222 114.136 44.1222ZM121.842 38.4545V39.4773H118.266V38.4545H121.842ZM119.225 36.8864H120.499V43.0781C120.499 43.3253 120.536 43.5114 120.61 43.6364C120.684 43.7585 120.779 43.8423 120.896 43.8878C121.015 43.9304 121.144 43.9517 121.283 43.9517C121.386 43.9517 121.475 43.9446 121.552 43.9304C121.629 43.9162 121.688 43.9048 121.731 43.8963L121.961 44.9489C121.887 44.9773 121.782 45.0057 121.646 45.0341C121.509 45.0653 121.339 45.0824 121.134 45.0852C120.799 45.0909 120.487 45.0312 120.197 44.9062C119.907 44.7812 119.673 44.5881 119.494 44.3267C119.315 44.0653 119.225 43.7372 119.225 43.3423V36.8864ZM123.251 45V38.4545H124.525V45H123.251ZM123.895 37.4446C123.673 37.4446 123.483 37.3707 123.324 37.223C123.167 37.0724 123.089 36.8935 123.089 36.6861C123.089 36.4759 123.167 36.2969 123.324 36.1491C123.483 35.9986 123.673 35.9233 123.895 35.9233C124.116 35.9233 124.305 35.9986 124.461 36.1491C124.62 36.2969 124.7 36.4759 124.7 36.6861C124.7 36.8935 124.62 37.0724 124.461 37.223C124.305 37.3707 124.116 37.4446 123.895 37.4446ZM128.996 45.1321C128.383 45.1321 127.847 44.9915 127.39 44.7102C126.933 44.429 126.577 44.0355 126.325 43.5298C126.072 43.0241 125.945 42.4332 125.945 41.7571C125.945 41.0781 126.072 40.4844 126.325 39.9759C126.577 39.4673 126.933 39.0724 127.39 38.7912C127.847 38.5099 128.383 38.3693 128.996 38.3693C129.61 38.3693 130.146 38.5099 130.603 38.7912C131.06 39.0724 131.415 39.4673 131.668 39.9759C131.921 40.4844 132.048 41.0781 132.048 41.7571C132.048 42.4332 131.921 43.0241 131.668 43.5298C131.415 44.0355 131.06 44.429 130.603 44.7102C130.146 44.9915 129.61 45.1321 128.996 45.1321ZM129.001 44.0625C129.398 44.0625 129.728 43.9574 129.989 43.7472C130.251 43.5369 130.444 43.2571 130.569 42.9077C130.697 42.5582 130.761 42.1733 130.761 41.7528C130.761 41.3352 130.697 40.9517 130.569 40.6023C130.444 40.25 130.251 39.9673 129.989 39.7543C129.728 39.5412 129.398 39.4347 129.001 39.4347C128.6 39.4347 128.268 39.5412 128.004 39.7543C127.742 39.9673 127.548 40.25 127.42 40.6023C127.295 40.9517 127.232 41.3352 127.232 41.7528C127.232 42.1733 127.295 42.5582 127.42 42.9077C127.548 43.2571 127.742 43.5369 128.004 43.7472C128.268 43.9574 128.6 44.0625 129.001 44.0625ZM134.744 41.1136V45H133.47V38.4545H134.693V39.5199H134.774C134.924 39.1733 135.16 38.8949 135.481 38.6847C135.805 38.4744 136.213 38.3693 136.704 38.3693C137.15 38.3693 137.541 38.4631 137.876 38.6506C138.211 38.8352 138.471 39.1108 138.656 39.4773C138.841 39.8437 138.933 40.2969 138.933 40.8366V45H137.659V40.9901C137.659 40.5156 137.535 40.1449 137.288 39.8778C137.041 39.608 136.701 39.473 136.27 39.473C135.974 39.473 135.711 39.5369 135.481 39.6648C135.254 39.7926 135.074 39.9801 134.94 40.2273C134.809 40.4716 134.744 40.767 134.744 41.1136ZM142.547 45.1449C142.132 45.1449 141.757 45.0682 141.422 44.9148C141.086 44.7585 140.821 44.5327 140.625 44.2372C140.431 43.9418 140.335 43.5795 140.335 43.1506C140.335 42.7812 140.406 42.4773 140.548 42.2386C140.69 42 140.882 41.8111 141.123 41.6719C141.365 41.5327 141.635 41.4276 141.933 41.3565C142.231 41.2855 142.535 41.2315 142.845 41.1946C143.237 41.1491 143.555 41.1122 143.799 41.0838C144.044 41.0526 144.221 41.0028 144.332 40.9347C144.443 40.8665 144.498 40.7557 144.498 40.6023V40.5724C144.498 40.2003 144.393 39.9119 144.183 39.7074C143.975 39.5028 143.666 39.4006 143.254 39.4006C142.825 39.4006 142.487 39.4957 142.24 39.6861C141.995 39.8736 141.826 40.0824 141.733 40.3125L140.535 40.0398C140.677 39.642 140.885 39.321 141.157 39.0767C141.433 38.8295 141.75 38.6506 142.108 38.5398C142.466 38.4261 142.842 38.3693 143.237 38.3693C143.498 38.3693 143.775 38.4006 144.068 38.4631C144.363 38.5227 144.639 38.6335 144.895 38.7955C145.153 38.9574 145.365 39.1889 145.529 39.4901C145.694 39.7884 145.777 40.1761 145.777 40.6534V45H144.532V44.1051H144.481C144.399 44.2699 144.275 44.4318 144.11 44.5909C143.946 44.75 143.734 44.8821 143.475 44.9872C143.217 45.0923 142.907 45.1449 142.547 45.1449ZM142.824 44.1222C143.176 44.1222 143.477 44.0526 143.727 43.9134C143.98 43.7741 144.172 43.5923 144.302 43.3679C144.436 43.1406 144.502 42.8977 144.502 42.6392V41.7955C144.457 41.8409 144.369 41.8835 144.238 41.9233C144.11 41.9602 143.964 41.9929 143.799 42.0213C143.635 42.0469 143.474 42.071 143.318 42.0938C143.162 42.1136 143.031 42.1307 142.926 42.1449C142.679 42.1761 142.453 42.2287 142.248 42.3026C142.047 42.3764 141.885 42.483 141.762 42.6222C141.643 42.7585 141.583 42.9403 141.583 43.1676C141.583 43.483 141.7 43.7216 141.933 43.8835C142.166 44.0426 142.463 44.1222 142.824 44.1222ZM148.748 36.2727V45H147.474V36.2727H148.748Z" fill="white"/>
<path d="M122.188 20.3626L124.775 22.9501L130.812 16.9126" stroke="white" stroke-width="1.5" stroke-linecap="round" stroke-linejoin="round"/>
</svg>
